<?xml version="1.0" encoding="UTF-8" standalone="no"?>
<!-- Created with Inkscape (http://www.inkscape.org/) -->

<svg
   xmlns:dc="http://purl.org/dc/elements/1.1/"
   xmlns:cc="http://creativecommons.org/ns#"
   xmlns:rdf="http://www.w3.org/1999/02/22-rdf-syntax-ns#"
   xmlns:svg="http://www.w3.org/2000/svg"
   xmlns="http://www.w3.org/2000/svg"
   xmlns:xlink="http://www.w3.org/1999/xlink"
   xmlns:sodipodi="http://sodipodi.sourceforge.net/DTD/sodipodi-0.dtd"
   xmlns:inkscape="http://www.inkscape.org/namespaces/inkscape"
   id="svg3039"
   version="1.1"
   inkscape:version="0.48.4 r9939"
   width="480.46875"
   height="307.56741"
   sodipodi:docname="icon-mtg.svg">
  <metadata
     id="metadata3045">
    <rdf:RDF>
      <cc:Work
         rdf:about="">
        <dc:format>image/svg+xml</dc:format>
        <dc:type
           rdf:resource="http://purl.org/dc/dcmitype/StillImage" />
        <dc:title />
      </cc:Work>
    </rdf:RDF>
  </metadata>
  <defs
     id="defs3043">
    <linearGradient
       id="linearGradient3131">
      <stop
         style="stop-color:#fcedcb;stop-opacity:1;"
         offset="0"
         id="stop3133" />
      <stop
         id="stop3139"
         offset="0.89041096"
         style="stop-color:#b57f0b;stop-opacity:1;" />
      <stop
         style="stop-color:#815800;stop-opacity:1;"
         offset="1"
         id="stop3135" />
    </linearGradient>
    <linearGradient
       id="linearGradient3121">
      <stop
         style="stop-color:#140e09;stop-opacity:1;"
         offset="0"
         id="stop3123" />
      <stop
         style="stop-color:#140e09;stop-opacity:0;"
         offset="1"
         id="stop3125" />
    </linearGradient>
    <radialGradient
       inkscape:collect="always"
       xlink:href="#linearGradient3131"
       id="radialGradient3137"
       cx="434.86011"
       cy="165.85023"
       fx="434.86011"
       fy="165.85023"
       r="287.23044"
       gradientTransform="matrix(6.9922589e-6,-0.99223464,1.0096423,0,122.54755,718.48325)"
       gradientUnits="userSpaceOnUse" />
  </defs>
  <sodipodi:namedview
     pagecolor="#ffffff"
     bordercolor="#666666"
     borderopacity="1"
     objecttolerance="10"
     gridtolerance="10"
     guidetolerance="10"
     inkscape:pageopacity="0"
     inkscape:pageshadow="2"
     inkscape:window-width="1307"
     inkscape:window-height="744"
     id="namedview3041"
     showgrid="false"
     inkscape:snap-grids="true"
     inkscape:zoom="1.034662"
     inkscape:cx="358.86877"
     inkscape:cy="209.81014"
     inkscape:window-x="59"
     inkscape:window-y="24"
     inkscape:window-maximized="1"
     inkscape:current-layer="g3113"
     fit-margin-top="0"
     fit-margin-left="0"
     fit-margin-right="0"
     fit-margin-bottom="0">
    <inkscape:grid
       type="xygrid"
       id="grid3141"
       empspacing="5"
       visible="true"
       enabled="true"
       snapvisiblegridlinesonly="true"
       originx="-51.392745px"
       originy="-128.62474px" />
  </sodipodi:namedview>
  <g
     id="g3113"
     transform="translate(-51.392745,-140.80787)">
    <path
       style="fill:#faf6ee"
       d="m 664.2824,217.42452 0,-288.5 288.50001,0 288.49999,0 0,288.5 0,288.5 -288.49999,0 -288.50001,0 0,-288.5 z"
       id="path3119"
       inkscape:connector-curvature="0" />
    <path
       style="fill:#140e09"
       d="m 335.174,140.81276 c -1.20277,-0.0575 -2.00959,0.39232 -3.59375,1.3125 -3.58922,2.08484 -9.71875,11.4794 -9.71875,14.90625 0,2.9847 4.05149,5.74756 16.375,11.09375 15.28942,6.63287 19.78262,12.23283 17.59375,22 -1.25217,5.58745 -4.66922,11.01356 -12.4375,19.78125 -9.79567,11.05591 -13.91624,17.30908 -13.8125,20.96875 0.20354,7.18042 7.07135,15.80175 15.65625,19.59375 4.05457,1.79092 6.35983,2.07665 13.46875,1.78125 l 8.5625,-0.34375 3.8125,5 c 4.49741,5.89022 10.82713,18.50129 17.3125,34.5 2.56396,6.325 9.09184,20.71601 14.53125,32 11.64529,24.15799 14.86916,32.91159 15.65625,42.71875 0.99973,12.45678 -3.17819,19.44051 -18.71875,31.28125 -8.02144,6.11175 -15.0101,13.20819 -15,15.25 0.0104,2.10327 2.8759,6.86892 6.78125,11.3125 2.04531,2.32718 4.13906,4.29195 4.65625,4.34375 0.51719,0.0518 5.01719,-1.92332 10,-4.375 17.17668,-8.4514 35.2687,-13.07579 55.5625,-14.1875 17.04965,-0.93399 28.35291,0.97009 51.3125,8.59375 1.55259,0.51554 3.35259,0.74909 4,0.5 1.3455,-0.51768 10.6875,-16.44265 10.6875,-18.21875 0,-0.64382 -2.78928,-3.30969 -6.21875,-5.9375 -16.18749,-12.40361 -20.89808,-20.03563 -33.125,-53.78125 -14.16551,-39.09604 -20.10356,-52.81118 -38.09375,-87.9375 -22.39907,-43.73477 -26.47713,-56.65413 -27.3125,-86.78125 l -0.5,-18.71875 -4.625,-1.78125 c -3.97292,-1.53332 -7.00497,-1.72206 -21.625,-1.34375 -39.87765,1.03187 -48.45144,0.76725 -55.28125,-1.75 -3.10475,-1.14432 -4.70348,-1.72375 -5.90625,-1.78125 z m -196.375,5.3125 -4.59375,4.78125 c -2.52173,2.63182 -5.45136,6.77748 -6.53125,9.21875 -1.83143,4.14027 -1.85736,4.5742 -0.3125,6.28125 0.91092,1.00655 5.34689,2.82113 9.84375,4.03125 9.09073,2.44635 13.06295,4.19297 16.40625,7.25 1.82198,1.66597 2.25,3.14017 2.25,7.6875 0,7.21445 -1.93446,14.54239 -7.65625,28.9375 -4.8564,12.21789 -7.2928,20.14987 -7.3125,23.75 -0.0145,2.64799 9.09898,10.22785 16.65625,13.84375 11.08628,5.3044 18.40414,2.45203 22.5,-8.78125 2.37723,-6.51978 7.0231,-12.71875 9.53125,-12.71875 2.47688,0 10.74992,6.5919 17.875,14.28125 25.2975,27.30094 50.77432,87.58672 60.5625,143.21875 1.53343,8.7154 2.19818,17.20062 2.40625,31 l 0.28125,19 3.84375,2.4375 c 2.10534,1.33961 6.2875,3.67782 9.3125,5.21875 3.025,1.54092 6.05889,2.8055 6.75,2.8125 0.6911,0.007 3.36358,-3.23125 5.90625,-7.21875 6.57675,-10.3139 18.49577,-21.57704 36.09375,-34.0625 11.05045,-7.8401 15.25,-11.3807 15.25,-12.84375 0,-3.97247 -4.09638,-17.94992 -9.09375,-31.03125 -12.92351,-33.82914 -15.308,-43.53873 -14.71875,-59.65625 0.42076,-11.50896 0.52471,-11.87499 9.78125,-29.15625 2.23711,-4.17651 4.03025,-8.90936 4.03125,-10.65625 0.003,-4.37384 -5.53478,-12.20332 -11,-15.5625 -9.39011,-5.7716 -19.59021,-4.66721 -28.1875,3.0625 l -5.09375,4.59375 -2.90625,-3.46875 c -5.35744,-6.36191 -27.51159,-40.29946 -35.875,-54.9375 -4.54285,-7.95111 -12.0197,-22.16211 -16.59375,-31.59375 l -8.3125,-17.15625 -20.25,-0.65625 c -11.14509,-0.36125 -31.65635,-0.93383 -45.5625,-1.28125 l -25.28125,-0.625 z m 1.125,109.21875 c -2.74448,0.087 -5.16889,1.03787 -6.9375,2.8125 -6.4936,6.51569 -12.20427,20.19726 -22.03125,52.875 -13.63249,45.33219 -30.533325,79.35043 -47.031255,94.625 -3.87377,3.58651 -7.0625,6.95409 -7.0625,7.46875 0,0.51466 2.06829,4.14642 4.59375,8.09375 5.89968,9.22124 7.33194,9.25674 17.84375,0.46875 9.71961,-8.12571 34.342785,-12.44239 59.937505,-10.53125 12.99342,0.97021 13.96875,0.52938 13.96875,-6.125 0,-5.2351 -1.56071,-7.39479 -9.5625,-13.28125 -6.37456,-4.68939 -8.69442,-8.22848 -9.78125,-14.90625 -2.04595,-12.57078 2.43408,-30.03862 14.96875,-58.4375 3.7633,-8.52622 7.98257,-18.28484 9.40625,-21.6875 3.65151,-8.72728 7.76746,-23.33509 7.09375,-25.21875 -0.77474,-2.16612 -11.46154,-11.08449 -16.59375,-13.84375 -3.01842,-1.62281 -6.06802,-2.39954 -8.8125,-2.3125 z m 358.5,61.625 c 0.0525,0.12519 0.10227,0.25039 0.15625,0.375 -0.0171,-0.10366 -0.0132,-0.14219 -0.0312,-0.25 -0.0439,-0.0494 -0.15057,-0.18594 -0.125,-0.125 z m -0.125,1.4375 c 0.25113,0.68477 0.52457,1.38428 0.8125,2.15625 -0.0366,-0.24349 -0.1137,-0.68665 -0.15625,-0.96875 -0.21381,-0.39697 -0.44609,-0.78851 -0.65625,-1.1875 z m -450.218755,66 c -0.02837,0.0519 -0.06905,0.10332 -0.09375,0.15625 -0.03751,0.0804 0.03237,0.0466 0.09375,-0.0312 0.0024,-0.0468 -0.0014,-0.0835 0,-0.125 z m -0.28125,2.5 c -0.103479,0.30352 -0.219598,0.59141 -0.40625,1.125 0.09516,0.46278 0.265331,-0.24897 0.40625,-1.125 z"
       id="path3115"
       inkscape:connector-curvature="0" />
  </g>
</svg>
