<?xml version="1.0" encoding="UTF-8" standalone="no"?>
<!-- Created with Inkscape (http://www.inkscape.org/) -->

<svg
   xmlns:dc="http://purl.org/dc/elements/1.1/"
   xmlns:cc="http://creativecommons.org/ns#"
   xmlns:rdf="http://www.w3.org/1999/02/22-rdf-syntax-ns#"
   xmlns:svg="http://www.w3.org/2000/svg"
   xmlns="http://www.w3.org/2000/svg"
   xmlns:xlink="http://www.w3.org/1999/xlink"
   xmlns:sodipodi="http://sodipodi.sourceforge.net/DTD/sodipodi-0.dtd"
   xmlns:inkscape="http://www.inkscape.org/namespaces/inkscape"
   id="svg3039"
   version="1.1"
   inkscape:version="0.48.4 r9939"
   width="47.999996"
   height="48"
   sodipodi:docname="app-icon-m.svg">
  <metadata
     id="metadata3045">
    <rdf:RDF>
      <cc:Work
         rdf:about="">
        <dc:format>image/svg+xml</dc:format>
        <dc:type
           rdf:resource="http://purl.org/dc/dcmitype/StillImage" />
        <dc:title></dc:title>
      </cc:Work>
    </rdf:RDF>
  </metadata>
  <defs
     id="defs3043">
    <linearGradient
       id="linearGradient3131">
      <stop
         style="stop-color:#fcedcb;stop-opacity:1;"
         offset="0"
         id="stop3133" />
      <stop
         id="stop3139"
         offset="0.89041096"
         style="stop-color:#b57f0b;stop-opacity:1;" />
      <stop
         style="stop-color:#815800;stop-opacity:1;"
         offset="1"
         id="stop3135" />
    </linearGradient>
    <linearGradient
       id="linearGradient3121">
      <stop
         style="stop-color:#140e09;stop-opacity:1;"
         offset="0"
         id="stop3123" />
      <stop
         style="stop-color:#140e09;stop-opacity:0;"
         offset="1"
         id="stop3125" />
    </linearGradient>
    <radialGradient
       inkscape:collect="always"
       xlink:href="#linearGradient3131"
       id="radialGradient3137"
       cx="434.86011"
       cy="165.85023"
       fx="434.86011"
       fy="165.85023"
       r="287.23044"
       gradientTransform="matrix(6.9922589e-6,-0.99223464,1.0096423,0,122.54755,718.48325)"
       gradientUnits="userSpaceOnUse" />
  </defs>
  <sodipodi:namedview
     pagecolor="#ffffff"
     bordercolor="#666666"
     borderopacity="1"
     objecttolerance="10"
     gridtolerance="10"
     guidetolerance="10"
     inkscape:pageopacity="0"
     inkscape:pageshadow="2"
     inkscape:window-width="1307"
     inkscape:window-height="744"
     id="namedview3041"
     showgrid="false"
     inkscape:snap-grids="true"
     inkscape:zoom="8.277296"
     inkscape:cx="28.340882"
     inkscape:cy="20.765302"
     inkscape:window-x="59"
     inkscape:window-y="24"
     inkscape:window-maximized="1"
     inkscape:current-layer="g3113"
     fit-margin-top="0"
     fit-margin-left="0"
     fit-margin-right="0"
     fit-margin-bottom="0">
    <inkscape:grid
       type="xygrid"
       id="grid3141"
       empspacing="5"
       visible="true"
       enabled="true"
       snapvisiblegridlinesonly="true"
       originx="-56.861495px"
       originy="-128.62475px" />
  </sodipodi:namedview>
  <g
     id="g3113"
     transform="translate(-56.861495,-400.37527)">
    <path
       style="fill:#140e09"
       d="m 85.224553,408.70355 c -0.122576,-0.006 -0.204799,0.04 -0.366243,0.13376 -0.36578,0.21247 -0.990445,1.16987 -0.990445,1.51911 0,0.30417 0.41289,0.58574 1.668789,1.13057 1.558158,0.67596 2.016064,1.24666 1.792994,2.24204 -0.12761,0.56942 -0.475844,1.1224 -1.267516,2.01592 -0.998285,1.12672 -1.418215,1.76399 -1.407643,2.13695 0.02074,0.73176 0.720647,1.61036 1.595541,1.99681 0.413205,0.18251 0.648136,0.21163 1.372612,0.18153 l 0.872611,-0.035 0.388535,0.50955 c 0.458335,0.60028 1.103402,1.88548 1.764331,3.51593 0.261296,0.64458 0.926557,2.11118 1.480892,3.26114 1.186781,2.46196 1.515328,3.35405 1.595541,4.3535 0.101884,1.26949 -0.323892,1.9812 -1.907643,3.1879 -0.817471,0.62286 -1.529692,1.34606 -1.528662,1.55414 0.0011,0.21435 0.293085,0.70002 0.691083,1.15287 0.208439,0.23716 0.421815,0.4374 0.474522,0.44267 0.05271,0.005 0.511306,-0.196 1.019108,-0.44586 1.75049,-0.86128 3.594262,-1.33256 5.66242,-1.44586 1.737544,-0.0952 2.88947,0.0989 5.2293,0.8758 0.15823,0.0525 0.34166,0.0763 0.40764,0.051 0.13712,-0.0528 1.08917,-1.67569 1.08917,-1.85669 0,-0.0656 -0.28425,-0.3373 -0.63375,-0.6051 -1.64968,-1.26406 -2.12974,-2.04184 -3.3758,-5.48089 -1.443618,-3.98431 -2.04877,-5.38203 -3.882165,-8.96178 -2.282707,-4.45705 -2.698306,-5.77367 -2.783439,-8.84395 l -0.05096,-1.90764 -0.471337,-0.18153 c -0.404884,-0.15627 -0.713882,-0.1755 -2.203822,-0.13695 -4.063964,0.10516 -4.937726,0.0782 -5.633758,-0.17834 -0.316407,-0.11662 -0.479335,-0.17567 -0.60191,-0.18153 z m -20.012739,0.5414 -0.468153,0.48726 c -0.256992,0.26821 -0.555553,0.6907 -0.665605,0.93949 -0.186643,0.42194 -0.189285,0.46616 -0.03185,0.64013 0.09283,0.10258 0.544906,0.28751 1.003185,0.41083 0.926443,0.24931 1.331256,0.42731 1.671974,0.73885 0.18568,0.16978 0.229299,0.32002 0.229299,0.78344 0,0.73523 -0.197142,1.48203 -0.780254,2.94905 -0.49492,1.24513 -0.743216,2.05349 -0.745223,2.42038 -0.0015,0.26986 0.927284,1.04233 1.697452,1.41083 1.129812,0.54057 1.875581,0.24989 2.292994,-0.89491 0.242265,-0.66443 0.715729,-1.29618 0.971337,-1.29618 0.252421,0 1.095533,0.67179 1.821656,1.45542 2.578089,2.78226 5.174453,8.92603 6.171975,14.59554 0.156273,0.88819 0.224018,1.75293 0.245222,3.15924 l 0.02866,1.9363 0.39172,0.24841 c 0.214557,0.13652 0.640764,0.37481 0.949044,0.53185 0.30828,0.15703 0.617467,0.28591 0.687898,0.28662 0.07043,7.1e-4 0.342786,-0.3293 0.601911,-0.73567 0.670242,-1.0511 1.884919,-2.19893 3.678344,-3.47134 1.126161,-0.79899 1.55414,-1.15981 1.55414,-1.30891 0,-0.40484 -0.417465,-1.82929 -0.926751,-3.16242 -1.317046,-3.44756 -1.560051,-4.43707 -1.5,-6.07962 0.04288,-1.17289 0.05347,-1.21019 0.996815,-2.97134 0.227986,-0.42563 0.410726,-0.90796 0.410828,-1.08599 3.06e-4,-0.44574 -0.564054,-1.24365 -1.121019,-1.58598 -0.956954,-0.58819 -1.996455,-0.47564 -2.872612,0.3121 l -0.519108,0.46815 -0.296178,-0.3535 c -0.545981,-0.64835 -2.803729,-4.10695 -3.656051,-5.59873 -0.462966,-0.8103 -1.224938,-2.25856 -1.691083,-3.21974 l -0.847134,-1.74841 -2.063694,-0.0669 c -1.135805,-0.0368 -3.226125,-0.0952 -4.643312,-0.13057 z m 0.11465,11.13058 c -0.279693,0.009 -0.526766,0.10577 -0.707007,0.28662 -0.661768,0.66402 -1.243747,2.05832 -2.245223,5.38854 -1.389298,4.61984 -3.111676,8.08666 -4.792994,9.64331 -0.394779,0.3655 -0.719745,0.70869 -0.719745,0.76114 0,0.0524 0.210781,0.42257 0.468153,0.82484 0.601241,0.93975 0.747204,0.94337 1.818471,0.0478 0.990534,-0.82809 3.499902,-1.26801 6.108281,-1.07324 1.32417,0.0989 1.423567,0.0539 1.423567,-0.62421 0,-0.53351 -0.159054,-0.75361 -0.974523,-1.3535 -0.649636,-0.4779 -0.886055,-0.83857 -0.996815,-1.51911 -0.208504,-1.2811 0.248059,-3.06126 1.525478,-5.95541 0.383521,-0.86892 0.81351,-1.86343 0.958599,-2.21019 0.372128,-0.88941 0.791588,-2.3781 0.72293,-2.57007 -0.07896,-0.22075 -1.168055,-1.12963 -1.691083,-1.41083 -0.30761,-0.16538 -0.618397,-0.24453 -0.898089,-0.23566 z m 36.535036,6.28025 c 0.005,0.0128 0.0104,0.0255 0.0159,0.0382 -0.002,-0.0106 -10e-4,-0.0145 -0.003,-0.0255 -0.004,-0.005 -0.0153,-0.0189 -0.0127,-0.0127 z m -0.0127,0.1465 c 0.0256,0.0698 0.0535,0.14107 0.0828,0.21974 -0.004,-0.0248 -0.0116,-0.07 -0.0159,-0.0987 -0.0218,-0.0405 -0.0455,-0.0804 -0.0669,-0.12102 z"
       id="path3115"
       inkscape:connector-curvature="0"
       sodipodi:nodetypes="sssssssscccssssssssssssssscccsssccsssssssssssscccsssssssscscccsccscccsssssssssssssscccccccccc" />
  </g>
</svg>
