<?xml version="1.0" encoding="UTF-8" standalone="no"?>
<!-- Created with Inkscape (http://www.inkscape.org/) -->

<svg
   xmlns:dc="http://purl.org/dc/elements/1.1/"
   xmlns:cc="http://creativecommons.org/ns#"
   xmlns:rdf="http://www.w3.org/1999/02/22-rdf-syntax-ns#"
   xmlns:svg="http://www.w3.org/2000/svg"
   xmlns="http://www.w3.org/2000/svg"
   xmlns:xlink="http://www.w3.org/1999/xlink"
   xmlns:sodipodi="http://sodipodi.sourceforge.net/DTD/sodipodi-0.dtd"
   xmlns:inkscape="http://www.inkscape.org/namespaces/inkscape"
   id="svg3039"
   version="1.1"
   inkscape:version="0.48.4 r9939"
   width="574.44073"
   height="574.52026"
   sodipodi:docname="icon-mtg.svg">
  <metadata
     id="metadata3045">
    <rdf:RDF>
      <cc:Work
         rdf:about="">
        <dc:format>image/svg+xml</dc:format>
        <dc:type
           rdf:resource="http://purl.org/dc/dcmitype/StillImage" />
        <dc:title />
      </cc:Work>
    </rdf:RDF>
  </metadata>
  <defs
     id="defs3043">
    <linearGradient
       id="linearGradient3037">
      <stop
         id="stop3039"
         offset="0"
         style="stop-color:#140e09;stop-opacity:0.5;" />
      <stop
         style="stop-color:#140e09;stop-opacity:1;"
         offset="0.36170211"
         id="stop3041" />
      <stop
         style="stop-color:#140e09;stop-opacity:1;"
         offset="0.65957445"
         id="stop3043" />
      <stop
         id="stop3045"
         offset="1"
         style="stop-color:#140e09;stop-opacity:0.5;" />
    </linearGradient>
    <linearGradient
       id="linearGradient3131">
      <stop
         style="stop-color:#fcedcb;stop-opacity:1;"
         offset="0"
         id="stop3133" />
      <stop
         id="stop3139"
         offset="0.89041096"
         style="stop-color:#b57f0b;stop-opacity:1;" />
      <stop
         style="stop-color:#815800;stop-opacity:0.92307693;"
         offset="1"
         id="stop3135" />
    </linearGradient>
    <linearGradient
       id="linearGradient3121">
      <stop
         style="stop-color:#140e09;stop-opacity:0;"
         offset="0"
         id="stop3123" />
      <stop
         id="stop3035"
         offset="0.25"
         style="stop-color:#140e09;stop-opacity:1;" />
      <stop
         id="stop3033"
         offset="0.5"
         style="stop-color:#140e09;stop-opacity:1;" />
      <stop
         style="stop-color:#140e09;stop-opacity:0;"
         offset="1"
         id="stop3125" />
    </linearGradient>
    <radialGradient
       inkscape:collect="always"
       xlink:href="#linearGradient3131"
       id="radialGradient3137"
       cx="434.86011"
       cy="165.85023"
       fx="434.86011"
       fy="165.85023"
       r="287.23044"
       gradientTransform="matrix(6.9922589e-6,-0.99223464,1.0096423,0,196.00148,1029.5406)"
       gradientUnits="userSpaceOnUse" />
    <linearGradient
       inkscape:collect="always"
       xlink:href="#linearGradient3121"
       id="linearGradient3023"
       x1="295.16595"
       y1="180.11664"
       x2="305.50912"
       y2="365.29892"
       gradientUnits="userSpaceOnUse" />
    <linearGradient
       inkscape:collect="always"
       xlink:href="#linearGradient3037"
       id="linearGradient3031"
       gradientUnits="userSpaceOnUse"
       x1="300.59937"
       y1="-155.58035"
       x2="300.59937"
       y2="414.41965" />
  </defs>
  <sodipodi:namedview
     pagecolor="#ffffff"
     bordercolor="#666666"
     borderopacity="1"
     objecttolerance="10"
     gridtolerance="10"
     guidetolerance="10"
     inkscape:pageopacity="0"
     inkscape:pageshadow="2"
     inkscape:window-width="1307"
     inkscape:window-height="744"
     id="namedview3041"
     showgrid="true"
     inkscape:snap-grids="true"
     inkscape:zoom="1"
     inkscape:cx="291.40409"
     inkscape:cy="278.7784"
     inkscape:window-x="59"
     inkscape:window-y="24"
     inkscape:window-maximized="1"
     inkscape:current-layer="g3113"
     inkscape:snap-bbox="true"
     inkscape:snap-global="true"
     fit-margin-top="0"
     fit-margin-left="0"
     fit-margin-right="0"
     fit-margin-bottom="0">
    <inkscape:grid
       type="xygrid"
       id="grid3141"
       empspacing="5"
       visible="true"
       enabled="true"
       snapvisiblegridlinesonly="true"
       originx="-168.14745px"
       originy="-349.21348px" />
  </sodipodi:namedview>
  <g
     id="g3113"
     transform="translate(-8.746805,159.31409)">
    <path
       style="fill:url(#radialGradient3137);fill-opacity:1"
       d="m 366.96875,312.1875 c -19.98271,0.0736 -42.75959,0.93229 -51,2.28125 -13.94053,2.28208 -32.75133,7.08045 -47.5,12.125 -83.47007,28.54965 -150.72821,95.87275 -178.875,179.0625 -11.095643,32.79393 -15.125,57.91587 -15.125,93.9375 0,38.72693 5.796088,70.41758 19.1875,104.78125 37.4988,96.22561 124.36643,165.41795 226.8125,180.6875 10.68659,1.59281 17.21487,1.82373 45,1.53125 35.84895,-0.37736 42.14941,-1.05446 67,-7.15625 20.10884,-4.93751 36.44001,-10.9935 57.5,-21.34375 30.81724,-15.1456 52.25784,-30.593 77,-55.4375 38.44407,-38.60309 64.01302,-84.30974 76.40625,-136.59375 5.20139,-21.9434 5.57695,-26.51409 5.53125,-67.5 -0.0462,-41.43514 -0.44853,-45.89941 -6.46875,-69.71875 -8.77796,-34.73052 -25.59119,-70.94065 -45.375,-97.78125 -15.63957,-21.21814 -39.75843,-46.13821 -58.40625,-60.34375 -42.18007,-32.13194 -93.7085,-53.02647 -142.5,-57.75 -6.21258,-0.60144 -17.19787,-0.8254 -29.1875,-0.78125 z m -6.375,17.875 c 110.88276,-0.80253 213.15771,66.6723 254.1875,174.65625 21.81117,57.40358 22.69118,124.32101 2.40625,182.9375 -1.86047,5.37612 -4.06482,10.21924 -4.90625,10.75 -1.16163,0.73274 -3.92114,-0.73755 -11.4375,-6.09375 -16.11425,-11.48311 -18.32874,-14.51161 -21.90625,-29.9375 -0.80557,-3.47356 -3.5196,-11.81694 -6.03125,-18.53125 -4.21803,-11.27595 -4.57531,-12.93788 -4.625,-21.75 -0.0296,-5.2472 0.50821,-15.83343 1.1875,-23.53125 1.83677,-20.81484 -0.003,-37.75566 -6.625,-60.84375 -19.52069,-68.06842 -76.02308,-122.91867 -144.9375,-140.6875 -16.73299,-4.31442 -32.11833,-6.05216 -53.4375,-6.0625 -49.55318,-0.024 -87.41697,12.12937 -124.25,39.875 -46.97723,35.38706 -77.04033,86.73995 -84.3125,144.125 -2.27212,17.92936 -1.63464,45.7079 1.3125,58.09375 3.15844,13.27383 3.40349,16.87212 1.8125,25.1875 -2.03173,10.61892 -6.65042,20.07526 -19.65625,40.09375 -14.00866,21.56206 -16.0596,23.519 -19.34375,18.46875 -3.81734,-5.87018 -12.8753,-29.699 -17,-44.6875 -6.64218,-24.1366 -8.71566,-38.85588 -9.3125,-66.625 -0.68809,-32.01414 2.04245,-53.80246 10.21875,-81.84375 26.68776,-91.5279 102.22469,-163.73165 194.53125,-185.96875 20.79052,-5.00854 41.59116,-7.47638 62.125,-7.625 z m 48.1875,133.40625 c 1.20277,0.0575 2.77025,0.63693 5.875,1.78125 6.82981,2.51725 15.43485,2.78187 55.3125,1.75 14.62003,-0.37831 17.62083,-0.18957 21.59375,1.34375 l 4.625,1.78125 0.53125,18.71875 c 0.83537,30.12712 4.88218,43.04648 27.28125,86.78125 17.99019,35.12632 23.92824,48.84146 38.09375,87.9375 12.22692,33.74562 16.93751,41.37764 33.125,53.78125 3.42947,2.62781 6.25,5.29368 6.25,5.9375 0,1.7761 -9.342,17.70107 -10.6875,18.21875 -0.64741,0.24909 -2.44741,0.0155 -4,-0.5 -22.95959,-7.62366 -34.26285,-9.52774 -51.3125,-8.59375 -20.2938,1.11171 -38.38582,5.7361 -55.5625,14.1875 -4.98281,2.45168 -9.48281,4.4268 -10,4.375 -0.51719,-0.0518 -2.61094,-2.01657 -4.65625,-4.34375 -3.90535,-4.44358 -6.77086,-9.20923 -6.78125,-11.3125 -0.0101,-2.04181 6.94731,-9.13825 14.96875,-15.25 15.54056,-11.84074 19.71848,-18.82447 18.71875,-31.28125 -0.78709,-9.80716 -3.97971,-18.56076 -15.625,-42.71875 -5.43941,-11.28399 -11.99854,-25.675 -14.5625,-32 -6.48537,-15.99871 -12.81509,-28.60978 -17.3125,-34.5 l -3.8125,-5 -8.5625,0.34375 c -7.10892,0.2954 -9.38293,0.01 -13.4375,-1.78125 -8.5849,-3.792 -15.48396,-12.41333 -15.6875,-19.59375 -0.10374,-3.65967 4.01683,-9.91284 13.8125,-20.96875 7.76828,-8.76769 11.18533,-14.1938 12.4375,-19.78125 2.18887,-9.76717 -2.27308,-15.36713 -17.5625,-22 -12.32351,-5.34619 -16.375,-8.10905 -16.375,-11.09375 0,-3.42685 6.09828,-12.82141 9.6875,-14.90625 1.58416,-0.92017 2.42223,-1.37 3.625,-1.3125 z m -196.40625,5.3125 25.28125,0.625 c 13.90615,0.34742 34.41741,0.92 45.5625,1.28125 l 20.25,0.65625 8.34375,17.15625 c 4.57405,9.43164 12.01965,23.64264 16.5625,31.59375 8.36341,14.63804 30.51756,48.57559 35.875,54.9375 l 2.9375,3.46875 5.0625,-4.59375 c 8.59729,-7.72971 18.82864,-8.8341 28.21875,-3.0625 5.46522,3.35918 10.97211,11.18866 10.96875,15.5625 -10e-4,1.74689 -1.76289,6.47974 -4,10.65625 -9.25654,17.28126 -9.39174,17.64729 -9.8125,29.15625 -0.58925,16.11752 1.79524,25.82711 14.71875,59.65625 4.99737,13.08133 9.125,27.05878 9.125,31.03125 0,1.46305 -4.19955,5.00365 -15.25,12.84375 -17.59798,12.48546 -29.54825,23.7486 -36.125,34.0625 -2.54267,3.9875 -5.1839,7.22572 -5.875,7.21875 -0.69111,-0.007 -3.725,-1.27158 -6.75,-2.8125 -3.025,-1.54093 -7.23841,-3.87914 -9.34375,-5.21875 l -3.8125,-2.4375 -0.3125,-19 c -0.20807,-13.79938 -0.84157,-22.2846 -2.375,-31 -9.78818,-55.63203 -35.29625,-115.91781 -60.59375,-143.21875 -7.12508,-7.68935 -15.36687,-14.28125 -17.84375,-14.28125 -2.50815,0 -7.18527,6.19897 -9.5625,12.71875 -4.09586,11.23328 -11.38247,14.08565 -22.46875,8.78125 -7.55727,-3.6159 -16.70199,-11.19576 -16.6875,-13.84375 0.0197,-3.60013 2.4561,-11.53211 7.3125,-23.75 5.72179,-14.39511 7.6875,-21.72305 7.6875,-28.9375 0,-4.54733 -0.42802,-6.02153 -2.25,-7.6875 -3.3433,-3.05703 -7.34677,-4.80365 -16.4375,-7.25 -4.49686,-1.21012 -8.93283,-3.0247 -9.84375,-4.03125 -1.54486,-1.70705 -1.51893,-2.14098 0.3125,-6.28125 1.07989,-2.44127 4.04077,-6.58693 6.5625,-9.21875 l 4.5625,-4.78125 z M 213.5,578 c 2.74448,-0.087 5.79408,0.6897 8.8125,2.3125 5.13221,2.75926 15.81901,11.67763 16.59375,13.84375 0.67371,1.88366 -3.41099,16.49147 -7.0625,25.21875 -1.42368,3.40266 -5.6742,13.16128 -9.4375,21.6875 -12.53467,28.39888 -17.0147,45.86672 -14.96875,58.4375 1.08683,6.67777 3.40669,10.21686 9.78125,14.90625 8.00179,5.88646 9.5625,8.04615 9.5625,13.28125 0,6.65438 -0.97533,7.09521 -13.96875,6.125 -25.59472,-1.91114 -50.21789,2.40554 -59.9375,10.53125 -10.51181,8.78799 -11.94408,8.75249 -17.84375,-0.46875 -2.52547,-3.94733 -4.5625,-7.57909 -4.5625,-8.09375 0,-0.51466 3.15748,-3.88224 7.03125,-7.46875 16.49794,-15.27457 33.39877,-49.29281 47.03125,-94.625 9.82698,-32.67774 15.53765,-46.35931 22.03125,-52.875 1.76861,-1.77463 4.19302,-2.72546 6.9375,-2.8125 z m 311.09375,166.21875 c 4.83471,-0.0766 10.18733,0.32394 15.375,1.21875 4.95,0.85381 13.95,2.37616 20,3.40625 12.39185,2.10986 20.5,5.1882 20.5,7.78125 0,0.93057 -3.50332,6.02465 -7.75,11.3125 -42.95536,53.48694 -103.14669,87.92571 -171.75,98.21875 -12.41095,1.86211 -48.06784,3.31971 -56.5,2.3125 -1.925,-0.22994 -8,-0.89003 -13.5,-1.46875 -44.84536,-4.71874 -92.78163,-23.87168 -130,-51.96875 -18.27133,-13.79348 -41.53375,-36.70566 -51.4375,-50.625 L 147,760.84375 l 2.625,-2.25 c 3.07256,-2.6429 21.86397,-8.91535 33.0625,-11.03125 11.67392,-2.20572 28.78032,-2.92097 31.4375,-1.3125 1.1904,0.72058 6.5904,5.06061 12,9.65625 29.95707,25.44959 63.5014,41.40239 101.6875,48.34375 10.21381,1.85664 15.87692,2.21708 35.65625,2.25 25.40747,0.0423 32.18411,-0.70138 50.8125,-5.5 28.53481,-7.35049 58.44783,-23.23928 81.6875,-43.4375 5.5,-4.7802 11.8,-9.63548 14,-10.78125 3.04931,-1.5881 8.40895,-2.46395 14.625,-2.5625 z"
       transform="translate(-65.721945,-471.4962)"
       id="path3117"
       inkscape:connector-curvature="0" />
    <path
       style="fill:url(#linearGradient3031);fill-opacity:1"
       d="m 278.78133,396.98397 c -1.925,-0.22994 -8,-0.89158 -13.5,-1.4703 C 220.43597,390.79493 172.52388,371.63575 135.30551,343.53868 117.03418,329.7452 93.751345,306.84436 83.84759,292.92502 l -2.53067,-3.55676 2.63902,-2.26999 c 3.07256,-2.6429 21.86982,-8.91099 33.06835,-11.02689 11.67392,-2.20572 28.76423,-2.91796 31.42141,-1.30949 1.1904,0.72058 6.5904,5.07022 12,9.66586 29.95707,25.44959 63.51441,41.40062 101.70052,48.34198 10.2138,1.85664 15.85579,2.21208 35.63511,2.245 25.40747,0.0423 32.20821,-0.69225 50.8366,-5.49087 28.53481,-7.35049 58.42373,-23.25411 81.6634,-43.45233 5.5,-4.7802 11.8,-9.62873 14,-10.7745 5.42099,-2.82329 18.14247,-3.39612 30,-1.35085 4.95,0.85381 13.95,2.39518 20,3.42527 12.39185,2.10986 20.5,5.18703 20.5,7.78008 0,0.93057 -3.47455,6.01838 -7.72123,11.30623 -42.95535,53.48694 -103.17546,87.91579 -171.77877,98.20883 -12.41095,1.86211 -48.06784,3.32459 -56.5,2.31738 z m 13,-100.23894 c -3.025,-1.54093 -7.22256,-3.89773 -9.3279,-5.23734 l -3.8279,-2.43565 -0.28648,-19 c -0.20807,-13.79938 -0.8644,-22.2846 -2.39783,-31 -9.78818,-55.63203 -35.28423,-115.89776 -60.58173,-143.198692 -7.12508,-7.68935 -15.38166,-14.3013 -17.85854,-14.3013 -2.50815,0 -7.16567,6.21571 -9.5429,12.73549 -4.09586,11.233272 -11.40237,14.086592 -22.48865,8.782192 -7.55727,-3.615897 -16.69069,-11.200712 -16.6762,-13.848702 0.0197,-3.60013 2.46658,-11.53781 7.32298,-23.7557 5.72179,-14.39511 7.66515,-21.73461 7.66515,-28.94906 0,-4.547332 -0.42802,-6.006962 -2.25,-7.672932 -3.3433,-3.05703 -7.33538,-4.82395 -16.42611,-7.2703 -4.49686,-1.21012 -8.9214,-3.02375 -9.83232,-4.0303 -1.54486,-1.70705 -1.5242,-2.12849 0.30723,-6.26876 1.07989,-2.4412704 4.02667,-6.5919804 6.5484,-9.2238004 l 4.58495,-4.78512 25.28393,0.63168 c 13.90615,0.34742 34.40264,0.92725 45.54773,1.28849995 l 20.26379,0.65681 8.31647,17.14842045 c 4.57405,9.43164 12.03334,23.653892 16.57619,31.605002 8.36341,14.63804 30.52791,48.56109 35.88535,54.922992 l 2.91912,3.46642 5.08479,-4.57166 c 8.59729,-7.729702 18.80038,-8.840402 28.19049,-3.068802 5.46522,3.359172 11.00095,11.196792 10.99759,15.570632 -10e-4,1.74689 -1.78262,6.46048 -4.01973,10.63699 -9.25654,17.28126 -9.38263,17.65637 -9.80339,29.16533 -0.58925,16.11752 1.80502,25.81297 14.72853,59.64211 4.99737,13.08133 9.097,27.07154 9.097,31.04401 0,1.46305 -4.19328,4.99329 -15.24373,12.83339 -17.59798,12.48546 -29.54338,23.75126 -36.12013,34.06516 -2.54267,3.9875 -5.18848,7.2443 -5.87958,7.23733 -0.69111,-0.007 -3.73156,-1.27342 -6.75656,-2.81434 z M 69.37309,272.39508 c -2.52547,-3.94733 -4.59176,-7.59805 -4.59176,-8.11271 0,-0.51466 3.16945,-3.87017 7.04322,-7.45668 16.49794,-15.27457 33.4133,-49.29949 47.04578,-94.63168 9.82698,-32.67774 15.52288,-46.35628 22.01648,-52.87197 3.53722,-3.54926 9.72812,-3.74561 15.76495,-0.5 5.13221,2.75926 15.81815,11.6695 16.59289,13.83562 0.67371,1.88366 -3.42827,16.50044 -7.07978,25.22772 -1.42368,3.40266 -5.66757,13.16265 -9.43087,21.68887 -12.53467,28.39888 -17.00774,45.87096 -14.96179,58.44174 1.08683,6.67777 3.40017,10.20205 9.77473,14.89144 8.00179,5.88646 9.56772,8.06292 9.56772,13.29802 0,6.65438 -0.97767,7.08207 -13.97109,6.11186 -25.59472,-1.91114 -50.221975,2.42273 -59.94159,10.54844 -10.51181,8.78799 -11.92922,8.75057 -17.82889,-0.47067 z m 330.18951,2.75733 c -3.90535,-4.44358 -6.76471,-9.22422 -6.77511,-11.32749 -0.0101,-2.04181 6.96502,-9.14069 14.98645,-15.25244 15.54057,-11.84074 19.71263,-18.8122 18.7129,-31.26898 -0.78708,-9.80716 -3.98986,-18.55712 -15.63515,-42.71511 -5.43941,-11.28399 -11.98762,-25.69135 -14.55158,-32.01635 -6.48537,-15.99871 -12.81299,-28.60978 -17.3104,-34.5 l -3.8177,-5 -8.562,0.35577 c -7.10892,0.2954 -9.39078,-0.0103 -13.44535,-1.80122 -8.5849,-3.791992 -15.47762,-12.397592 -15.68116,-19.578012 -0.10374,-3.65967 4.01983,-9.92062 13.8155,-20.97653 7.76828,-8.76769 11.18291,-14.20173 12.43508,-19.78918 2.18887,-9.767172 -2.28577,-15.368782 -17.57519,-22.001652 -12.32351,-5.34619 -16.37756,-8.0868 -16.37756,-11.0715004 0,-3.42685 6.12037,-12.82541 9.70959,-14.91025 3.16831,-1.84035 3.2905,-1.83451 9.5,0.45413 6.82981,2.51725 15.41276,2.79021 55.29041,1.75834 14.62003,-0.37831 17.64674,-0.19028 21.61966,1.34304 l 4.61965,1.78293 0.519,18.7170704 c 0.83537,30.127122 4.90045,43.049932 27.29952,86.784694 17.99019,35.12632 23.92985,48.83633 38.09536,87.93237 12.22692,33.74562 16.92392,41.37424 33.11141,53.77785 3.42947,2.62781 6.2354,5.3046 6.2354,5.94842 0,1.7761 -9.33162,17.68445 -10.67712,18.20213 -0.64741,0.24909 -2.44741,0.0311 -4,-0.48444 -22.95959,-7.62366 -34.27323,-9.51533 -51.32288,-8.58134 -20.2938,1.11171 -38.38298,5.72838 -55.55966,14.17978 -4.98281,2.45168 -9.48281,4.41521 -10,4.36341 -0.51719,-0.0518 -2.61377,-1.99826 -4.65908,-4.32544 z M 54.36427,245.32204 C 50.54693,239.45186 41.47699,215.63093 37.35229,200.64243 30.71011,176.50583 28.65592,161.77677 28.05908,134.00765 27.37099,101.99351 30.08564,80.222028 38.26194,52.180738 64.9497,-39.347164 140.47477,-111.55322 232.78133,-133.79032 c 133.05934,-32.05466 267.70619,39.035526 316.3341,167.016506 21.81116,57.403582 22.69153,124.326184 2.4066,182.942674 -1.86047,5.37612 -4.07112,10.20903 -4.91255,10.73979 -1.16163,0.73274 -3.91265,-0.73296 -11.42901,-6.08916 -16.11425,-11.48311 -18.329,-14.5096 -21.90651,-29.93549 -0.80557,-3.47356 -3.51965,-11.80908 -6.0313,-18.52339 -4.21803,-11.27595 -4.57072,-12.93608 -4.62041,-21.7482 -0.0296,-5.2472 0.50198,-15.83858 1.18127,-23.5364 1.83677,-20.81484 -0.008,-37.745722 -6.62954,-60.833812 -19.52069,-68.0684224 -76.02574,-122.913572 -144.94016,-140.682402 -16.73298,-4.31442 -32.13332,-6.06472 -53.45249,-6.07506 -49.55318,-0.024 -87.41525,12.12603 -124.24828,39.87166 C 127.55582,-5.2565444 97.518165,46.110958 90.24599,103.496 c -2.27212,17.92936 -1.65397,45.69019 1.29317,58.07604 3.158445,13.27383 3.420955,16.88964 1.82996,25.20502 -2.03173,10.61892 -6.67141,20.07177 -19.67724,40.09026 -14.00866,21.56206 -16.04346,23.50497 -19.32761,18.45472 z"
       id="path3115-6"
       inkscape:connector-curvature="0" />
  </g>
</svg>
