<?xml version="1.0" encoding="UTF-8" standalone="no"?>
<!-- Created with Inkscape (http://www.inkscape.org/) -->

<svg
   xmlns:dc="http://purl.org/dc/elements/1.1/"
   xmlns:cc="http://creativecommons.org/ns#"
   xmlns:rdf="http://www.w3.org/1999/02/22-rdf-syntax-ns#"
   xmlns:svg="http://www.w3.org/2000/svg"
   xmlns="http://www.w3.org/2000/svg"
   xmlns:xlink="http://www.w3.org/1999/xlink"
   xmlns:sodipodi="http://sodipodi.sourceforge.net/DTD/sodipodi-0.dtd"
   xmlns:inkscape="http://www.inkscape.org/namespaces/inkscape"
   width="296.88455"
   height="332.90164"
   id="svg2"
   version="1.1"
   inkscape:version="0.48.4 r9939"
   sodipodi:docname="New document 1">
  <defs
     id="defs4">
    <linearGradient
       gradientUnits="userSpaceOnUse"
       y2="606.32501"
       x2="435.96674"
       y1="329.13916"
       x1="154.53825"
       id="linearGradient3994"
       xlink:href="#linearGradient3940"
       inkscape:collect="always" />
    <linearGradient
       gradientTransform="translate(-300.55155,14.885704)"
       gradientUnits="userSpaceOnUse"
       y2="608.08521"
       x2="438.65854"
       y1="327.29254"
       x1="156.03659"
       id="linearGradient3946"
       xlink:href="#linearGradient3940"
       inkscape:collect="always" />
    <linearGradient
       id="linearGradient3940">
      <stop
         id="stop3942"
         offset="0"
         style="stop-color:#c87137;stop-opacity:1;" />
      <stop
         style="stop-color:#c87137;stop-opacity:0.46666667;"
         offset="0.63712686"
         id="stop3948" />
      <stop
         id="stop3944"
         offset="1"
         style="stop-color:#c87137;stop-opacity:0;" />
    </linearGradient>
  </defs>
  <sodipodi:namedview
     id="base"
     pagecolor="#ffffff"
     bordercolor="#666666"
     borderopacity="1.0"
     inkscape:pageopacity="0.0"
     inkscape:pageshadow="2"
     inkscape:zoom="0.98994949"
     inkscape:cx="183.89221"
     inkscape:cy="136.40693"
     inkscape:document-units="px"
     inkscape:current-layer="layer1"
     showgrid="false"
     fit-margin-top="0"
     fit-margin-left="0"
     fit-margin-right="0"
     fit-margin-bottom="0"
     inkscape:window-width="1307"
     inkscape:window-height="744"
     inkscape:window-x="59"
     inkscape:window-y="24"
     inkscape:window-maximized="1" />
  <metadata
     id="metadata7">
    <rdf:RDF>
      <cc:Work
         rdf:about="">
        <dc:format>image/svg+xml</dc:format>
        <dc:type
           rdf:resource="http://purl.org/dc/dcmitype/StillImage" />
        <dc:title></dc:title>
      </cc:Work>
    </rdf:RDF>
  </metadata>
  <g
     inkscape:label="Layer 1"
     inkscape:groupmode="layer"
     id="layer1"
     transform="translate(-234.81151,-416.25757)">
    <path
       style="fill:#000000"
       d=""
       id="path3094"
       inkscape:connector-curvature="0" />
    <path
       style="fill:#000000"
       d=""
       id="path3090"
       inkscape:connector-curvature="0" />
    <path
       style="fill:#000000"
       d=""
       id="path3088"
       inkscape:connector-curvature="0" />
    <path
       style="fill:#000000"
       d="m 373.78645,748.591 c -15.7837,-2.11154 -27.4559,-8.18174 -40.2167,-20.91497 -8.2453,-8.22746 -10.2866,-10.97448 -14.8879,-20.0348 -2.9328,-5.775 -5.4291,-10.62126 -5.5473,-10.76946 -0.1183,-0.14821 -11.8442,1.97627 -26.0578,4.72107 -14.2135,2.7448 -25.927,4.89106 -26.03,4.76947 -0.1443,-0.17031 10.4935,-25.8731 15.318,-37.01116 0.6656,-1.53648 8.334,3.18337 54.1274,33.31497 31.7934,20.91969 53.9393,34.87968 54.8055,34.54731 0.7994,-0.30676 24.0091,-15.94088 51.5772,-34.74249 39.4193,-26.88422 50.3148,-33.87988 51.0181,-32.75723 2.9269,4.67235 15.2906,35.46963 14.3339,35.7052 -0.6202,0.15273 -12.3435,-1.5256 -26.0517,-3.72962 -13.7082,-2.20402 -24.9981,-3.90398 -25.0886,-3.77768 -0.091,0.12629 -1.3036,2.75627 -2.6957,5.84439 -13.8527,30.72857 -44.113,48.91414 -74.6044,44.835 z m -39.6613,-62.83838 -50,-32.88622 0,-67.26349 0,-67.2635 48.4398,-33.38326 c 26.6419,-18.36079 49.0403,-33.15282 49.7742,-32.87117 0.734,0.28165 23.805,15.03452 51.2689,32.78417 l 49.9344,32.27208 0.04,67 0.04,67 -49.1636,33.5 c -27.0399,18.425 -49.4267,33.61196 -49.7483,33.7488 -0.3216,0.13685 -23.0848,-14.54999 -50.5848,-32.63741 z m 71,-12.51619 c 41.2714,-11.40728 68.5631,-53.61566 63.5776,-98.32716 -4.2294,-37.93156 -29.5878,-68.30435 -64.5776,-77.34729 -11.0266,-2.84977 -29.8859,-2.88467 -40.5934,-0.0751 -46.4192,12.18001 -73.9894,59.59232 -63.4873,109.17883 7.059,33.3294 33.2576,60.12059 66.0671,67.56141 8.0805,1.83255 30.8953,1.25322 39.0136,-0.99067 z m -36.4284,-24.18617 c -32.7774,-8.81175 -53.2448,-44.2648 -45.441,-78.71162 7.5616,-33.37811 38.3389,-55.0149 70.1644,-49.32645 20.0332,3.5807 36.4739,16.54455 45.855,36.15773 17.5493,36.69038 -2.6923,81.95167 -41.1101,91.92418 -7.4287,1.92837 -22.214,1.90637 -29.4683,-0.0438 z m -107.9211,-2.90903 c -18.34162,-17.46945 -27.00895,-39.72985 -25.8639,-66.42659 0.6228,-14.52035 2.4019,-22.25017 7.80633,-33.91693 4.98267,-10.75635 11.27347,-19.51024 19.13067,-26.62118 l 6.2764,-5.68025 0.2629,35.14578 c 0.1446,19.33018 0.1446,50.7503 0,69.82248 l -0.2629,34.67669 -7.3495,-7 z m 237.8495,-62.08403 0,-68.58403 4.1365,3.27615 c 9.7747,7.74172 20.1473,23.66208 24.6876,37.89191 8.1308,25.4827 4.4205,54.61143 -9.7071,76.20856 -4.5031,6.88381 -16.4155,19.79144 -18.2656,19.79144 -0.4682,0 -0.8514,-30.86281 -0.8514,-68.58403 z m -62.9453,-116.96561 -54.4452,-35.30844 -2.5548,1.792 c -5.3339,3.74151 -86.8378,59.86919 -92.7058,63.84187 l -6.151,4.16438 -8.5718,-20.16387 c -4.7145,-11.09013 -8.4715,-20.25811 -8.349,-20.37328 0.1226,-0.11517 11.2479,1.54205 24.7229,3.68271 13.475,2.14065 25.0489,3.89709 25.7197,3.90319 0.6709,0.006 2.7979,-3.40454 4.7267,-7.5792 16.5587,-35.83919 53.2239,-52.98319 87.6836,-40.9993 10.458,3.63694 17.3336,8.12635 26.9385,17.58958 8.6226,8.49537 13.7821,16.02643 18.3978,26.85455 2.0211,4.74143 2.7769,5.6053 4.7201,5.39469 1.2725,-0.13791 13.022,-2.30596 26.11,-4.81788 13.088,-2.51192 24.1608,-4.42408 24.6063,-4.24924 0.6204,0.24349 -11.1474,30.29321 -15.6438,39.94727 -0.6225,1.33665 -10.5408,-4.7143 -55.2042,-33.67903 z"
       id="path3121"
       inkscape:connector-curvature="0" />
    <path
       style="fill:#000000"
       d=""
       id="path3119"
       inkscape:connector-curvature="0" />
  </g>
</svg>
