<?xml version="1.0" encoding="UTF-8" standalone="no"?>
<svg
   xmlns:dc="http://purl.org/dc/elements/1.1/"
   xmlns:cc="http://creativecommons.org/ns#"
   xmlns:rdf="http://www.w3.org/1999/02/22-rdf-syntax-ns#"
   xmlns:svg="http://www.w3.org/2000/svg"
   xmlns="http://www.w3.org/2000/svg"
   width="251.36133"
   height="285.48438"
   id="svg2"
   version="1.1">
  <defs
     id="defs4" />
  <metadata
     id="metadata7">
    <rdf:RDF>
      <cc:Work
         rdf:about="">
        <dc:format>image/svg+xml</dc:format>
        <dc:type
           rdf:resource="http://purl.org/dc/dcmitype/StillImage" />
        <dc:title></dc:title>
      </cc:Work>
    </rdf:RDF>
  </metadata>
  <g
     id="layer1"
     transform="translate(-225.65872,-265.37159)">
    <g
       id="g15">
      <g
         id="g19">
        <g
           id="g2996"
           style="fill:#000000"
           transform="translate(214.75279,-157.88327)" />
        <g
           id="text11"
           style="font-style:normal;font-variant:normal;font-weight:bold;font-stretch:normal;font-size:113.33333588px;line-height:125%;font-family:'Beleren Small Caps';-inkscape-font-specification:'Beleren Small Caps Bold';text-align:center;letter-spacing:0px;word-spacing:0px;writing-mode:lr-tb;text-anchor:middle;fill:#000000;fill-opacity:1;stroke:none;stroke-width:1px;stroke-linecap:butt;stroke-linejoin:miter;stroke-opacity:1"
           aria-label="1">
          <path
             style="font-size:113.33333588px"
             d="m 40.839844,0 v 8.5585938 c 0,7.9826602 0.199421,8.8070602 2.957031,12.2500002 8.96526,11.1933 16.648663,39.414896 20.470703,75.191406 2.71978,25.45889 3.688328,48.52368 3.673828,87.5 l -0.01367,38 21.697266,21.75 C 101.55899,255.2125 111.43984,265 111.58203,265 c 0.14218,0 0.25781,-51.67886 0.25781,-114.8418 V 35.316406 l -4.25,-1.269531 C 100.46045,31.916945 96.32335,29.331904 91.54883,24.021484 86.56847,18.482134 83.93161,12.062185 83.61133,4.703125 L 83.40625,0 H 62.123047 Z"
             transform="translate(235.65872,265.37159)"
             id="path235" />
          <path
             style="font-size:113.33333588px"
             d="m 147.27539,0 -0.20508,4.703125 c -0.32028,7.35906 -2.95714,13.779009 -7.9375,19.318359 -4.77452,5.31042 -8.91358,7.895461 -16.04297,10.025391 l -4.25,1.269531 V 150.40039 265.48438 L 140.91992,243.49219 163,221.5 l -0.41406,-19 c -0.49506,-22.69768 0.7492,-73.02855 2.23828,-90.5 3.99406,-46.86236 11.9129,-79.215481 22.45508,-91.744141 2.31362,-2.74958 2.56054,-3.87548 2.56054,-11.6503902 V 0 h -21.28125 z"
             transform="translate(235.65872,265.37159)"
             id="path233" />
          <path
             style="font-size:113.33333588px"
             d="m 37.449219,29.275391 c -0.18991,-0.1899 -3.948193,2.136671 -8.351563,5.169921 -4.40337,3.03326 -12.752884,7.820765 -18.552734,10.640626 L 0,50.212891 1.4433594,54.857422 c 8.51477,27.39895 17.3964846,73.396978 17.3964846,90.091798 0,6.82732 0.0452,6.93721 5.888672,14.81836 8.32014,11.22139 16.18485,20.50443 25,29.50781 l 7.611328,7.77539 0.314453,-20.27539 C 58.356997,131.39445 53.280741,77.66569 45.675781,50 43.963201,43.76989 38.710279,30.536461 37.449219,29.275391 Z"
             transform="translate(235.65872,265.37159)"
             id="path231" />
          <path
             style="font-size:113.33333588px"
             d="m 193.23242,29.275391 c -0.18989,0.1899 -1.7166,3.371665 -3.39453,7.072265 -10.46157,23.0725 -16.94402,75.601614 -16.98242,137.621094 l -0.0156,23.46875 6.08594,-5.96875 c 7.25982,-7.121 19.06685,-20.97826 27.09961,-31.80469 5.75972,-7.76283 5.81445,-7.90162 5.81445,-14.69922 0,-17.27641 8.45551,-61.037288 17.41016,-90.107418 l 1.43164,-4.644531 -10.54492,-5.126953 c -5.79985,-2.819861 -14.14936,-7.607365 -18.55274,-10.640626 -4.40337,-3.03325 -8.16165,-5.359821 -8.35156,-5.169921 z"
             transform="translate(235.65872,265.37159)"
             id="path229" />
          <path
             style="font-size:113.33333588px"
             d="m 463.9595,470.39307 c -3.46788,3.17274 -7.82184,6.19858 -13.06055,9.07618 -5.23872,2.84071 -9.75673,4.72222 -13.55664,5.64453 v 1.16211 h 11.67579 l 0.2207,0.33203 v 58.82422 l -11.89649,4.3164 v 1.10743 h 39.67774 v -1.10743 c -4.02127,-0.88542 -7.00956,-2.65625 -8.96485,-5.3125 -1.9553,-2.65625 -2.93359,-6.4924 -2.93359,-11.50976 v -62.53321 z"
             id="path12" />
        </g>
      </g>
    </g>
  </g>
</svg>
