<?xml version="1.0" encoding="UTF-8" standalone="no"?>
<svg
   xmlns:dc="http://purl.org/dc/elements/1.1/"
   xmlns:cc="http://creativecommons.org/ns#"
   xmlns:rdf="http://www.w3.org/1999/02/22-rdf-syntax-ns#"
   xmlns:svg="http://www.w3.org/2000/svg"
   xmlns="http://www.w3.org/2000/svg"
   version="1.1"
   id="svg2"
   height="285.48297"
   width="250.6804">
  <defs
     id="defs4" />
  <metadata
     id="metadata7">
    <rdf:RDF>
      <cc:Work
         rdf:about="">
        <dc:format>image/svg+xml</dc:format>
        <dc:type
           rdf:resource="http://purl.org/dc/dcmitype/StillImage" />
        <dc:title></dc:title>
      </cc:Work>
    </rdf:RDF>
  </metadata>
  <g
     transform="translate(-225.65872,-264.24666)"
     id="layer1">
    <g
       id="g96">
      <g
         id="g2996"
         style="fill:#000000"
         transform="translate(214.75279,-157.88327)" />
      <g
         id="text11"
         style="font-style:normal;font-variant:normal;font-weight:bold;font-stretch:normal;font-size:113.33333588px;line-height:125%;font-family:'Beleren Small Caps';-inkscape-font-specification:'Beleren Small Caps Bold';text-align:center;letter-spacing:0px;word-spacing:0px;writing-mode:lr-tb;text-anchor:middle;fill:#000000;fill-opacity:1;stroke:none;stroke-width:1px;stroke-linecap:butt;stroke-linejoin:miter;stroke-opacity:1"
         aria-label="2">
        <path
           style="font-size:113.33333588px"
           d="m 424.32089,549.53565 q 17.3763,-20.64127 26.45183,-35.63802 9.13085,-14.99674 9.13085,-25.67708 0,-6.14258 -2.93294,-9.29688 -2.8776,-3.15429 -7.36002,-3.15429 -5.20183,0 -7.91342,3.70768 -2.65625,3.70768 -2.65625,9.07552 0,3.20964 0.94076,5.75521 l -0.33203,0.38737 -12.61719,-15.88216 q 4.37175,-4.15039 10.34831,-6.69597 6.0319,-2.60091 12.89388,-2.60091 5.14648,0 9.79492,1.32813 4.64844,1.32812 8.30078,3.81836 3.65235,2.43489 5.81055,6.41927 2.1582,3.92903 2.1582,8.85416 0,4.64844 -1.60482,8.85417 -1.54947,4.15039 -5.0358,8.63281 -3.48633,4.42709 -7.08334,8.24545 -3.597,3.81836 -9.73958,10.29297 -6.08724,6.41927 -10.84635,12.11914 h 27.89062 l 0.33203,-0.11068 5.64453,-12.3405 h 0.44271 v 24.34896 h -51.79687 z"
           id="path30" />
        <path
           style="font-size:113.33333588px"
           d="m 325.28371,508.62159 -21.69815,-21.75 0.0141,-38 c 0.0145,-38.97632 -0.95392,-62.04111 -3.6737,-87.5 -3.82204,-35.77651 -11.5052,-63.99806 -20.47046,-75.19136 -2.75761,-3.44294 -2.95659,-4.26734 -2.95659,-12.25 v -8.55864 h 21.28253 21.2825 l 0.20471,4.70349 c 0.32028,7.35906 2.95782,13.77719 7.93818,19.31654 4.77452,5.31042 8.91269,7.89691 16.04208,10.02684 l 4.25,1.2697 v 114.84172 c 0,63.16294 -0.11634,114.84171 -0.25852,114.84171 -0.14219,0 -10.0227,-9.7875 -21.95669,-21.75 z"
           id="path28" />
        <path
           style="font-size:113.33333588px"
           d="M 354.49892,415.77135 V 300.68816 l 4.25,-1.2697 c 7.12939,-2.12993 11.26756,-4.71642 16.04208,-10.02684 4.98036,-5.53935 7.6179,-11.95748 7.93818,-19.31654 l 0.20471,-4.70349 h 21.28251 21.28252 v 8.60564 c 0,7.77491 -0.24721,8.89944 -2.56083,11.64902 -10.54218,12.52866 -18.46104,44.88298 -22.4551,91.74534 -1.48908,17.47145 -2.73457,67.80232 -2.23951,90.5 l 0.41441,19 -22.07948,21.99148 -22.07949,21.99147 z"
           id="path26" />
        <path
           style="font-size:113.33333588px"
           d="m 285.38654,454.64651 c -8.81515,-9.00338 -16.6797,-18.28589 -24.99984,-29.50728 -5.84352,-7.88115 -5.88778,-7.99253 -5.88778,-14.81985 0,-16.69482 -8.88239,-62.69228 -17.39716,-90.09123 l -1.44304,-4.64343 10.54517,-5.12701 c 5.79985,-2.81986 14.14794,-7.60877 18.55131,-10.64203 4.40337,-3.03325 8.16151,-5.35964 8.35142,-5.16974 1.26106,1.26107 6.51453,14.49554 8.22711,20.72565 7.60496,27.66569 12.68183,81.39398 11.97913,126.77492 l -0.31394,20.27493 z"
           id="path24" />
        <path
           style="font-size:113.33333588px"
           d="m 408.51344,439.34029 c 0.0384,-62.01948 6.52016,-114.5482 16.98173,-137.6207 1.67793,-3.7006 3.20616,-6.88375 3.39606,-7.07365 0.1899,-0.1899 3.94804,2.13649 8.35141,5.16974 4.40338,3.03326 12.75146,7.82217 18.55131,10.64203 l 10.54517,5.12701 -1.43035,4.64343 c -8.95465,29.07013 -17.40985,72.83165 -17.40985,90.10806 0,6.7976 -0.0547,6.93596 -5.81442,14.69879 -8.03276,10.82643 -19.84071,24.68429 -27.10053,31.80529 l -6.08505,5.96869 0.0145,-23.46869 z"
           id="path194" />
      </g>
    </g>
  </g>
</svg>
