<?xml version="1.0" encoding="UTF-8" standalone="no"?>
<!-- Created with Inkscape (http://www.inkscape.org/) -->

<svg
   xmlns:dc="http://purl.org/dc/elements/1.1/"
   xmlns:cc="http://creativecommons.org/ns#"
   xmlns:rdf="http://www.w3.org/1999/02/22-rdf-syntax-ns#"
   xmlns:svg="http://www.w3.org/2000/svg"
   xmlns="http://www.w3.org/2000/svg"
   xmlns:sodipodi="http://sodipodi.sourceforge.net/DTD/sodipodi-0.dtd"
   xmlns:inkscape="http://www.inkscape.org/namespaces/inkscape"
   width="330"
   height="250"
   id="svg3001"
   version="1.1"
   inkscape:version="0.48.4 r9939"
   sodipodi:docname="icon.svg">
  <defs
     id="defs3003" />
  <sodipodi:namedview
     id="base"
     pagecolor="#ffffff"
     bordercolor="#666666"
     borderopacity="1.0"
     inkscape:pageopacity="0.0"
     inkscape:pageshadow="2"
     inkscape:zoom="0.49497475"
     inkscape:cx="105.27638"
     inkscape:cy="104.34063"
     inkscape:document-units="px"
     inkscape:current-layer="layer1"
     showgrid="true"
     showguides="false"
     inkscape:window-width="1307"
     inkscape:window-height="744"
     inkscape:window-x="59"
     inkscape:window-y="24"
     inkscape:window-maximized="1"
     fit-margin-top="0"
     fit-margin-left="0"
     fit-margin-right="0"
     fit-margin-bottom="0">
    <inkscape:grid
       type="xygrid"
       id="grid3106"
       empspacing="5"
       visible="true"
       enabled="true"
       snapvisiblegridlinesonly="true"
       originx="-210px"
       originy="-480px" />
  </sodipodi:namedview>
  <metadata
     id="metadata3006">
    <rdf:RDF>
      <cc:Work
         rdf:about="">
        <dc:format>image/svg+xml</dc:format>
        <dc:type
           rdf:resource="http://purl.org/dc/dcmitype/StillImage" />
        <dc:title />
      </cc:Work>
    </rdf:RDF>
  </metadata>
  <g
     inkscape:label="Layer 1"
     inkscape:groupmode="layer"
     id="layer1"
     transform="translate(-210,-322.36218)">
    <g
       style="font-size:40px;font-style:normal;font-variant:normal;font-weight:normal;font-stretch:normal;text-align:center;line-height:125%;letter-spacing:0px;word-spacing:0px;writing-mode:lr-tb;text-anchor:middle;fill:#000000;fill-opacity:1;stroke:none;font-family:Lobster;-inkscape-font-specification:Lobster"
       id="text3108">
      <path
         d="m 237.5248,464.69818 -0.864,0 c -4.27202,5e-5 -7.60802,1.08005 -10.008,3.24 -2.35201,2.11204 -3.52801,5.88004 -3.528,11.304 -1e-5,1.77603 0.16799,3.02403 0.504,3.744 0.33599,0.67203 0.50399,1.05603 0.504,1.152 -2.59201,3e-5 -4.53601,-0.52797 -5.832,-1.584 -1.24801,-1.10397 -1.872,-2.90396 -1.872,-5.4 0,-3.40796 0.83999,-6.50396 2.52,-9.288 1.67999,-2.83195 4.34399,-5.11195 7.992,-6.84 3.69598,-1.72794 8.37598,-2.59194 14.04,-2.592 3.16797,6e-5 6.57596,0.28806 10.224,0.864 3.07196,0.52806 5.80795,0.79205 8.208,0.792 3.07195,5e-5 5.85595,-0.50394 8.352,-1.512 -0.0961,3.12005 -0.88806,5.42405 -2.376,6.912 -1.48805,1.48805 -3.69605,2.23205 -6.624,2.232 -1.53605,5e-5 -3.07204,-0.11995 -4.608,-0.36 -1.53604,-0.23995 -3.72004,-0.64795 -6.552,-1.224 l -9.936,46.224 -10.368,0 10.224,-47.664"
         style="font-size:72px"
         id="path3209"
         inkscape:connector-curvature="0" />
      <path
         d="m 261.10255,512.65018 c -3.55201,0 -6.36001,-0.912 -8.424,-2.736 -2.064,-1.82399 -3.096,-4.70399 -3.096,-8.64 0,-3.26398 0.672,-6.88798 2.016,-10.872 1.34399,-3.98397 3.50399,-7.41597 6.48,-10.296 2.97599,-2.92796 6.71998,-4.39196 11.232,-4.392 6.14397,4e-5 9.21597,3.84004 9.216,11.52 l 0,0.072 c 0.14397,0.048 0.40797,0.072 0.792,0.072 1.58397,3e-5 3.40796,-0.40797 5.472,-1.224 2.06396,-0.86397 3.93596,-1.89597 5.616,-3.096 l 0.648,1.944 c -1.39204,1.48803 -3.21604,2.76003 -5.472,3.816 -2.20804,1.00803 -4.63203,1.72802 -7.272,2.16 -0.38403,4.36802 -1.36803,8.18402 -2.952,11.448 -1.58403,3.26401 -3.62403,5.78401 -6.12,7.56 -2.49602,1.776 -5.20802,2.664 -8.136,2.664 m 2.88,-6.48 c 1.15198,10e-6 2.30398,-0.64799 3.456,-1.944 1.15198,-1.34399 2.15998,-3.14399 3.024,-5.4 0.86397,-2.30398 1.48797,-4.84798 1.872,-7.632 -1.29602,-0.28798 -1.94402,-1.29597 -1.944,-3.024 -2e-5,-1.96797 0.74398,-3.26397 2.232,-3.888 -0.096,-1.58397 -0.33603,-2.66397 -0.72,-3.24 -0.38403,-0.62397 -1.05602,-0.93597 -2.016,-0.936 -1.58402,3e-5 -3.12002,1.15203 -4.608,3.456 -1.48802,2.30403 -2.68802,5.06403 -3.6,8.28 -0.91201,3.21602 -1.36801,6.04802 -1.368,8.496 -10e-6,2.30401 0.26399,3.86401 0.792,4.68 0.52798,0.76801 1.48798,1.15201 2.88,1.152"
         style="font-size:72px"
         id="path3211"
         inkscape:connector-curvature="0" />
      <path
         d="m 287.70317,473.69818 10.368,0 -1.152,5.4 c 2.39998,-2.06396 5.20798,-3.09596 8.424,-3.096 2.68797,4e-5 4.82397,0.88804 6.408,2.664 1.58397,1.77603 2.37597,4.68003 2.376,8.712 -3e-5,3.79202 -0.55203,7.63202 -1.656,11.52 -1.10403,3.84001 -2.97603,7.12801 -5.616,9.864 -2.64002,2.688 -6.12002,4.032 -10.44,4.032 -3.07201,0 -5.11201,-0.864 -6.12,-2.592 l -3.744,17.568 -10.872,2.592 12.024,-56.664 m 6.48,32.832 c 2.30399,1e-5 4.19998,-1.07999 5.688,-3.24 1.53598,-2.15999 2.63998,-4.72798 3.312,-7.704 0.71998,-3.02398 1.07998,-5.83197 1.08,-8.424 -2e-5,-3.98397 -1.20002,-5.97597 -3.6,-5.976 -0.86402,3e-5 -1.75202,0.31203 -2.664,0.936 -0.86401,0.62403 -1.63201,1.48803 -2.304,2.592 l -4.248,20.16 c 0.38399,1.10401 1.29599,1.65601 2.736,1.656"
         style="font-size:72px"
         id="path3213"
         inkscape:connector-curvature="0" />
      <path
         d="m 321.45317,473.69818 10.368,0 -1.152,5.4 c 2.39998,-2.06396 5.20798,-3.09596 8.424,-3.096 2.68797,4e-5 4.82397,0.88804 6.408,2.664 1.58397,1.77603 2.37597,4.68003 2.376,8.712 -3e-5,3.79202 -0.55203,7.63202 -1.656,11.52 -1.10403,3.84001 -2.97603,7.12801 -5.616,9.864 -2.64002,2.688 -6.12002,4.032 -10.44,4.032 -3.07201,0 -5.11201,-0.864 -6.12,-2.592 l -3.744,17.568 -10.872,2.592 12.024,-56.664 m 6.48,32.832 c 2.30399,1e-5 4.19998,-1.07999 5.688,-3.24 1.53598,-2.15999 2.63998,-4.72798 3.312,-7.704 0.71998,-3.02398 1.07998,-5.83197 1.08,-8.424 -2e-5,-3.98397 -1.20002,-5.97597 -3.6,-5.976 -0.86402,3e-5 -1.75202,0.31203 -2.664,0.936 -0.86401,0.62403 -1.63201,1.48803 -2.304,2.592 l -4.248,20.16 c 0.38399,1.10401 1.29599,1.65601 2.736,1.656"
         style="font-size:72px"
         id="path3215"
         inkscape:connector-curvature="0" />
      <path
         d="m 356.85917,512.79418 c -2.304,0 -4.176,-0.72 -5.616,-2.16 -1.392,-1.43999 -2.088,-3.59999 -2.088,-6.48 0,-1.19999 0.192,-2.75999 0.576,-4.68 l 7.704,-36.072 10.656,-1.44 -8.28,38.88 c -0.19201,0.72001 -0.28801,1.48801 -0.288,2.304 -10e-6,0.96001 0.21599,1.65601 0.648,2.088 0.47999,0.38401 1.24799,0.57601 2.304,0.576 1.39199,10e-6 2.68799,-0.57599 3.888,-1.728 1.19998,-1.19999 2.06398,-2.73599 2.592,-4.608 l 3.024,0 c -1.77602,5.18401 -4.05602,8.71201 -6.84,10.584 -2.78401,1.824 -5.54401,2.736 -8.28,2.736"
         style="font-size:72px"
         id="path3217"
         inkscape:connector-curvature="0" />
      <path
         d="m 379.2928,512.79418 c -3.55201,0 -6.31201,-0.912 -8.28,-2.736 -1.968,-1.87199 -2.952,-4.77599 -2.952,-8.712 0,-3.31198 0.648,-6.95998 1.944,-10.944 1.29599,-3.98397 3.40799,-7.41597 6.336,-10.296 2.92799,-2.92796 6.64798,-4.39196 11.16,-4.392 5.27997,4e-5 7.91997,2.30404 7.92,6.912 -3e-5,2.68803 -0.76803,5.16003 -2.304,7.416 -1.53603,2.25602 -3.57602,4.08002 -6.12,5.472 -2.54402,1.34402 -5.25602,2.11202 -8.136,2.304 -0.096,1.44002 -0.14401,2.40001 -0.144,2.88 -10e-6,2.35201 0.40799,3.96001 1.224,4.824 0.81598,0.81601 2.13598,1.22401 3.96,1.224 2.59198,1e-5 4.79998,-0.59999 6.624,-1.8 1.87197,-1.19999 3.91197,-3.02399 6.12,-5.472 l 2.448,0 c -5.32803,8.88001 -11.92802,13.32 -19.8,13.32 m 0.144,-18.432 c 1.77598,-0.096 3.45598,-0.71998 5.04,-1.872 1.63198,-1.15198 2.92798,-2.61597 3.888,-4.392 1.00798,-1.77597 1.51197,-3.64797 1.512,-5.616 -3e-5,-1.96797 -0.60002,-2.95196 -1.8,-2.952 -1.72802,4e-5 -3.43202,1.51203 -5.112,4.536 -1.63202,3.02403 -2.80802,6.45602 -3.528,10.296"
         style="font-size:72px"
         id="path3219"
         inkscape:connector-curvature="0" />
      <path
         d="m 409.44392,530.36218 c -2.30401,-2e-5 -4.22401,-0.60001 -5.76,-1.8 -1.536,-1.20001 -2.304,-2.92801 -2.304,-5.184 0,-2.73601 1.10399,-4.944 3.312,-6.624 2.20799,-1.632 5.01599,-3 8.424,-4.104 l 0.864,-3.816 c -2.44801,2.64 -5.32801,3.96 -8.64,3.96 -2.73601,0 -5.016,-0.936 -6.84,-2.808 -1.824,-1.87199 -2.736,-4.79999 -2.736,-8.784 0,-3.55198 0.696,-7.27198 2.088,-11.16 1.44,-3.93597 3.552,-7.24797 6.336,-9.936 2.83199,-2.73596 6.19199,-4.10396 10.08,-4.104 1.96798,4e-5 3.43198,0.33604 4.392,1.008 0.95998,0.67204 1.43998,1.56004 1.44,2.664 l 0,0.432 0.792,-3.744 10.368,0 -7.128,33.408 c 2.30397,-0.76799 4.15197,-1.91999 5.544,-3.456 1.39197,-1.53599 2.56797,-3.81599 3.528,-6.84 l 3.024,0 c -1.29604,4.27201 -3.04804,7.41601 -5.256,9.432 -2.20803,1.968 -4.70403,3.312 -7.488,4.032 l -1.08,5.184 c -0.96002,4.65599 -2.61602,7.84799 -4.968,9.576 -2.35202,1.77599 -5.01602,2.66398 -7.992,2.664 m 0.576,-24.552 c 1.10399,10e-6 2.23199,-0.50399 3.384,-1.512 1.15198,-1.00799 1.94398,-2.37599 2.376,-4.104 l 3.672,-17.064 c -2e-5,-0.57597 -0.24002,-1.15197 -0.72,-1.728 -0.48002,-0.62397 -1.22402,-0.93597 -2.232,-0.936 -1.92002,3e-5 -3.64802,1.12803 -5.184,3.384 -1.53601,2.20803 -2.73601,4.89603 -3.6,8.064 -0.86401,3.12002 -1.29601,5.88002 -1.296,8.28 -10e-6,2.40001 0.33599,3.93601 1.008,4.608 0.71999,0.67201 1.58399,1.00801 2.592,1.008 m -2.232,18.936 c 0.81599,-10e-6 1.60799,-0.55201 2.376,-1.656 0.76799,-1.10401 1.36799,-2.68801 1.8,-4.752 l 0.432,-2.088 c -4.70401,1.728 -7.05601,3.76799 -7.056,6.12 -1e-5,0.62399 0.21599,1.17599 0.648,1.656 0.43199,0.47999 1.03199,0.71999 1.8,0.72"
         style="font-size:72px"
         id="path3221"
         inkscape:connector-curvature="0" />
      <path
         d="m 443.55842,512.79418 c -3.55201,0 -6.312,-0.912 -8.28,-2.736 -1.968,-1.87199 -2.952,-4.77599 -2.952,-8.712 0,-3.31198 0.648,-6.95998 1.944,-10.944 1.296,-3.98397 3.408,-7.41597 6.336,-10.296 2.92799,-2.92796 6.64799,-4.39196 11.16,-4.392 5.27998,4e-5 7.91997,2.30404 7.92,6.912 -3e-5,2.68803 -0.76803,5.16003 -2.304,7.416 -1.53602,2.25602 -3.57602,4.08002 -6.12,5.472 -2.54401,1.34402 -5.25601,2.11202 -8.136,2.304 -0.096,1.44002 -0.14401,2.40001 -0.144,2.88 -10e-6,2.35201 0.40799,3.96001 1.224,4.824 0.81599,0.81601 2.13599,1.22401 3.96,1.224 2.59198,1e-5 4.79998,-0.59999 6.624,-1.8 1.87198,-1.19999 3.91198,-3.02399 6.12,-5.472 l 2.448,0 c -5.32802,8.88001 -11.92802,13.32 -19.8,13.32 m 0.144,-18.432 c 1.77599,-0.096 3.45599,-0.71998 5.04,-1.872 1.63198,-1.15198 2.92798,-2.61597 3.888,-4.392 1.00798,-1.77597 1.51198,-3.64797 1.512,-5.616 -2e-5,-1.96797 -0.60002,-2.95196 -1.8,-2.952 -1.72802,4e-5 -3.43201,1.51203 -5.112,4.536 -1.63201,3.02403 -2.80801,6.45602 -3.528,10.296"
         style="font-size:72px"
         id="path3223"
         inkscape:connector-curvature="0" />
      <path
         d="m 472.98955,472.47418 c -1.58401,4e-5 -2.92801,-0.55196 -4.032,-1.656 -1.10401,-1.10395 -1.65601,-2.44795 -1.656,-4.032 -1e-5,-1.58395 0.55199,-2.92795 1.656,-4.032 1.10399,-1.15195 2.44799,-1.72795 4.032,-1.728 1.58398,5e-5 2.92798,0.57605 4.032,1.728 1.15198,1.10405 1.72798,2.44805 1.728,4.032 -2e-5,1.58405 -0.57602,2.92805 -1.728,4.032 -1.10402,1.10404 -2.44802,1.65604 -4.032,1.656 m -4.896,40.32 c -2.30401,0 -4.17601,-0.72 -5.616,-2.16 -1.392,-1.43999 -2.088,-3.59999 -2.088,-6.48 0,-1.19999 0.192,-2.75999 0.576,-4.68 l 4.896,-23.112 10.368,0 -5.184,24.48 c -0.19201,0.72001 -0.28801,1.48801 -0.288,2.304 -10e-6,0.96001 0.21599,1.65601 0.648,2.088 0.47998,0.38401 1.24798,0.57601 2.304,0.576 1.39198,10e-6 2.68798,-0.57599 3.888,-1.728 1.19998,-1.19999 2.06398,-2.73599 2.592,-4.608 l 3.024,0 c -1.77602,5.18401 -4.05602,8.71201 -6.84,10.584 -2.78402,1.824 -5.54401,2.736 -8.28,2.736"
         style="font-size:72px"
         id="path3225"
         inkscape:connector-curvature="0" />
      <path
         d="m 488.43917,512.79418 c -2.30401,0 -4.248,-0.432 -5.832,-1.296 -1.584,-0.912 -2.76,-2.06399 -3.528,-3.456 -0.768,-1.43999 -1.152,-2.92799 -1.152,-4.464 0,-1.58399 0.384,-2.95199 1.152,-4.104 0.72,-1.19998 1.608,-2.06398 2.664,-2.592 1.872,-3.35998 3.504,-6.74398 4.896,-10.152 1.39199,-3.45597 2.71199,-7.17596 3.96,-11.16 l 10.656,-1.44 c 0.23998,6.14403 0.64798,12.79203 1.224,19.944 0.23998,2.88002 0.35998,4.96802 0.36,6.264 -2e-5,1.10401 -0.096,2.01601 -0.288,2.736 2.25598,-1.29599 3.98397,-2.49599 5.184,-3.6 l 3.024,0 c -3.07203,3.55201 -6.74402,6.55201 -11.016,9 -1.39202,1.48801 -3.12002,2.592 -5.184,3.312 -2.01601,0.672 -4.05601,1.008 -6.12,1.008 m -2.304,-5.688 c 1.77599,1e-5 3.26399,-0.52799 4.464,-1.584 1.19999,-1.05599 1.79999,-2.75999 1.8,-5.112 -1e-5,-1.43998 -0.14401,-3.45598 -0.432,-6.048 -0.48001,-5.47197 -0.79201,-9.14397 -0.936,-11.016 -1.15201,3.79203 -3.09601,8.32802 -5.832,13.608 1.10399,0.57602 1.65599,1.41602 1.656,2.52 -10e-6,0.91201 -0.31201,1.72801 -0.936,2.448 -0.576,0.72001 -1.32,1.08001 -2.232,1.08 -1.008,10e-6 -1.656,-0.31199 -1.944,-0.936 0,1.72801 0.336,3.00001 1.008,3.816 0.72,0.81601 1.848,1.22401 3.384,1.224"
         style="font-size:72px"
         id="path3227"
         inkscape:connector-curvature="0" />
      <path
         d="m 514.56167,512.79418 c -2.448,0 -4.272,-0.744 -5.472,-2.232 -1.152,-1.48799 -1.728,-3.45599 -1.728,-5.904 0,-1.24799 0.144,-2.51999 0.432,-3.816 l 4.608,-21.6 -2.376,0 0.576,-2.88 2.376,0 2.16,-9.936 10.656,-1.44 c -0.43202,1.82405 -0.67202,2.90405 -0.72,3.24 -0.33602,1.34405 -0.91202,4.05604 -1.728,8.136 l 4.32,0 -0.576,2.88 -4.32,0 -4.608,21.6 c -0.24001,1.05601 -0.36001,1.89601 -0.36,2.52 -10e-6,1.72801 0.83999,2.59201 2.52,2.592 0.86399,10e-6 1.48799,-0.072 1.872,-0.216 -0.96001,2.78401 -2.08801,4.656 -3.384,5.616 -1.29601,0.96 -2.71201,1.44 -4.248,1.44"
         style="font-size:72px"
         id="path3229"
         inkscape:connector-curvature="0" />
    </g>
    <g
       id="g3141"
       transform="matrix(0.03923838,0,0,0.03923838,243.18733,337.74006)"
       style="fill:#000000">
      <path
         style="fill:#000000"
         d="m 2666.8928,2834.2561 c -2.3047,-3.7289 17.9799,-39.9257 45.077,-80.4372 57.5177,-85.9923 111.6183,-187.3318 144.5067,-270.6856 26.8806,-68.127 66.4576,-202.0288 73.3677,-248.2264 l 4.7232,-31.5774 -46.6273,30.1631 c -220.5167,142.6515 -545.7688,232.4959 -939.9259,259.6356 -130.3942,8.9784 -187.1397,7.143 -187.1397,-6.0528 0,-5.0762 46.3888,-42.438 103.0861,-83.0263 118.019,-84.4869 175.8646,-130.3738 277.7596,-220.3373 107.8005,-95.1774 293.1875,-289.4258 284.507,-298.1063 -1.6525,-1.6526 -32.362,2.6004 -68.2433,9.451 -35.8812,6.8506 -98.4763,16.0423 -139.1002,20.4259 -96.1519,10.3756 -305.3031,4.8924 -389.063,-10.1998 -103.514,-18.6515 -109.6819,-29.776 -34.4731,-62.1752 153.8067,-66.2584 300.4708,-155.4277 402.1863,-244.5224 58.5633,-51.2968 131.3261,-126.756 131.3261,-136.1926 0,-3.0454 -15.5129,-9.1253 -34.4731,-13.511 -136.4345,-31.5584 -318.1983,-108.4207 -434.3895,-183.6899 -76.8002,-49.7516 -81.6026,-62.8289 -25.252,-68.7631 343.3982,-36.1624 614.4149,-196.91356 1042.8818,-618.57593 54.4364,-53.57193 206.301,-207.62469 337.4768,-342.33955 247.0771,-253.743115 311.9469,-311.189993 423.4229,-374.97167 496.2594,-283.93795 1038.8138,-17.93306 1166.8643,572.09316 19.3654,89.23117 24.0852,290.58715 9.2014,392.54566 -45.347,310.64043 -233.892,749.43413 -487.5613,1134.68293 -193.4723,293.8275 -449.5462,588.1496 -716.8102,823.8762 -38.7642,34.19 -63.7548,41.1524 -58.3539,16.2574 1.7628,-8.1258 13.6335,-54.6645 26.3792,-103.4193 32.8846,-125.7906 44.1759,-200.6293 44.1759,-292.8005 l 0,-80.3645 -90.2867,90.2774 c -95.3846,95.3746 -165.6423,148.7164 -280.7096,213.1231 -120.098,67.2225 -294.5267,136.142 -484.8645,191.5776 -84.5586,24.6276 -93.3853,26.0327 -99.6687,15.8657 z M 4332.8876,1487.2573 c 69.7063,-58.3994 127.9858,-107.1701 129.5101,-108.3795 2.8252,-2.2416 -23.8044,-267.3166 -31.4173,-312.7324 l -4.1856,-24.97 -86.1947,72.5758 c -81.2036,68.3733 -101.6882,80.7438 -110.39,66.6639 -2.0096,-3.2515 -8.2767,-51.2677 -13.9271,-106.7025 -5.6504,-55.4349 -12.31,-106.0385 -14.7992,-112.45253 -3.7775,-9.73357 -19.3875,0.85256 -94.4044,64.02143 -87.4525,73.6406 -105.5761,84.5346 -112.1469,67.4114 -1.7459,-4.5496 -8.3798,-59.9528 -14.7421,-123.11825 -6.3623,-63.16543 -13.4809,-117.01972 -15.8192,-119.67625 -2.3383,-2.65653 -43.3256,27.52714 -91.0829,67.07495 -54.966,45.51724 -90.4235,70.52659 -96.6194,68.149 -5.3834,-2.06576 -9.7879,-5.62897 -9.7879,-7.91824 0,-13.4061 -28.1297,-260.77323 -29.8709,-262.67943 -6.474,-7.08714 -265.6121,215.25185 -265.6175,227.89816 -0.01,17.84552 33.8021,319.24666 36.0681,321.53416 1.1537,1.1647 40.9446,-30.5998 88.4243,-70.5878 47.4796,-39.9879 89.0217,-72.7054 92.3156,-72.7054 12.557,0 18.3118,26.4672 29.2682,134.6093 6.2202,61.395 13.3112,118.5068 15.7579,126.9152 4.1707,14.3333 10.1031,10.5405 94.9991,-60.7383 49.8028,-41.8145 94.7307,-76.0263 99.8398,-76.0263 12.0914,0 13.9298,9.0073 28.5502,139.8809 6.7792,60.6829 13.8613,111.868 15.738,113.7447 1.8767,1.8768 42.2592,-29.3051 89.7389,-69.2931 47.4797,-39.9879 90.2869,-72.7053 95.1273,-72.7053 12.9338,0 14.487,7.3051 27.0035,127.0097 6.2901,60.1575 13.7966,109.3773 16.6811,109.3773 2.8844,0 62.2768,-47.7813 131.983,-106.1806 z m 215.3838,-669.15925 c 53.1379,-24.02559 91.7595,-71.81628 101.9543,-126.15884 l 4.5561,-24.286 -23.4959,9.81721 c -31.7796,13.27839 -53.9339,12.35162 -86.9637,-3.63786 -61.8168,-29.92496 -77.3661,-108.91972 -32.0425,-162.78378 l 16.1933,-19.24466 -14.7245,-3.94635 c -67.2412,-18.02136 -156.2664,24.16577 -189.8304,89.95662 -19.5603,38.34151 -23.4848,101.35441 -8.7201,140.01524 35.3558,92.5777 145.3886,139.91393 233.0734,100.26842 z M 4105.0458,589.66414 c 40.1557,-18.30516 69.2467,-46.19705 86.2361,-82.68155 18.7571,-40.28054 19.8462,-52.69723 4.0506,-46.17827 -51.7704,21.36611 -96.0376,13.34228 -129.2584,-23.42923 -41.9466,-46.42983 -37.8458,-105.36505 10.1926,-146.48412 l 26.7379,-22.88666 -25.2446,-7.00983 c -34.2906,-9.52161 -52.9114,-8.88397 -93.6227,3.20599 -70.0364,20.79862 -120.1671,88.31148 -120.7189,162.57693 -0.7466,100.47045 72.9755,175.33698 172.3288,175.00407 27.3906,-0.0919 52.5809,-4.49648 69.2986,-12.11733 z"
         id="path3155"
         inkscape:connector-curvature="0" />
      <path
         style="fill:#000000"
         d="m 2670.3079,2829.0592 c 0,-2.9758 10.5287,-19.9661 23.397,-37.7562 75.4684,-104.3329 152.8809,-256.5878 195.6197,-384.7448 25.7431,-77.1936 54.7744,-200.07 48.7038,-206.1407 -2.2309,-2.2308 -21.5209,7.804 -42.8667,22.2996 -172.2136,116.948 -451.0916,208.2747 -753.4415,246.7362 -189.0061,24.0433 -370.9962,31.3906 -370.9962,14.9781 0,-4.7248 37.3145,-34.6962 82.9212,-66.6031 99.2067,-69.4061 191.2946,-141.8608 284.7919,-224.0742 110.7346,-97.3704 309.6059,-306.0317 300.4243,-315.2133 -1.9267,-1.9267 -34.1136,2.3157 -71.5264,9.4274 -120.7862,22.9601 -190.4145,29.4982 -310.9767,29.2007 -147.8596,-0.3644 -310.2903,-23.2255 -303.7807,-42.7545 1.3211,-3.9633 42.1413,-25.4768 90.7114,-47.8077 102.4665,-47.1106 185.1915,-94.3065 270.5853,-154.3731 69.1547,-48.644 234.265,-207.0589 224.5639,-215.4577 -3.4623,-2.9974 -37.8491,-13.2379 -76.415,-22.7565 -135.4181,-33.423 -306.2632,-108.2108 -405.4853,-177.5019 -72.3408,-50.5188 -72.613,-50.0516 36.7731,-63.104 221.4926,-26.4293 452.135,-141.2822 704.0557,-350.5985 123.3359,-102.47751 283.5813,-257.57727 556.1612,-538.30249 278.9264,-287.261361 331.0808,-336.386799 423.1893,-398.611965 336.9123,-227.605875 716.504,-203.317125 981.4004,62.796389 236.6555,237.742866 319.8229,613.411226 222.3205,1004.225026 -51.3915,205.99004 -173.443,498.87154 -308.7162,740.81214 -194.7008,348.2292 -481.4674,712.1605 -776.9779,986.0514 -99.7796,92.4797 -127.5187,114.5075 -134.9005,107.1258 -2.207,-2.207 4.9851,-37.5383 15.9825,-78.5139 37.8482,-141.0199 47.8091,-200.91 51.4339,-309.2465 3.896,-116.4403 0.5516,-123.8591 -34.386,-76.2859 -10.8344,14.7526 -51.6404,57.4945 -90.68,94.9819 -158.0939,151.8085 -382.4411,268.8428 -697.4856,363.8543 -107.4379,32.4013 -134.4004,37.8897 -134.4004,27.358 z M 4343.9552,1485.0938 c 64.8849,-54.172 119.7212,-102.561 121.8585,-107.531 4.6443,-10.8004 -28.6959,-330.2342 -35.212,-337.3682 -2.4901,-2.7261 -43.1529,27.561 -90.3618,67.3047 -47.2089,39.7437 -90.4968,72.2613 -96.1952,72.2613 -12.1708,0 -13.7325,-7.8481 -27.3369,-137.376 -5.4702,-52.08222 -11.3379,-96.08718 -13.0395,-97.7887 -3.68,-3.67996 -4.1465,-3.3175 -106.1702,82.4981 -77.2864,65.0082 -89.8649,73.1135 -96.5864,62.238 -1.7222,-2.7866 -7.82,-47.8479 -13.5506,-100.13618 -14.9692,-136.58343 -17.1391,-150.88314 -22.8968,-150.88314 -2.8421,0 -44.374,32.74899 -92.293,72.77555 -59.8363,49.98102 -89.2462,70.6549 -93.8961,66.00497 -3.7238,-3.72382 -13.0685,-65.06513 -20.766,-136.31402 -7.6974,-71.24888 -16.918,-130.51767 -20.4901,-131.70834 -5.6784,-1.89281 -217.5664,171.20737 -257.5349,210.39101 l -14.8952,14.60261 17.494,163.88754 c 9.6216,90.1381 19.6863,166.3628 22.3658,169.3882 2.6795,3.0254 43.9376,-27.4009 91.6847,-67.614 47.747,-40.2131 90.1852,-72.0051 94.307,-70.6488 7.4141,2.4394 14.2756,46.9444 30.3391,196.7835 4.5492,42.4348 10.6319,77.1541 13.517,77.1541 2.8851,0 45.5557,-33.9806 94.8236,-75.5125 49.2678,-41.5319 92.1801,-75.5125 95.3606,-75.5125 3.1805,0 7.3938,2.6066 9.3627,5.7924 3.0222,4.89 30.0267,224.0683 30.0267,243.7074 0,14.5919 16.6833,3.506 98.7877,-65.6433 47.1688,-39.7261 88.3861,-72.2293 91.5939,-72.2293 10.6923,0 13.169,11.3691 23.1183,106.1228 5.4371,51.7823 11.4921,103.8837 13.4554,115.7811 l 3.5697,21.6317 15.7937,-11.7822 c 8.6866,-6.4802 68.8814,-56.1047 133.7663,-110.2768 z m 200.174,-660.15629 c 34.4413,-12.88605 77.6899,-50.77495 95.1082,-83.32143 9.4269,-17.61418 20.6833,-68.67923 16.5969,-75.29137 -1.786,-2.88976 -11.7974,-0.83274 -22.2475,4.57127 -54.8818,28.38049 -129.9101,-10.14225 -141.6516,-72.72999 -5.3006,-28.25501 11.8683,-77.30636 31.9924,-91.40186 40.4375,-28.32356 -65.4968,-37.17639 -121.8904,-10.18631 -79.4959,38.04695 -122.5157,138.46416 -93.8041,218.95814 35.231,98.7711 137.5189,146.20924 235.8961,109.40155 z m -447.585,-226.65142 c 40.7367,-13.88038 79.4153,-48.58587 99.8502,-89.5935 15.9801,-32.0678 22.9755,-68.5309 12.0707,-62.91762 -55.3358,28.4843 -87.4635,30.18485 -119.6811,6.33491 -60.2965,-44.63618 -61.526,-115.77396 -2.8369,-164.15037 l 23.8562,-19.66431 -15.2424,-8.15753 c -21.1639,-11.32656 -96.2147,-10.06151 -125.0408,2.10767 -93.4921,39.46842 -138.2302,157.11784 -93.7154,246.44725 40.572,81.4176 133.7463,119.23506 220.7395,89.5935 z"
         id="path3153"
         inkscape:connector-curvature="0" />
      <path
         style="fill:#000000"
         d="m 2679.84,2827.3899 c -2.0503,-3.3175 16.7561,-36.6649 41.792,-74.1053 104.5173,-156.3024 171.8732,-314.28 211.5948,-496.278 7.343,-33.6447 11.8795,-62.6438 10.081,-64.4423 -1.7985,-1.7985 -29.2399,13.6335 -60.9809,34.2934 -168.2604,109.5192 -416.2375,192.6342 -694.6425,232.8249 -167.3163,24.1538 -405.4796,40.0371 -413.1932,27.5561 -2.5245,-4.0846 8.8737,-16.3606 26.5493,-28.594 188.2851,-130.3131 326.7113,-244.1255 465.3229,-382.5833 101.1957,-101.0834 185.8777,-197.2735 179.3866,-203.7646 -1.7093,-1.7093 -30.925,2.751 -64.9237,9.9118 -165.6876,34.8972 -388.4304,41.8517 -537.873,16.7934 -105.9367,-17.7631 -107.4927,-20.4713 -31.1899,-54.2837 151.3007,-67.0466 272.3661,-140.5567 380.2422,-230.8807 65.2226,-54.6104 149.7853,-142.6011 149.9143,-155.9914 0.039,-4.1519 -22.6897,-12.6129 -50.5105,-18.8025 -67.5974,-15.039 -172.8428,-50.2832 -245.0786,-82.0712 -101.2191,-44.5422 -235.964,-125.6959 -236.1312,-142.2162 -0.047,-4.6879 17.2084,-9.406 44.2448,-12.0974 258.8274,-25.7656 498.9313,-146.694 796.1646,-400.9885 76.8126,-65.71612 369.4136,-355.09966 653.7233,-646.53466 175.4025,-179.798446 252.8491,-243.436339 369.5738,-303.67893 131.2743,-67.75181 241.9394,-96.58463 370.7075,-96.58463 158.942,0 302.5294,48.12445 429.8602,144.07106 133.2615,100.41560475 231.6669,242.57721 290.613,419.83497 33.6409,101.16195 45.9553,173.49914 50.443,296.31316 5.9334,162.37503 -15.0938,297.91633 -74.8666,482.59043 -191.7275,592.362 -602.0384,1204.3603 -1112.6925,1659.6338 -47.4507,42.3046 -64.6452,52.3195 -64.6452,37.6522 0,-3.6687 10.1492,-45.9272 22.5539,-93.9078 38.3228,-148.2308 54.8814,-272.2061 46.6381,-349.1814 -2.5158,-23.4923 -6.8321,-42.7134 -9.5918,-42.7134 -2.7596,0 -24.9438,23.6126 -49.2982,52.4724 -144.2179,170.8979 -365.1875,303.3109 -680.0652,407.5201 -149.6941,49.5415 -209.0914,65.7252 -213.7223,58.2322 z M 4336.508,1494.3278 c 155.0342,-130.7356 140.3419,-96.0034 119.8181,-283.2457 -18.4055,-167.9154 -19.6334,-175.7802 -27.4437,-175.7802 -3.8265,0 -41.1746,28.8096 -82.9959,64.0214 -95.0549,80.0324 -99.5273,83.2421 -106.2778,76.2725 -3.0282,-3.1266 -10.7589,-55.2239 -17.1792,-115.7718 -6.4203,-60.54798 -13.7274,-113.41068 -16.2379,-117.47279 -2.8624,-4.63155 -38.3007,21.11586 -95.0359,69.04769 -49.7593,42.0384 -94.191,76.4334 -98.7371,76.4334 -11.738,0 -13.6345,-9.796 -26.0597,-134.60926 -6.112,-61.39496 -13.5569,-114.31893 -16.5444,-117.60885 -3.1089,-3.42373 -38.5343,21.85096 -82.8421,59.1047 -103.2629,86.82305 -100.0356,84.47921 -106.847,77.59647 -4.7531,-4.80299 -32.9433,-229.8605 -32.9433,-263.00465 0,-4.88974 -3.031,-8.89045 -6.7354,-8.89045 -3.7045,0 -67.2335,50.79681 -141.1756,112.88176 -121.642,102.13587 -134.4402,114.81783 -134.4402,133.21951 0,37.77544 32.9318,321.32777 37.8955,326.29147 2.7073,2.7073 43.3044,-27.4303 90.2159,-66.9723 46.9115,-39.5421 88.9308,-71.9284 93.3764,-71.9695 10.7066,-0.099 12.3722,9.1448 26.9422,149.5221 6.8531,66.0266 14.22,121.8082 16.3708,123.959 2.1508,2.1509 44.0705,-29.7096 93.1548,-70.8011 49.0843,-41.0915 94.2597,-74.7118 100.3898,-74.7118 9.6023,0 13.0308,17.0383 24.7613,123.0543 7.4887,67.6798 15.5436,124.982 17.8998,127.3381 2.3561,2.3562 24.3,-12.4172 48.7641,-32.8299 24.464,-20.4126 64.4094,-53.6597 88.7674,-73.8822 24.3579,-20.2226 48.1559,-35.2838 52.8843,-33.4694 5.9572,2.286 12.3044,38.8007 20.6699,118.9097 7.6244,73.0128 14.7522,115.5893 19.345,115.5529 3.9997,-0.033 67.1077,-50.515 140.2399,-112.1851 z m 234.7954,-678.67931 c 49.238,-28.85537 88.5952,-91.11328 88.5952,-140.14586 0,-13.56513 -2.2576,-15.32195 -14.7742,-11.49701 -59.2513,18.10685 -61.9587,18.24271 -92.6888,4.64934 -36.9947,-16.36455 -56.6361,-45.90038 -56.6701,-85.21831 -0.026,-31.88013 7.101,-48.86165 31.489,-75.01236 9.2271,-9.89385 14.7135,-20.05173 12.1921,-22.57306 -8.6985,-8.69851 -83.5448,-10.26852 -111.8411,-2.34607 -42.5505,11.91344 -89.0934,50.3765 -110.4669,91.28997 -34.598,66.22829 -21.934,156.0698 29.5904,209.92093 56.5401,59.09334 153.6885,72.47436 224.5744,30.93243 z m -490.8295,-209.4366 c 42.1155,-10.92463 80.4038,-36.81255 103.2904,-69.83805 18.4246,-26.58671 38.3612,-83.2171 32.5861,-92.56154 -1.8905,-3.05878 -12.9332,0.22851 -24.5394,7.30521 -40.8095,24.88275 -109.901,10.03844 -130.2501,-27.98422 -29.6852,-55.46723 -15.2722,-107.08706 40.2146,-144.02739 l 16.4029,-10.92023 -24.4128,-10.42026 c -52.2409,-22.29837 -126.9384,-8.09061 -175.3565,33.35348 -110.6113,94.67917 -69.8532,276.9903 70.3627,314.73237 40.4253,10.88136 50.9836,10.92286 91.7021,0.36049 z"
         id="path3151"
         inkscape:connector-curvature="0" />
      <path
         style="fill:#000000"
         d="m 2683.4405,2820.8722 c 0,-3.8672 12.9435,-25.2898 28.7633,-47.6058 98.7925,-139.3602 182.9137,-330.8184 221.2225,-503.499 20.2094,-91.0954 19.1131,-92.581 -39.1309,-53.0282 -201.838,137.0654 -524.1994,230.8637 -903.6002,262.9227 -100.0974,8.4581 -215.4331,8.8211 -210.3906,0.6623 2.0841,-3.3722 38.4553,-30.6614 80.8248,-60.6424 128.6866,-91.0601 268.6592,-207.0033 375.1617,-310.7568 125.4187,-122.1815 224.6615,-235.4594 208.9389,-238.4872 -6.026,-1.1606 -41.3229,3.8963 -78.4375,11.2375 -121.226,23.9784 -177.1898,29.1693 -310.4342,28.7943 -101.2614,-0.2849 -149.1398,-3.4455 -209.1383,-13.8056 -42.7967,-7.3897 -79.5351,-15.159 -81.6411,-17.2649 -6.7457,-6.7457 6.9397,-14.9348 77.3744,-46.2993 88.9607,-39.6141 190.7376,-97.4679 269.0303,-152.9271 87.059,-61.6689 246.5699,-216.8214 234.905,-228.4864 -1.7068,-1.7066 -32.3162,-10.209 -68.0211,-18.8942 -90.3181,-21.9698 -189.9826,-57.7275 -275.0397,-98.6789 -79.7835,-38.4125 -196.2913,-112.0257 -190.9588,-120.6539 1.8727,-3.03 24.59,-7.4781 50.4829,-9.8846 199.1541,-18.5094 410.7191,-109.7403 627.5154,-270.5969 167.9737,-124.63164 312.4077,-261.32893 783.9002,-741.91043 231.7041,-236.170566 275.0659,-272.444581 407.1224,-340.57577 314.1271,-162.06573 642.3424,-113.54957 877.6902,129.738466 147.0849,152.047254 227.4259,335.776504 251.7556,575.731454 20.6357,203.52279 -20.3974,420.15488 -134.9465,712.44418 -147.1147,375.3853 -358.7043,725.899 -644.583,1067.7993 -137.519,164.4676 -449.0313,474.6763 -462.587,460.6511 -2.6939,-2.787 2.4032,-31.6609 11.3268,-64.1641 36.875,-134.3128 49.183,-207.3653 52.5495,-311.8996 3.9308,-122.0576 -0.3283,-134.7438 -31.9627,-95.2114 -170.4921,213.0563 -429.6065,363.1396 -828.005,479.5945 -85.9972,25.1376 -89.6873,25.7834 -89.6873,15.6967 z M 4329.6069,1503.9565 c 71.5106,-60.0491 133.8691,-112.7591 138.5742,-117.1334 7.0143,-6.5209 5.4998,-36.8199 -8.41,-168.2462 -18.6519,-176.233 -20.7368,-189.8413 -29.0858,-189.8413 -3.1398,0 -44.573,32.7726 -92.0739,72.828 -47.5009,40.0554 -90.2267,71.3462 -94.9463,69.5351 -5.3837,-2.0659 -10.1933,-21.2507 -12.908,-51.4875 -11.6664,-129.94457 -19.4977,-182.80393 -27.0833,-182.80393 -4.3535,0 -48.1666,33.98064 -97.3624,75.51253 -49.1957,41.5319 -92.1706,75.5125 -95.4996,75.5125 -6.9627,0 -9.924,-18.8136 -24.2881,-154.30818 -5.743,-54.17202 -12.6319,-100.74421 -15.3087,-103.49372 -2.6769,-2.74951 -43.8507,27.77942 -91.4972,67.84209 -47.6466,40.06261 -90.3106,71.61897 -94.8087,70.1252 -5.4913,-1.8236 -12.792,-45.34173 -22.2189,-132.44292 -7.7221,-71.34975 -16.6532,-132.33983 -19.8468,-135.53342 -5.0832,-5.08317 -253.6294,197.12346 -276.3712,224.84391 -6.6133,8.06113 -4.9366,40.495 8.6293,166.92334 19.2769,179.6528 20.3629,186.4666 29.7201,186.4666 3.7999,0 45.5158,-32.6898 92.7019,-72.644 47.1861,-39.9542 88.3007,-70.1361 91.3657,-67.071 3.0651,3.065 12.264,64.3274 20.4419,136.1385 8.996,78.9951 17.8035,131.5357 22.2987,133.022 4.0865,1.351 48.0566,-31.6538 97.7114,-73.344 49.6548,-41.6902 92.5212,-75.8004 95.2587,-75.8004 6.5738,0 10.1159,22.4739 23.2854,147.7419 6.0749,57.7834 13.2319,107.4658 15.9045,110.4051 2.6726,2.9394 45.3933,-28.8251 94.9349,-70.5878 49.5416,-41.7626 92.6078,-75.932 95.7028,-75.932 3.0949,0 7.2662,12.558 9.2694,27.9068 4.0904,31.3421 23.4277,205.8723 23.4277,211.4493 0,11.562 25.3361,-7.2127 142.4823,-105.5831 z m 209.4159,-671.06312 c 40.8704,-14.12813 66.9375,-34.57981 93.523,-73.37637 21.9816,-32.07798 38.4143,-90.05965 28.3705,-100.10347 -3.7225,-3.72244 -13.8694,-2.04435 -26.2024,4.33324 -55.3429,28.61898 -124.8294,-4.90385 -136.2399,-65.72721 -5.947,-31.70062 0.8379,-51.83725 27.3563,-81.19008 l 23.1898,-25.66828 -15.1485,-8.17564 c -24.9755,-13.47932 -89.5059,-9.90173 -128.6106,7.13015 -45.2267,19.69833 -89.8668,68.87267 -103.1611,113.63971 -12.4241,41.83643 -12.4877,65.91711 -0.2824,107.01608 30.3402,102.16654 136.6306,156.88862 237.2055,122.12187 z M 4096.5442,604.8524 c 37.0255,-12.61585 78.9371,-47.73797 100.1369,-83.91529 16.2854,-27.79091 29.3501,-83.1691 19.6211,-83.1691 -2.9328,0 -18.275,6.26544 -34.0937,13.92313 -108.8295,52.68338 -188.0175,-104.28653 -83.6696,-165.85333 12.6075,-7.43858 22.9226,-14.86093 22.9226,-16.49423 0,-9.22284 -51.2948,-21.92878 -86.7926,-21.49889 -76.9384,0.93174 -129.9217,33.64603 -162.8628,100.55872 -19.6319,39.87816 -21.0547,47.06971 -18.1786,91.88554 2.3685,36.90632 7.3128,55.77519 20.5205,78.31252 46.3559,79.10029 138.5015,114.83675 222.3962,86.25093 z"
         id="path3149"
         inkscape:connector-curvature="0" />
      <path
         style="fill:#000000"
         d="m 2687.4911,2814.1083 c 3.1893,-5.0529 25.4307,-38.7353 49.4253,-74.85 101.4712,-152.7264 169.1573,-322.283 212.8148,-533.1099 5.3067,-25.6268 -10.0656,-23.5837 -56.3863,7.4941 -194.3129,130.3698 -481.2502,219.4823 -823.854,255.8595 -123.7515,13.1398 -285.6343,20.4203 -285.6343,12.8462 0,-3.3045 34.7193,-30.1321 77.1541,-59.6167 199.3318,-138.5002 404.5199,-322.0936 545.2274,-487.8457 49.799,-58.6628 57.9753,-76.23 32.6075,-70.0591 -204.8622,49.8343 -434.3646,57.0213 -643.498,20.1514 -13.543,-2.3875 -24.6236,-7.0719 -24.6236,-10.4095 0,-3.3377 16.9903,-13.566 37.7562,-22.7294 127.6291,-56.3194 245.8347,-123.9772 337.9699,-193.4449 68.5782,-51.7063 203.6261,-186.8818 200.8641,-201.0539 -1.4546,-7.4638 -26.139,-16.6752 -86.1794,-32.1595 -153.9153,-39.6945 -325.0156,-116.9339 -424.2032,-191.4971 -20.2928,-15.2549 -21.2342,-17.3387 -9.8494,-21.801 6.9234,-2.7137 23.9432,-5.1416 37.8217,-5.3954 38.449,-0.7033 151.6069,-25.1883 217.7196,-47.1099 74.3944,-24.6677 198.285,-84.1782 277.8164,-133.4483 207.4238,-128.50006 354.3186,-263.05582 960.1227,-879.47327 165.1334,-168.026464 242.358,-231.010268 355.0015,-289.53673 129.2449,-67.15205 243.5511,-96.9965 370.5306,-96.74266 197.5487,0.39489 365.2616,72.21267 509.3796,218.125757 165.9891,168.056713 255.4494,404.209263 255.4494,674.322013 0,157.27006 -22.3634,283.64124 -82.2785,464.93959 -195.0124,590.0914 -604.954,1193.2432 -1124.4538,1654.4218 -15.4442,13.7104 -29.7481,23.2602 -31.7864,21.2218 -2.0383,-2.0383 6.8004,-44.5591 19.6417,-94.4907 32.7793,-127.4584 44.7192,-208.8882 44.9198,-306.3519 0.1845,-89.7764 -6.2903,-112.224 -24.9462,-86.4828 -146.2354,201.7738 -411.9032,364.8936 -779.737,478.7578 -114.1127,35.3241 -153.5554,43.3515 -144.7922,29.4684 z M 4336.9682,1500.8041 c 73.3854,-61.7353 135.1578,-116.7541 137.2722,-122.264 4.7673,-12.4233 -30.1552,-344.5852 -36.9698,-351.6344 -5.5897,-5.7822 -17.7788,3.0729 -105.6873,76.7794 -34.3089,28.7661 -67.569,56.648 -73.9112,61.9598 -6.3422,5.3117 -12.9075,8.2815 -14.5895,6.5994 -1.682,-1.682 -7.593,-44.2628 -13.1357,-94.624 -15.0358,-136.61795 -16.7828,-147.37933 -23.9258,-147.37933 -3.6103,0 -46.9182,33.98063 -96.2398,75.51253 -49.3216,41.5319 -92.9669,75.5125 -96.9896,75.5125 -4.6106,0 -11.4911,-39.4378 -18.6158,-106.70247 -14.2065,-134.12671 -16.8871,-149.43829 -26.1118,-149.14878 -4.1124,0.12936 -45.8256,32.63231 -92.696,72.22937 -46.8704,39.59705 -87.1218,71.99468 -89.4475,71.99468 -5.4761,0 -9.1991,-25.5449 -23.3149,-159.97038 -7.6194,-72.55972 -14.4244,-111.79661 -19.7433,-113.83762 -4.4639,-1.71302 -70.3246,49.18446 -146.3571,113.10554 -134.2046,112.827 -138.2272,116.91748 -137.7774,140.10291 0.2547,13.1355 8.3805,93.32135 18.0573,178.19085 12.3266,108.1099 20.0099,154.3082 25.6633,154.3082 4.438,0 45.2707,-31.0258 90.7393,-68.9462 45.4685,-37.9204 86.1599,-68.9462 90.4254,-68.9462 5.2074,0 12.6403,43.0691 22.6242,131.0926 8.1779,72.1008 17.6134,133.837 20.9678,137.1914 3.7542,3.7542 40.4062,-22.6611 95.3408,-68.7127 88.5098,-74.1977 108.4393,-87.1171 108.5502,-70.3682 0.033,4.7791 5.9413,61.6056 13.1326,126.2812 7.1913,64.6755 13.0751,118.6013 13.0751,119.8351 0,11.26 29.4078,-8.9081 101.7777,-69.8 83.4932,-70.251 101.7778,-81.643 101.7778,-63.4119 0,15.8022 19.833,197.2492 23.2391,212.6092 1.802,8.1258 6.9135,14.7547 11.3591,14.7309 4.4455,-0.026 68.1253,-50.5541 141.5106,-112.2894 z m 206.4861,-666.2677 c 57.9592,-19.74869 108.4987,-79.69184 119.9551,-142.27458 7.5659,-41.33011 2.317,-45.70438 -35.6131,-29.67938 -29.2073,12.33973 -35.8571,12.96333 -60.2631,5.6511 -70.6026,-21.15303 -90.3951,-101.24568 -37.974,-153.66673 10.6961,-10.69612 17.9767,-23.28019 16.1792,-27.96452 -4.292,-11.18479 -56.3755,-18.71358 -93.8883,-13.5719 -64.1413,8.79156 -129.1667,61.42714 -149.4587,120.9811 -12.3841,36.34503 -12.7642,94.3416 -0.8374,127.76259 17.3741,48.68542 65.051,96.36231 113.7364,113.73643 33.5495,11.97261 91.459,11.53247 128.1639,-0.97411 z M 4101.5302,605.29083 c 37.2103,-13.12854 75.7437,-44.65633 95.1568,-77.85669 18.1483,-31.03716 31.828,-83.73242 23.8169,-91.7443 -2.9484,-2.94873 -15.3585,0.73372 -27.5779,8.18333 -28.9841,17.67012 -72.9328,17.81557 -101.2169,0.33488 -20.6097,-12.73732 -42.4769,-52.23772 -42.4769,-76.72913 0,-25.22591 26.7565,-65.46127 53.5436,-80.51637 25.4581,-14.30824 26.4636,-15.92566 15.0769,-24.25176 -6.7102,-4.9066 -22.6787,-11.83205 -35.4857,-15.3899 -128.6067,-35.7277 -257.7031,87.14783 -230.2905,219.19336 12.9371,62.31779 62.3068,119.33486 121.6431,140.48546 29.0657,10.36058 96.144,9.46369 127.8106,-1.70888 z"
         id="path3147"
         inkscape:connector-curvature="0" />
      <path
         style="fill:#000000"
         d="m 2690.0068,2817.589 c 0,-2.0614 12.9369,-22.0066 28.7486,-44.3226 95.5639,-134.8745 171.8844,-305.6655 214.6526,-480.3522 19.5432,-79.8243 23.7368,-115.0751 13.6898,-115.0751 -3.0586,0 -30.3501,16.5923 -60.6479,36.8717 -181.1729,121.2659 -463.2692,210.295 -787.4106,248.5054 -109.9624,12.9626 -314.6269,20.9829 -305.3333,11.9653 3.6115,-3.5041 41.2524,-30.8737 83.6465,-60.8212 207.3952,-146.5055 399.7125,-320.8398 545.0773,-494.1089 20.766,-24.7521 37.7563,-48.2212 37.7563,-52.1534 0,-8.2648 -23.5015,-5.7587 -124.7598,13.3037 -102.7645,19.3459 -241.0625,29.6071 -331.5985,24.6034 -89.7456,-4.9601 -213.8764,-21.7993 -222.4342,-30.1748 -3.2256,-3.157 18.3764,-16.5511 49.2473,-30.5355 189.9056,-86.0264 323.7571,-176.2567 449.4298,-302.9643 62.112,-62.6233 78.143,-83.0417 72.4414,-92.2671 -2.0597,-3.3328 -31.1049,-12.6886 -64.5448,-20.7907 -142.1515,-34.4418 -301.22,-101.0006 -410.5143,-171.7708 -29.7799,-19.2832 -54.1574,-36.9322 -54.172,-39.2201 -0.014,-2.2879 19.9186,-6.2145 44.296,-8.7257 206.3229,-21.2544 423.9653,-117.7998 648.3044,-287.5854 157.4225,-119.14135 332.8297,-285.57502 678.053,-643.36469 285.4121,-295.801355 354.7869,-355.231783 499.5302,-427.92626 305.5787,-153.47078 623.0844,-106.46624 855.4047,126.63676 96.856,97.182295 161.3218,202.85331 206.1893,337.98123 80.4108,242.17364 72.204,492.20078 -25.8961,788.95036 -184.0697,556.8049 -526.0628,1087.0132 -993.7307,1540.6283 -116.9048,113.3919 -158.9969,149.4039 -158.9302,135.9731 0.026,-4.8179 10.1679,-48.8725 22.5423,-97.8993 12.3744,-49.0268 27.129,-120.3222 32.7881,-158.4341 11.8608,-79.8783 13.5219,-192.8967 3.2313,-219.8481 l -7.0578,-18.4848 -19.9608,22.982 c -110.4166,127.1301 -158.4829,171.1213 -264.6904,242.2497 -143.8115,96.3123 -338.0051,180.3585 -578.8148,250.5085 -71.183,20.7362 -74.5327,21.4403 -74.5327,15.6656 z m 1640.195,-1306.6026 c 71.1835,-59.7942 134.6429,-115.2269 141.0209,-123.1838 11.1161,-13.8678 10.9037,-20.8559 -5.1277,-168.7097 -21.0854,-194.466 -21.4941,-196.9236 -32.7509,-196.9236 -5.0992,0 -48.0144,32.7916 -95.3672,72.8704 -47.3528,40.0787 -88.108,70.8963 -90.5673,68.4835 -2.4593,-2.4128 -10.3811,-55.1172 -17.604,-117.1209 -10.6898,-91.76383 -15.1024,-113.11004 -23.7218,-114.75549 -5.9139,-1.12894 -50.4676,31.59543 -100.9111,74.11829 -49.6771,41.8769 -91.7391,74.7226 -93.4712,72.9905 -1.7321,-1.7321 -8.7164,-54.3242 -15.5206,-116.87134 -13.7714,-126.59208 -16.7353,-143.2705 -25.4605,-143.2705 -3.3177,0 -44.4186,32.50322 -91.3354,72.22937 -46.9168,39.72615 -88.0052,72.22937 -91.3075,72.22937 -3.3024,0 -11.1852,-50.97095 -17.5174,-113.26878 -13.2026,-129.89139 -17.8487,-157.38983 -27.1144,-160.47836 -6.6968,-2.23228 -278.02,222.25423 -286.4377,236.99198 -2.4969,4.37151 2.5832,74.26536 11.2892,155.31936 21.7592,202.5815 21.8593,203.1848 33.7257,203.1848 5.5671,0 46.9311,-31.0258 91.9201,-68.9462 44.989,-37.9204 84.4417,-68.9462 87.6727,-68.9462 7.4201,0 10.5578,19.3477 22.8951,141.1755 12.0831,119.3176 13.9084,128.043 26.7856,128.043 5.5712,0 50.4241,-34.0424 99.6733,-75.6497 60.9051,-51.4548 90.9538,-72.9808 93.9523,-67.3047 2.4247,4.5898 9.6669,60.7984 16.094,124.908 7.2494,72.3135 14.8112,119.157 19.9198,123.3967 6.1142,5.0745 31.525,-12.6567 98.6959,-68.8682 49.7539,-41.6362 91.7429,-74.4209 93.309,-72.8548 1.566,1.566 8.4459,52.497 15.2886,113.1799 13.4624,119.3892 14.9438,126.7483 25.5156,126.7483 3.8678,0 65.2734,-48.9225 136.4569,-108.7167 z m 201.249,-668.94018 c 67.4599,-20.30243 113.9378,-70.16013 132.3303,-141.9533 12.9014,-50.35883 7.0269,-59.83776 -27.0216,-43.60119 -47.3393,22.57457 -102.8026,7.28978 -124.284,-34.2507 -19.4132,-37.54102 -10.0957,-78.65818 25.3226,-111.74665 9.3718,-8.75538 17.0396,-18.43168 17.0396,-21.50301 0,-10.14842 -35.5081,-19.35307 -75.621,-19.60298 -91.8481,-0.57258 -169.6788,63.50629 -188.0115,154.79154 -18.5111,92.1734 35.6311,183.21694 127.9231,215.11067 41.4853,14.33628 71.4039,15.07033 112.3225,2.75562 z M 4093.6329,611.63106 c 65.3446,-19.40521 132.8895,-102.3389 132.8895,-163.16555 0,-23.40343 -6.1423,-24.63218 -35.9145,-7.18446 -31.5673,18.49965 -53.3633,20.21313 -85.6292,6.73158 -64.9046,-27.11891 -64.4833,-131.4388 0.6408,-158.64937 46.7311,-19.5255 9.1571,-47.11991 -65.4749,-48.08488 -50.6978,-0.65551 -81.3179,9.1238 -119.3205,38.10797 -63.8426,48.69218 -90.4467,135.19636 -65.0732,211.58857 15.9537,48.03214 73.2379,105.92391 118.5884,119.84612 42.0062,12.89563 77.7793,13.13852 119.2937,0.81002 z"
         id="path3145"
         inkscape:connector-curvature="0" />
      <path
         style="fill:#000000"
         d="m 2703.2513,2809.4277 c 0.059,-2.4785 18.0154,-31.0999 39.8974,-63.6031 48.158,-71.5331 128.6186,-234.2207 155.8804,-315.1827 40.2884,-119.6483 67.317,-247.6269 54.0319,-255.8375 -4.0825,-2.5231 -35.6934,13.7264 -70.2465,36.1101 -203.0643,131.546 -492.7548,219.1863 -833.0225,252.0148 -144.4276,13.9342 -248.177,18.8457 -243.6586,11.5347 2.111,-3.4157 37.1139,-29.7736 77.7842,-58.5732 206.8368,-146.4657 395.7437,-318.2105 545.4188,-495.8676 20.5788,-24.426 37.416,-48.8035 37.416,-54.172 0,-12.6938 -12.1849,-12.3166 -86.2807,2.6704 -123.1518,24.9093 -179.2109,30.2495 -317.5471,30.2495 -126.8115,0 -223.0059,-8.2454 -261.2517,-22.3935 -11.1185,-4.1129 4.1387,-13.6943 81.0974,-50.9284 170.5356,-82.5084 287.374,-164.2934 404.5272,-283.1626 61.342,-62.2406 81.088,-88.8022 72.4428,-97.4475 -1.7328,-1.7327 -41.1542,-13.0609 -87.6032,-25.1738 -46.449,-12.1129 -106.614,-29.9389 -133.7,-39.6134 -64.004,-22.8607 -208.2934,-93.5226 -262.6522,-128.627 -36.9397,-23.8553 -40.9145,-28.2589 -29.5484,-32.7364 7.2229,-2.8453 21.5329,-5.381 31.8,-5.6348 10.2671,-0.2541 47.6883,-6.3756 83.1581,-13.6039 229.7634,-46.8228 451.0742,-172.2697 722.2459,-409.39487 81.0456,-70.86995 330.6092,-318.26767 611.0665,-605.76313 95.4839,-97.880021 198.7232,-197.245429 229.4207,-220.812007 161.4689,-123.960293 317.8923,-186.215583 486.5407,-193.639423 174.552,-7.6837 322.7468,37.83556 457.266,140.45308 274.4875,209.39184 393.6272,593.64132 309.9546,999.66636 -38.3136,185.91869 -137.8866,447.67779 -259.7281,682.77719 -176.661,340.8762 -414.9668,670.0938 -690.4171,953.8058 -96.1731,99.0578 -237.5972,231.3747 -242.2871,226.6849 -1.5555,-1.5556 6.0269,-37.906 16.8499,-80.7788 10.8231,-42.8727 24.1455,-103.5705 29.6055,-134.884 20.1257,-115.4234 19.7134,-266.1112 -0.7467,-272.9171 -4.33,-1.4403 -14.6719,5.5183 -22.9821,15.4636 -151.4601,181.2605 -278.1782,275.3789 -507.5926,377.0084 -120.4819,53.3729 -397.4707,145.6524 -397.1394,132.3079 z M 4340.5726,1507.8918 c 77.629,-65.1076 142.1329,-123.4657 143.3419,-129.6845 2.3957,-12.3236 -32.0766,-341.0239 -37.1672,-354.3965 -6.5324,-17.1598 -25.2325,-6.0428 -108.7704,64.6626 -47.3528,40.0787 -87.3555,71.6108 -88.895,70.0713 -1.5395,-1.5395 -7.2747,-45.4118 -12.7449,-97.4941 -14.0511,-133.78174 -14.8203,-137.37594 -29.402,-137.37594 -6.8343,0 -50.8125,32.50322 -97.7293,72.22937 -46.9168,39.72617 -88.0172,72.22937 -91.3342,72.22937 -3.3171,0 -11.362,-50.971 -17.8776,-113.26879 -11.9464,-114.22135 -17.6853,-142.81715 -28.6624,-142.81715 -3.298,0 -44.9156,32.81892 -92.4836,72.93097 -47.568,40.11199 -87.7726,71.64569 -89.3434,70.07477 -1.5709,-1.57086 -9.1485,-60.24461 -16.839,-130.38609 -8.3865,-76.48808 -17.3548,-131.13471 -22.4078,-136.53642 -10.6661,-11.40246 -1.6322,-17.9639 -166.0907,120.63361 -129.8432,109.42539 -132.456,112.12454 -132.4623,136.84156 -0.01,28.78649 31.6569,325.09714 36.0737,337.57404 6.2705,17.7134 27.4962,5.57 106.1646,-60.7383 44.989,-37.9204 83.9879,-68.9462 86.6643,-68.9462 2.6763,0 10.0627,49.4935 16.4141,109.9856 16.5783,157.8947 16.8439,159.2329 31.6051,159.2329 6.9286,0 50.9998,-32.5032 97.9359,-72.2293 46.9362,-39.7262 88.1671,-72.2294 91.6242,-72.2294 3.4572,0 6.3271,5.171 6.3777,11.491 0.2068,25.8295 25.7338,232.0052 29.4746,238.058 2.222,3.5953 6.709,6.5369 9.9711,6.5369 3.2621,0 44.6991,-32.5032 92.0823,-72.2293 47.3832,-39.7262 88.8624,-72.2294 92.176,-72.2294 3.3136,0 6.0248,4.0516 6.0248,9.0036 0,15.8022 19.833,197.2492 23.2391,212.6092 1.802,8.1258 7.4659,14.7742 12.5865,14.7742 5.1206,0 72.8249,-53.2699 150.4539,-118.3776 z m 198.4981,-663.84155 c 68.1157,-17.43354 133.9605,-101.22321 133.9605,-170.46892 0,-36.15145 -9.986,-41.6135 -38.9676,-21.31396 -18.353,12.85485 -63.0336,14.36878 -84.5303,2.86402 -23.17,-12.40014 -40.6075,-46.23494 -40.6352,-78.8461 -0.02,-25.21711 3.3412,-32.12519 26.2407,-53.90898 14.4459,-13.74203 26.2652,-28.20951 26.2652,-32.14988 0,-15.33469 -47.952,-27.79353 -95.1785,-24.7291 -73.958,4.79892 -128.2184,40.2548 -160.5155,104.88695 -35.7358,71.51371 -25.0856,159.2303 26.4405,217.76695 51.975,59.04678 121.3722,77.79431 206.9202,55.89902 z M 4118.6156,605.75894 c 59.2088,-26.93879 103.2937,-86.53728 112.2282,-151.72179 4.9684,-36.24837 -9.299,-45.9185 -33.795,-22.90564 -20.9412,19.67318 -66.5696,24.76955 -94.1362,10.5143 -28.3834,-14.6776 -42.7366,-39.00432 -42.7366,-72.43272 0,-36.18245 19.8425,-64.46596 55.133,-78.58641 30.9468,-12.38248 30.7361,-21.32723 -0.9409,-39.9382 -33.4414,-19.64763 -123.4205,-18.702 -161.8064,1.70049 -43.3889,23.06166 -71.9604,51.76095 -91.8476,92.25832 -15.4198,31.40001 -18.2126,45.10481 -17.6388,86.55442 0.8121,58.65655 12.1277,87.75205 50.1852,129.0396 60.6929,65.8439 143.7899,82.62803 225.3551,45.51763 z"
         id="path3143"
         inkscape:connector-curvature="0" />
    </g>
    <g
       style="font-size:40px;font-style:normal;font-variant:normal;font-weight:normal;font-stretch:normal;text-align:center;line-height:125%;letter-spacing:7.2300024px;word-spacing:0px;writing-mode:lr-tb;text-anchor:middle;fill:#000000;fill-opacity:1;stroke:none;font-family:Sawasdee;-inkscape-font-specification:Sawasdee"
       id="text3157">
      <path
         d="m 328.85263,544.86609 14.80078,0 0,1.99219 -6.21094,0 0,15.5039 -2.3789,0 0,-15.5039 -6.21094,0 0,-1.99219"
         style="font-size:24px;font-family:Droid Sans Armenian;-inkscape-font-specification:Droid Sans Armenian"
         id="path3200"
         inkscape:connector-curvature="0" />
      <path
         d="m 353.18029,544.86609 11.0625,0 0,1.99219 -8.69531,0 0,5.17968 8.33203,0 0,1.99219 -8.33203,0 0,6.33985 8.90625,0 0,1.99218 -11.27344,0 0,-17.49609"
         style="font-size:24px;font-family:Droid Sans Armenian;-inkscape-font-specification:Droid Sans Armenian"
         id="path3202"
         inkscape:connector-curvature="0" />
      <path
         d="m 381.44545,547.19812 -3.21094,8.70703 6.43359,0 -3.22265,-8.70703 m -1.33594,-2.33203 2.68359,0 6.66797,17.49609 -2.46094,0 -1.59375,-4.48828 -7.88671,0 -1.59375,4.48828 -2.4961,0 6.67969,-17.49609"
         style="font-size:24px;font-family:Droid Sans Armenian;-inkscape-font-specification:Droid Sans Armenian"
         id="path3204"
         inkscape:connector-curvature="0" />
      <path
         d="m 399.23404,544.86609 3.52735,0 4.46484,11.90625 4.48828,-11.90625 3.52735,0 0,17.49609 -2.3086,0 0,-15.36328 -4.51172,12 -2.3789,0 -4.51172,-12 0,15.36328 -2.29688,0 0,-17.49609"
         style="font-size:24px;font-family:Droid Sans Armenian;-inkscape-font-specification:Droid Sans Armenian"
         id="path3206"
         inkscape:connector-curvature="0" />
    </g>
    <rect
       style="fill:none"
       id="rect3032"
       width="330"
       height="250"
       x="210"
       y="322.36218" />
  </g>
</svg>
