<?xml version="1.0" encoding="UTF-8" standalone="no"?>
<!-- Created with Inkscape (http://www.inkscape.org/) -->

<svg
   xmlns:dc="http://purl.org/dc/elements/1.1/"
   xmlns:cc="http://creativecommons.org/ns#"
   xmlns:rdf="http://www.w3.org/1999/02/22-rdf-syntax-ns#"
   xmlns:svg="http://www.w3.org/2000/svg"
   xmlns="http://www.w3.org/2000/svg"
   version="1.1"
   width="330"
   height="250"
   id="svg3001">
  <defs
     id="defs3003" />
  <metadata
     id="metadata3006">
    <rdf:RDF>
      <cc:Work
         rdf:about="">
        <dc:format>image/svg+xml</dc:format>
        <dc:type
           rdf:resource="http://purl.org/dc/dcmitype/StillImage" />
        <dc:title></dc:title>
      </cc:Work>
    </rdf:RDF>
  </metadata>
  <g
     transform="translate(-210,-322.36218)"
     id="layer1">
    <g
       id="text3108"
       style="font-size:40px;font-style:normal;font-variant:normal;font-weight:normal;font-stretch:normal;text-align:center;line-height:125%;letter-spacing:0px;word-spacing:0px;writing-mode:lr-tb;text-anchor:middle;fill:#000000;fill-opacity:1;stroke:none;font-family:Lobster;-inkscape-font-specification:Lobster">
      <path
         d="m 237.5248,464.69818 -0.864,0 c -4.27202,5e-5 -7.60802,1.08005 -10.008,3.24 -2.35201,2.11204 -3.52801,5.88004 -3.528,11.304 -1e-5,1.77603 0.16799,3.02403 0.504,3.744 0.33599,0.67203 0.50399,1.05603 0.504,1.152 -2.59201,3e-5 -4.53601,-0.52797 -5.832,-1.584 -1.24801,-1.10397 -1.872,-2.90396 -1.872,-5.4 0,-3.40796 0.83999,-6.50396 2.52,-9.288 1.67999,-2.83195 4.34399,-5.11195 7.992,-6.84 3.69598,-1.72794 8.37598,-2.59194 14.04,-2.592 3.16797,6e-5 6.57596,0.28806 10.224,0.864 3.07196,0.52806 5.80795,0.79205 8.208,0.792 3.07195,5e-5 5.85595,-0.50394 8.352,-1.512 -0.0961,3.12005 -0.88806,5.42405 -2.376,6.912 -1.48805,1.48805 -3.69605,2.23205 -6.624,2.232 -1.53605,5e-5 -3.07204,-0.11995 -4.608,-0.36 -1.53604,-0.23995 -3.72004,-0.64795 -6.552,-1.224 l -9.936,46.224 -10.368,0 10.224,-47.664"
         id="path3209"
         style="font-size:72px;fill:#000000" />
      <path
         d="m 261.10255,512.65018 c -3.55201,0 -6.36001,-0.912 -8.424,-2.736 -2.064,-1.82399 -3.096,-4.70399 -3.096,-8.64 0,-3.26398 0.672,-6.88798 2.016,-10.872 1.34399,-3.98397 3.50399,-7.41597 6.48,-10.296 2.97599,-2.92796 6.71998,-4.39196 11.232,-4.392 6.14397,4e-5 9.21597,3.84004 9.216,11.52 l 0,0.072 c 0.14397,0.048 0.40797,0.072 0.792,0.072 1.58397,3e-5 3.40796,-0.40797 5.472,-1.224 2.06396,-0.86397 3.93596,-1.89597 5.616,-3.096 l 0.648,1.944 c -1.39204,1.48803 -3.21604,2.76003 -5.472,3.816 -2.20804,1.00803 -4.63203,1.72802 -7.272,2.16 -0.38403,4.36802 -1.36803,8.18402 -2.952,11.448 -1.58403,3.26401 -3.62403,5.78401 -6.12,7.56 -2.49602,1.776 -5.20802,2.664 -8.136,2.664 m 2.88,-6.48 c 1.15198,10e-6 2.30398,-0.64799 3.456,-1.944 1.15198,-1.34399 2.15998,-3.14399 3.024,-5.4 0.86397,-2.30398 1.48797,-4.84798 1.872,-7.632 -1.29602,-0.28798 -1.94402,-1.29597 -1.944,-3.024 -2e-5,-1.96797 0.74398,-3.26397 2.232,-3.888 -0.096,-1.58397 -0.33603,-2.66397 -0.72,-3.24 -0.38403,-0.62397 -1.05602,-0.93597 -2.016,-0.936 -1.58402,3e-5 -3.12002,1.15203 -4.608,3.456 -1.48802,2.30403 -2.68802,5.06403 -3.6,8.28 -0.91201,3.21602 -1.36801,6.04802 -1.368,8.496 -10e-6,2.30401 0.26399,3.86401 0.792,4.68 0.52798,0.76801 1.48798,1.15201 2.88,1.152"
         id="path3211"
         style="font-size:72px;fill:#000000" />
      <path
         d="m 287.70317,473.69818 10.368,0 -1.152,5.4 c 2.39998,-2.06396 5.20798,-3.09596 8.424,-3.096 2.68797,4e-5 4.82397,0.88804 6.408,2.664 1.58397,1.77603 2.37597,4.68003 2.376,8.712 -3e-5,3.79202 -0.55203,7.63202 -1.656,11.52 -1.10403,3.84001 -2.97603,7.12801 -5.616,9.864 -2.64002,2.688 -6.12002,4.032 -10.44,4.032 -3.07201,0 -5.11201,-0.864 -6.12,-2.592 l -3.744,17.568 -10.872,2.592 12.024,-56.664 m 6.48,32.832 c 2.30399,1e-5 4.19998,-1.07999 5.688,-3.24 1.53598,-2.15999 2.63998,-4.72798 3.312,-7.704 0.71998,-3.02398 1.07998,-5.83197 1.08,-8.424 -2e-5,-3.98397 -1.20002,-5.97597 -3.6,-5.976 -0.86402,3e-5 -1.75202,0.31203 -2.664,0.936 -0.86401,0.62403 -1.63201,1.48803 -2.304,2.592 l -4.248,20.16 c 0.38399,1.10401 1.29599,1.65601 2.736,1.656"
         id="path3213"
         style="font-size:72px;fill:#000000" />
      <path
         d="m 321.45317,473.69818 10.368,0 -1.152,5.4 c 2.39998,-2.06396 5.20798,-3.09596 8.424,-3.096 2.68797,4e-5 4.82397,0.88804 6.408,2.664 1.58397,1.77603 2.37597,4.68003 2.376,8.712 -3e-5,3.79202 -0.55203,7.63202 -1.656,11.52 -1.10403,3.84001 -2.97603,7.12801 -5.616,9.864 -2.64002,2.688 -6.12002,4.032 -10.44,4.032 -3.07201,0 -5.11201,-0.864 -6.12,-2.592 l -3.744,17.568 -10.872,2.592 12.024,-56.664 m 6.48,32.832 c 2.30399,1e-5 4.19998,-1.07999 5.688,-3.24 1.53598,-2.15999 2.63998,-4.72798 3.312,-7.704 0.71998,-3.02398 1.07998,-5.83197 1.08,-8.424 -2e-5,-3.98397 -1.20002,-5.97597 -3.6,-5.976 -0.86402,3e-5 -1.75202,0.31203 -2.664,0.936 -0.86401,0.62403 -1.63201,1.48803 -2.304,2.592 l -4.248,20.16 c 0.38399,1.10401 1.29599,1.65601 2.736,1.656"
         id="path3215"
         style="font-size:72px;fill:#000000" />
      <path
         d="m 356.85917,512.79418 c -2.304,0 -4.176,-0.72 -5.616,-2.16 -1.392,-1.43999 -2.088,-3.59999 -2.088,-6.48 0,-1.19999 0.192,-2.75999 0.576,-4.68 l 7.704,-36.072 10.656,-1.44 -8.28,38.88 c -0.19201,0.72001 -0.28801,1.48801 -0.288,2.304 -10e-6,0.96001 0.21599,1.65601 0.648,2.088 0.47999,0.38401 1.24799,0.57601 2.304,0.576 1.39199,10e-6 2.68799,-0.57599 3.888,-1.728 1.19998,-1.19999 2.06398,-2.73599 2.592,-4.608 l 3.024,0 c -1.77602,5.18401 -4.05602,8.71201 -6.84,10.584 -2.78401,1.824 -5.54401,2.736 -8.28,2.736"
         id="path3217"
         style="font-size:72px;fill:#000000" />
      <path
         d="m 379.2928,512.79418 c -3.55201,0 -6.31201,-0.912 -8.28,-2.736 -1.968,-1.87199 -2.952,-4.77599 -2.952,-8.712 0,-3.31198 0.648,-6.95998 1.944,-10.944 1.29599,-3.98397 3.40799,-7.41597 6.336,-10.296 2.92799,-2.92796 6.64798,-4.39196 11.16,-4.392 5.27997,4e-5 7.91997,2.30404 7.92,6.912 -3e-5,2.68803 -0.76803,5.16003 -2.304,7.416 -1.53603,2.25602 -3.57602,4.08002 -6.12,5.472 -2.54402,1.34402 -5.25602,2.11202 -8.136,2.304 -0.096,1.44002 -0.14401,2.40001 -0.144,2.88 -10e-6,2.35201 0.40799,3.96001 1.224,4.824 0.81598,0.81601 2.13598,1.22401 3.96,1.224 2.59198,1e-5 4.79998,-0.59999 6.624,-1.8 1.87197,-1.19999 3.91197,-3.02399 6.12,-5.472 l 2.448,0 c -5.32803,8.88001 -11.92802,13.32 -19.8,13.32 m 0.144,-18.432 c 1.77598,-0.096 3.45598,-0.71998 5.04,-1.872 1.63198,-1.15198 2.92798,-2.61597 3.888,-4.392 1.00798,-1.77597 1.51197,-3.64797 1.512,-5.616 -3e-5,-1.96797 -0.60002,-2.95196 -1.8,-2.952 -1.72802,4e-5 -3.43202,1.51203 -5.112,4.536 -1.63202,3.02403 -2.80802,6.45602 -3.528,10.296"
         id="path3219"
         style="font-size:72px;fill:#000000" />
      <path
         d="m 409.44392,530.36218 c -2.30401,-2e-5 -4.22401,-0.60001 -5.76,-1.8 -1.536,-1.20001 -2.304,-2.92801 -2.304,-5.184 0,-2.73601 1.10399,-4.944 3.312,-6.624 2.20799,-1.632 5.01599,-3 8.424,-4.104 l 0.864,-3.816 c -2.44801,2.64 -5.32801,3.96 -8.64,3.96 -2.73601,0 -5.016,-0.936 -6.84,-2.808 -1.824,-1.87199 -2.736,-4.79999 -2.736,-8.784 0,-3.55198 0.696,-7.27198 2.088,-11.16 1.44,-3.93597 3.552,-7.24797 6.336,-9.936 2.83199,-2.73596 6.19199,-4.10396 10.08,-4.104 1.96798,4e-5 3.43198,0.33604 4.392,1.008 0.95998,0.67204 1.43998,1.56004 1.44,2.664 l 0,0.432 0.792,-3.744 10.368,0 -7.128,33.408 c 2.30397,-0.76799 4.15197,-1.91999 5.544,-3.456 1.39197,-1.53599 2.56797,-3.81599 3.528,-6.84 l 3.024,0 c -1.29604,4.27201 -3.04804,7.41601 -5.256,9.432 -2.20803,1.968 -4.70403,3.312 -7.488,4.032 l -1.08,5.184 c -0.96002,4.65599 -2.61602,7.84799 -4.968,9.576 -2.35202,1.77599 -5.01602,2.66398 -7.992,2.664 m 0.576,-24.552 c 1.10399,10e-6 2.23199,-0.50399 3.384,-1.512 1.15198,-1.00799 1.94398,-2.37599 2.376,-4.104 l 3.672,-17.064 c -2e-5,-0.57597 -0.24002,-1.15197 -0.72,-1.728 -0.48002,-0.62397 -1.22402,-0.93597 -2.232,-0.936 -1.92002,3e-5 -3.64802,1.12803 -5.184,3.384 -1.53601,2.20803 -2.73601,4.89603 -3.6,8.064 -0.86401,3.12002 -1.29601,5.88002 -1.296,8.28 -10e-6,2.40001 0.33599,3.93601 1.008,4.608 0.71999,0.67201 1.58399,1.00801 2.592,1.008 m -2.232,18.936 c 0.81599,-10e-6 1.60799,-0.55201 2.376,-1.656 0.76799,-1.10401 1.36799,-2.68801 1.8,-4.752 l 0.432,-2.088 c -4.70401,1.728 -7.05601,3.76799 -7.056,6.12 -1e-5,0.62399 0.21599,1.17599 0.648,1.656 0.43199,0.47999 1.03199,0.71999 1.8,0.72"
         id="path3221"
         style="font-size:72px;fill:#000000" />
      <path
         d="m 443.55842,512.79418 c -3.55201,0 -6.312,-0.912 -8.28,-2.736 -1.968,-1.87199 -2.952,-4.77599 -2.952,-8.712 0,-3.31198 0.648,-6.95998 1.944,-10.944 1.296,-3.98397 3.408,-7.41597 6.336,-10.296 2.92799,-2.92796 6.64799,-4.39196 11.16,-4.392 5.27998,4e-5 7.91997,2.30404 7.92,6.912 -3e-5,2.68803 -0.76803,5.16003 -2.304,7.416 -1.53602,2.25602 -3.57602,4.08002 -6.12,5.472 -2.54401,1.34402 -5.25601,2.11202 -8.136,2.304 -0.096,1.44002 -0.14401,2.40001 -0.144,2.88 -10e-6,2.35201 0.40799,3.96001 1.224,4.824 0.81599,0.81601 2.13599,1.22401 3.96,1.224 2.59198,1e-5 4.79998,-0.59999 6.624,-1.8 1.87198,-1.19999 3.91198,-3.02399 6.12,-5.472 l 2.448,0 c -5.32802,8.88001 -11.92802,13.32 -19.8,13.32 m 0.144,-18.432 c 1.77599,-0.096 3.45599,-0.71998 5.04,-1.872 1.63198,-1.15198 2.92798,-2.61597 3.888,-4.392 1.00798,-1.77597 1.51198,-3.64797 1.512,-5.616 -2e-5,-1.96797 -0.60002,-2.95196 -1.8,-2.952 -1.72802,4e-5 -3.43201,1.51203 -5.112,4.536 -1.63201,3.02403 -2.80801,6.45602 -3.528,10.296"
         id="path3223"
         style="font-size:72px;fill:#000000" />
      <path
         d="m 472.98955,472.47418 c -1.58401,4e-5 -2.92801,-0.55196 -4.032,-1.656 -1.10401,-1.10395 -1.65601,-2.44795 -1.656,-4.032 -1e-5,-1.58395 0.55199,-2.92795 1.656,-4.032 1.10399,-1.15195 2.44799,-1.72795 4.032,-1.728 1.58398,5e-5 2.92798,0.57605 4.032,1.728 1.15198,1.10405 1.72798,2.44805 1.728,4.032 -2e-5,1.58405 -0.57602,2.92805 -1.728,4.032 -1.10402,1.10404 -2.44802,1.65604 -4.032,1.656 m -4.896,40.32 c -2.30401,0 -4.17601,-0.72 -5.616,-2.16 -1.392,-1.43999 -2.088,-3.59999 -2.088,-6.48 0,-1.19999 0.192,-2.75999 0.576,-4.68 l 4.896,-23.112 10.368,0 -5.184,24.48 c -0.19201,0.72001 -0.28801,1.48801 -0.288,2.304 -10e-6,0.96001 0.21599,1.65601 0.648,2.088 0.47998,0.38401 1.24798,0.57601 2.304,0.576 1.39198,10e-6 2.68798,-0.57599 3.888,-1.728 1.19998,-1.19999 2.06398,-2.73599 2.592,-4.608 l 3.024,0 c -1.77602,5.18401 -4.05602,8.71201 -6.84,10.584 -2.78402,1.824 -5.54401,2.736 -8.28,2.736"
         id="path3225"
         style="font-size:72px;fill:#000000" />
      <path
         d="m 488.43917,512.79418 c -2.30401,0 -4.248,-0.432 -5.832,-1.296 -1.584,-0.912 -2.76,-2.06399 -3.528,-3.456 -0.768,-1.43999 -1.152,-2.92799 -1.152,-4.464 0,-1.58399 0.384,-2.95199 1.152,-4.104 0.72,-1.19998 1.608,-2.06398 2.664,-2.592 1.872,-3.35998 3.504,-6.74398 4.896,-10.152 1.39199,-3.45597 2.71199,-7.17596 3.96,-11.16 l 10.656,-1.44 c 0.23998,6.14403 0.64798,12.79203 1.224,19.944 0.23998,2.88002 0.35998,4.96802 0.36,6.264 -2e-5,1.10401 -0.096,2.01601 -0.288,2.736 2.25598,-1.29599 3.98397,-2.49599 5.184,-3.6 l 3.024,0 c -3.07203,3.55201 -6.74402,6.55201 -11.016,9 -1.39202,1.48801 -3.12002,2.592 -5.184,3.312 -2.01601,0.672 -4.05601,1.008 -6.12,1.008 m -2.304,-5.688 c 1.77599,1e-5 3.26399,-0.52799 4.464,-1.584 1.19999,-1.05599 1.79999,-2.75999 1.8,-5.112 -1e-5,-1.43998 -0.14401,-3.45598 -0.432,-6.048 -0.48001,-5.47197 -0.79201,-9.14397 -0.936,-11.016 -1.15201,3.79203 -3.09601,8.32802 -5.832,13.608 1.10399,0.57602 1.65599,1.41602 1.656,2.52 -10e-6,0.91201 -0.31201,1.72801 -0.936,2.448 -0.576,0.72001 -1.32,1.08001 -2.232,1.08 -1.008,10e-6 -1.656,-0.31199 -1.944,-0.936 0,1.72801 0.336,3.00001 1.008,3.816 0.72,0.81601 1.848,1.22401 3.384,1.224"
         id="path3227"
         style="font-size:72px;fill:#000000" />
      <path
         d="m 514.56167,512.79418 c -2.448,0 -4.272,-0.744 -5.472,-2.232 -1.152,-1.48799 -1.728,-3.45599 -1.728,-5.904 0,-1.24799 0.144,-2.51999 0.432,-3.816 l 4.608,-21.6 -2.376,0 0.576,-2.88 2.376,0 2.16,-9.936 10.656,-1.44 c -0.43202,1.82405 -0.67202,2.90405 -0.72,3.24 -0.33602,1.34405 -0.91202,4.05604 -1.728,8.136 l 4.32,0 -0.576,2.88 -4.32,0 -4.608,21.6 c -0.24001,1.05601 -0.36001,1.89601 -0.36,2.52 -10e-6,1.72801 0.83999,2.59201 2.52,2.592 0.86399,10e-6 1.48799,-0.072 1.872,-0.216 -0.96001,2.78401 -2.08801,4.656 -3.384,5.616 -1.29601,0.96 -2.71201,1.44 -4.248,1.44"
         id="path3229"
         style="font-size:72px;fill:#000000" />
    </g>
    <g
       id="text3157"
       style="font-size:40px;font-style:normal;font-variant:normal;font-weight:normal;font-stretch:normal;text-align:center;line-height:125%;letter-spacing:7.2300024px;word-spacing:0px;writing-mode:lr-tb;text-anchor:middle;fill:#000000;fill-opacity:1;stroke:none;font-family:Sawasdee;-inkscape-font-specification:Sawasdee">
      <path
         d="m 328.85263,544.86609 14.80078,0 0,1.99219 -6.21094,0 0,15.5039 -2.3789,0 0,-15.5039 -6.21094,0 0,-1.99219"
         id="path3200"
         style="font-size:24px;font-family:Droid Sans Armenian;-inkscape-font-specification:Droid Sans Armenian" />
      <path
         d="m 353.18029,544.86609 11.0625,0 0,1.99219 -8.69531,0 0,5.17968 8.33203,0 0,1.99219 -8.33203,0 0,6.33985 8.90625,0 0,1.99218 -11.27344,0 0,-17.49609"
         id="path3202"
         style="font-size:24px;font-family:Droid Sans Armenian;-inkscape-font-specification:Droid Sans Armenian" />
      <path
         d="m 381.44545,547.19812 -3.21094,8.70703 6.43359,0 -3.22265,-8.70703 m -1.33594,-2.33203 2.68359,0 6.66797,17.49609 -2.46094,0 -1.59375,-4.48828 -7.88671,0 -1.59375,4.48828 -2.4961,0 6.67969,-17.49609"
         id="path3204"
         style="font-size:24px;font-family:Droid Sans Armenian;-inkscape-font-specification:Droid Sans Armenian" />
      <path
         d="m 399.23404,544.86609 3.52735,0 4.46484,11.90625 4.48828,-11.90625 3.52735,0 0,17.49609 -2.3086,0 0,-15.36328 -4.51172,12 -2.3789,0 -4.51172,-12 0,15.36328 -2.29688,0 0,-17.49609"
         id="path3206"
         style="font-size:24px;font-family:Droid Sans Armenian;-inkscape-font-specification:Droid Sans Armenian" />
    </g>
    <rect
       width="330"
       height="250"
       x="210"
       y="322.36218"
       id="rect3032"
       style="fill:none" />
    <g
       transform="matrix(0.63280352,0,0,0.80774018,124.73261,95.576108)"
       id="text3009"
       style="font-size:40px;font-style:normal;font-variant:normal;font-weight:normal;font-stretch:normal;text-align:center;line-height:125%;letter-spacing:0px;word-spacing:0px;writing-mode:lr-tb;text-anchor:middle;fill:#000000;fill-opacity:1;stroke:none;font-family:Phetsarath OT;-inkscape-font-specification:Phetsarath OT">
      <path
         d="m 450.69569,402.36218 c -0.28137,3.15744 0.43588,5.38485 2.125,6.65625 4.00782,3.96092 7.96093,6.07812 11.875,6.3125 9.83977,-1.27789 12.41537,-2.98288 17.83588,-2.98288 6.63312,0.13771 8.9351,2.10007 12.41412,4.38913 2.90621,0.46874 5.10933,1.53904 6.5625,3.25 6.6562,1.31248 11.33589,4.74998 14.03125,10.28125 0.25776,2.46091 -0.0703,4.4609 -0.9375,6.03125 -1.28912,-7.68753 -8.60161,-11.56252 -21.9375,-11.65625 0.28122,2.67185 -0.32815,4.84373 -1.875,6.53125 -0.46878,-1.14846 -1.26565,-1.61721 -2.34375,-1.40625 -0.63284,5.08591 -3.27346,8.06247 -7.9375,8.90625 -1.21877,-1.47659 -0.75002,-2.40628 1.40625,-2.78125 -0.96096,-1.82816 -1.98193,-3.26044 -1.95847,-4.85416 l 0,-1.41552 c 0,-1.41552 0,-1.41552 0,-1.41552 -1.45281,-3.01623 -3.61367,-4.24655 -5.94778,-7.2523 l -1.40625,-1.46875 c -14.60484,3.042 -23.57766,-2.66637 -26.9375,-17.125 z"
         id="path3020"
         style="font-size:72px;font-weight:bold;fill:#000000;font-family:Fiddums Family;-inkscape-font-specification:Fiddums Family Bold" />
    </g>
    <rect
       width="170"
       height="60"
       x="140"
       y="90"
       transform="translate(210,322.36218)"
       id="rect3013"
       style="fill:none" />
    <rect
       width="180"
       height="70"
       x="135"
       y="85"
       transform="translate(210,322.36218)"
       id="rect3015"
       style="fill:none" />
    <rect
       width="180"
       height="60"
       x="135"
       y="90"
       transform="translate(210,322.36218)"
       id="rect3017"
       style="fill:none" />
    <rect
       width="170"
       height="60"
       x="140"
       y="90"
       transform="translate(210,322.36218)"
       id="rect3022"
       style="fill:none" />
    <rect
       width="90"
       height="35"
       x="225"
       y="90"
       transform="translate(210,322.36218)"
       id="rect3024"
       style="fill:none" />
    <rect
       width="85"
       height="40"
       x="230"
       y="80"
       transform="translate(210,322.36218)"
       id="rect3026"
       style="fill:none" />
    <rect
       width="120"
       height="60"
       x="195"
       y="10"
       transform="translate(210,322.36218)"
       id="rect3028"
       style="fill:none" />
    <rect
       width="95"
       height="40"
       x="225"
       y="85"
       transform="translate(210,322.36218)"
       id="rect3030"
       style="fill:none" />
    <rect
       width="85"
       height="40"
       x="230"
       y="80"
       transform="translate(210,322.36218)"
       id="rect3033"
       style="fill:none" />
    <rect
       width="95"
       height="35"
       x="225"
       y="85"
       transform="translate(210,322.36218)"
       id="rect3035"
       style="fill:none" />
    <rect
       width="125"
       height="40"
       x="175"
       y="85"
       transform="translate(210,322.36218)"
       id="rect3040"
       style="fill:none" />
    <rect
       width="90"
       height="40"
       x="195"
       y="90"
       transform="translate(210,322.36218)"
       id="rect3043"
       style="fill:none" />
    <rect
       width="85"
       height="45"
       x="200"
       y="85"
       transform="translate(210,322.36218)"
       id="rect3046"
       style="fill:none" />
    <path
       d="m 356.54665,456.60944 c 10e-4,-0.0768 0.5587,-0.96449 1.23731,-1.97247 1.49347,-2.2184 3.98875,-7.26369 4.83418,-9.77452 1.24943,-3.71054 2.08764,-7.67943 1.67564,-7.93406 -0.12664,-0.0782 -1.10183,0.42239 -2.16718,1.11253 -7.33829,4.75377 -17.72148,7.49677 -31.21011,8.245 -1.43407,0.0796 -2.2653,0.0551 -2.19142,-0.0644 0.0656,-0.10591 1.15098,-0.92335 2.41227,-1.81648 6.41445,-4.54222 12.27286,-9.8684 16.91461,-15.37794 1.19522,-1.41867 1.42427,-1.9833 0.804,-1.98193 -0.196,4.3e-4 -1.50182,0.22286 -2.90181,0.49425 -3.94225,0.76423 -6.98673,1.00455 -10.89449,0.86001 -3.02137,-0.11182 -6.46803,-0.52613 -6.75389,-0.81199 -0.0522,-0.0522 1.21716,-0.72939 2.82052,-1.50513 5.26312,-2.54644 8.89322,-5.08899 12.52074,-8.76964 1.90235,-1.93021 2.5147,-2.75394 2.2466,-3.02205 -0.0537,-0.0537 -1.27627,-0.40321 -2.71676,-0.77663 -4.51499,-1.17036 -8.77333,-2.98244 -12.29174,-5.23061 -1.14441,-0.73123 -1.26849,-0.86747 -0.91637,-1.00619 0.22402,-0.0881 0.66779,-0.16689 0.9862,-0.17475 0.3184,-0.008 1.48667,-0.19929 2.59614,-0.4254 7.08976,-1.44479 13.99965,-5.36352 22.38119,-12.69272 2.51189,-2.19651 10.24192,-9.86017 18.94978,-18.78707 2.96155,-3.03604 6.16355,-6.11758 7.11555,-6.84785 5.01278,-3.84532 9.85954,-5.77396 15.08868,-6.00414 5.41324,-0.23829 10.00907,1.17337 14.18081,4.35576 8.51246,6.4937 12.20724,18.41009 9.61236,31.00183 -1.18819,5.76574 -4.27616,13.88345 -8.05472,21.1744 -5.48687,10.58718 -12.85619,20.76783 -21.41134,29.57959 -2.98254,3.07199 -7.36841,7.17544 -7.51385,7.02999 -0.0483,-0.0482 0.18691,-1.17555 0.52255,-2.50514 0.33565,-1.32955 0.74883,-3.21194 0.91814,-4.18303 0.62414,-3.57953 0.61134,-8.2527 -0.0232,-8.46375 -0.13428,-0.0447 -0.455,0.17113 -0.71272,0.47956 -4.6971,5.62127 -8.6269,8.54009 -15.74155,11.69184 -3.73639,1.65522 -12.32642,4.51701 -12.31614,4.10316 z m 50.7769,-40.36346 c 2.40743,-2.01913 4.40784,-3.82894 4.44533,-4.02179 0.0743,-0.3822 -0.99476,-10.5759 -1.15263,-10.99061 -0.20258,-0.53216 -0.78252,-0.18741 -3.37322,2.00533 -1.4685,1.24292 -2.70767,2.22222 -2.75369,2.17621 -0.046,-0.046 -0.22614,-1.4066 -0.40028,-3.02351 -0.45522,-4.2267 -0.46307,-4.26348 -0.90991,-4.26348 -0.21195,0 -1.57581,1.00802 -3.0308,2.24001 -1.45499,1.23199 -2.72961,2.23997 -2.83247,2.23997 -0.10292,0 -0.35237,-1.58072 -0.55442,-3.51271 -0.3705,-3.54225 -0.54848,-4.42907 -0.88889,-4.42907 -0.10225,0 -1.39293,1.01779 -2.86812,2.26176 -1.47518,1.24395 -2.72202,2.22189 -2.77074,2.17317 -0.0487,-0.0488 -0.28371,-1.86832 -0.52221,-4.04356 -0.26009,-2.37206 -0.5382,-4.06677 -0.6949,-4.2343 -0.33079,-0.3536 -0.0506,-0.5571 -5.15084,3.74112 -4.02673,3.39352 -4.10775,3.47722 -4.10795,4.24375 -2.1e-4,0.89274 0.98176,10.08197 1.11872,10.46892 0.19446,0.54932 0.85273,0.17273 3.29241,-1.88364 1.3952,-1.17599 2.60464,-2.13817 2.68764,-2.13817 0.083,0 0.31208,1.5349 0.50904,3.4109 0.51412,4.89664 0.52237,4.93816 0.98014,4.93816 0.21486,0 1.58163,-1.00801 3.0372,-2.24 1.4556,-1.23199 2.73424,-2.23999 2.84147,-2.23999 0.10724,0 0.19578,0.11452 0.19681,0.25455 0.006,0.76797 0.80118,7.30026 0.91059,7.47732 0.0715,0.11543 0.21253,0.20991 0.31368,0.20991 0.10104,0 1.38622,-1.00799 2.85568,-2.23998 1.46945,-1.232 2.75582,-2.24 2.85857,-2.24 0.10281,0 0.18685,0.12559 0.18685,0.27922 0,0.49006 0.61506,6.11713 0.72069,6.59348 0.0559,0.25199 0.23153,0.45817 0.39033,0.45817 0.15881,0 2.25846,-1.65201 4.66592,-3.67114 z m 6.15586,-20.58716 c 2.06314,-0.52805 3.89379,-2.78927 4.1001,-5.06447 0.10048,-1.10755 0.0741,-1.22253 -0.27939,-1.22253 -0.21463,0 -0.60829,0.15272 -0.87479,0.33939 -0.56916,0.39865 -1.95481,0.4456 -2.62148,0.0889 -0.71854,-0.38455 -1.25932,-1.43384 -1.26017,-2.4452 -6.1e-4,-0.78648 0.1027,-0.99535 0.83883,-1.69566 1.36406,-1.29759 0.92143,-1.37361 -2.90528,-0.49896 -1.81067,0.41385 -3.42994,0.86642 -3.59834,1.00568 -0.66648,0.55113 -1.25553,2.25041 -1.25758,3.62783 -0.002,1.72484 0.44033,2.99468 1.44104,4.13153 1.61185,1.83119 3.76402,2.41259 6.41706,1.73357 z m -13.03925,-7.38993 c 1.60172,-0.72875 3.14281,-2.55336 3.14281,-3.721 0,-0.68876 -3.0171,-7.071 -3.49549,-7.3942 -0.31452,-0.21249 -0.98244,-0.30545 -2.19467,-0.30545 -1.54829,0 -1.86328,0.0669 -2.82565,0.59999 -1.22929,0.68097 -2.27687,1.76671 -2.27687,2.3598 0,0.2201 0.0685,0.40873 0.15273,0.41917 0.084,0.01 0.53087,0.047 0.99306,0.0811 1.08896,0.0806 1.63468,0.38544 2.1225,1.18553 0.60381,0.99025 0.52741,2.22749 -0.18691,3.02695 -0.52405,0.58651 -0.72278,0.6625 -1.93454,0.73966 -1.63291,0.10391 -1.69067,0.2895 -0.49418,1.58752 1.89098,2.05148 4.46313,2.57376 6.99721,1.4208 z"
       id="path3062-1-5"
       style="fill:#000000" />
  </g>
</svg>
