<?xml version="1.0" encoding="UTF-8" standalone="no"?>
<!-- Created with Inkscape (http://www.inkscape.org/) -->

<svg
   xmlns:dc="http://purl.org/dc/elements/1.1/"
   xmlns:cc="http://creativecommons.org/ns#"
   xmlns:rdf="http://www.w3.org/1999/02/22-rdf-syntax-ns#"
   xmlns:svg="http://www.w3.org/2000/svg"
   xmlns="http://www.w3.org/2000/svg"
   xmlns:sodipodi="http://sodipodi.sourceforge.net/DTD/sodipodi-0.dtd"
   xmlns:inkscape="http://www.inkscape.org/namespaces/inkscape"
   width="407.47949"
   height="368.01627"
   id="svg3037"
   version="1.1"
   inkscape:version="0.48.4 r9939"
   sodipodi:docname="New document 1">
  <defs
     id="defs3039" />
  <sodipodi:namedview
     id="base"
     pagecolor="#ffffff"
     bordercolor="#666666"
     borderopacity="1.0"
     inkscape:pageopacity="0.0"
     inkscape:pageshadow="2"
     inkscape:zoom="0.12374369"
     inkscape:cx="-1466.5036"
     inkscape:cy="1022.3686"
     inkscape:document-units="px"
     inkscape:current-layer="layer1"
     showgrid="false"
     fit-margin-top="0"
     fit-margin-left="0"
     fit-margin-right="0"
     fit-margin-bottom="0"
     inkscape:window-width="1307"
     inkscape:window-height="744"
     inkscape:window-x="59"
     inkscape:window-y="24"
     inkscape:window-maximized="1" />
  <metadata
     id="metadata3042">
    <rdf:RDF>
      <cc:Work
         rdf:about="">
        <dc:format>image/svg+xml</dc:format>
        <dc:type
           rdf:resource="http://purl.org/dc/dcmitype/StillImage" />
        <dc:title></dc:title>
      </cc:Work>
    </rdf:RDF>
  </metadata>
  <g
     inkscape:label="Layer 1"
     inkscape:groupmode="layer"
     id="layer1"
     transform="translate(-152.03027,-291.66883)">
    <path
       style="fill:#000000"
       d="m 152.3313,658.08071 c -0.93017,-2.42399 0.43931,-24.70497 2.14092,-34.8322 4.3763,-26.04573 13.7704,-51.94531 26.53247,-73.15008 2.75278,-4.57388 5.00505,-8.75002 5.00505,-9.28033 0,-0.53031 -3.82256,-14.38968 -8.49458,-30.7986 -8.62647,-30.29758 -9.30748,-33.33441 -7.47526,-33.33441 0.56659,0 13.84106,3.825 29.49883,8.5 15.65776,4.675 28.85056,8.5 29.31733,8.5 0.46677,0 4.6298,-2.85171 9.25117,-6.33713 21.41749,-16.15298 43.39621,-27.09887 64.63971,-32.19195 3.9804,-0.9543 7.6973,-2.28955 8.2597,-2.96722 1.0528,-1.26847 3.17193,-21.64079 14.04323,-135.0037 2.7093,-28.25234 1.7602,-25.65405 9.2407,-25.29692 l 6.2192,0.29692 0.5,78.5 0.5,78.5 14,0 14,0 0.5,-78.5 0.5,-78.5 5.6891,-0.29809 c 6.9764,-0.36554 7.296,0.092 8.2415,11.79809 0.8061,9.98132 5.1299,57.08147 6.5637,71.5 0.547,5.5 2.3782,24.85 4.0695,43 1.6912,18.15 3.4228,33.35651 3.8478,33.79224 0.4251,0.43573 5.1373,1.89973 10.4715,3.25333 22.661,5.75037 41.1998,15.21095 67.7111,34.55373 l 5.5943,4.08158 28.9057,-8.52081 c 15.8982,-4.68645 29.2422,-8.19328 29.6533,-7.79296 0.4111,0.40033 -3.0715,13.9815 -7.7391,30.18038 -4.6676,16.19888 -8.4915,30.2913 -8.4975,31.31649 -0.01,1.02519 1.9885,5.07519 4.4321,9 17.8381,28.65007 29.6377,68.10127 29.9498,100.13602 l 0.1072,11 -94.5,0 -94.5,0 -0.5,-76.5 -0.5,-76.5 -14,0 -14,0 -0.2564,75.40521 c -0.1825,53.68351 -0.5779,75.79259 -1.3724,76.75 -0.9202,1.10873 -17.425,1.34479 -94.02507,1.34479 -84.34976,0 -92.96565,-0.1478 -93.5246,-1.60438 z m 69.67843,-32.36404 c 9.075,-1.06485 22.80001,-2.64295 30.5,-3.50687 16.41811,-1.84208 18.50001,-2.23877 18.50001,-3.52502 0,-1.07266 -37.96179,-49.89315 -40.31351,-51.8449 -1.23303,-1.02333 -1.83319,-0.75424 -3.46551,1.55377 -7.27081,10.28056 -26.5811,56.598 -24.4746,58.70449 0.79511,0.79512 0.56075,0.81194 19.25361,-1.38147 z m 286.98994,0.21842 c -0.017,-3.00204 -6.4664,-20.3981 -12.9305,-34.87915 -6.674,-14.95133 -12.9072,-25.87085 -14.768,-25.87085 -1.2918,0 -42.2914,51.79715 -42.2914,53.42914 0,1.45863 1.313,1.68221 32,5.44907 33.2709,4.08404 38.004,4.31725 37.9899,1.87179 z m -200.55753,-49.5 c 0.3169,-2.8875 1.0236,-14.025 1.5704,-24.75 0.5468,-10.725 1.2859,-24.5625 1.6424,-30.75 0.5837,-10.12924 0.4808,-11.25 -1.0329,-11.25 -2.482,0 -23.7538,8.57129 -34.1123,13.74531 -10.2066,5.09809 -21.2065,12.04742 -21.89033,13.82946 -0.25234,0.65758 0.74476,2.33073 2.21576,3.71811 4.50945,4.25308 49.57907,40.70712 50.32787,40.70712 0.3865,0 0.9621,-2.3625 1.2791,-5.25 z m 121.84983,-16.32567 c 14.6948,-11.86662 26.7178,-21.98724 26.7178,-22.49028 0,-4.47424 -54.163,-30.80547 -58.2151,-28.30114 -0.7311,0.45187 -0.8805,4.56311 -0.4638,12.76679 0.3381,6.65517 1.0925,21.7753 1.6765,33.6003 1.0976,22.22199 1.505,26 2.8036,26 0.4197,0 12.7862,-9.70905 27.481,-21.57567 z"
       id="path3183"
       inkscape:connector-curvature="0" />
  </g>
</svg>
