<?xml version="1.0" encoding="UTF-8"?>
<svg version="1.1" viewBox="0 0 330 250" xmlns="http://www.w3.org/2000/svg" xmlns:cc="http://creativecommons.org/ns#" xmlns:dc="http://purl.org/dc/elements/1.1/" xmlns:rdf="http://www.w3.org/1999/02/22-rdf-syntax-ns#">
<metadata>
<rdf:RDF>
<cc:Work rdf:about="">
<dc:format>image/svg+xml</dc:format>
<dc:type rdf:resource="http://purl.org/dc/dcmitype/StillImage"/>
<dc:title/>
</cc:Work>
</rdf:RDF>
</metadata>
<g transform="translate(-210 -322.36)">
<g transform="translate(2.9528)">
<path d="m237.52 464.7h-0.864c-4.272 5e-5 -7.608 1.08-10.008 3.24-2.352 2.112-3.528 5.88-3.528 11.304-1e-5 1.776 0.16799 3.024 0.504 3.744 0.33599 0.67203 0.50399 1.056 0.504 1.152-2.592 3e-5 -4.536-0.52797-5.832-1.584-1.248-1.104-1.872-2.904-1.872-5.4 0-3.408 0.83999-6.504 2.52-9.288 1.68-2.832 4.344-5.112 7.992-6.84 3.696-1.7279 8.376-2.5919 14.04-2.592 3.168 6e-5 6.576 0.28806 10.224 0.864 3.072 0.52806 5.808 0.79205 8.208 0.792 3.072 5e-5 5.856-0.50394 8.352-1.512-0.0961 3.12-0.88806 5.424-2.376 6.912-1.488 1.488-3.696 2.232-6.624 2.232-1.536 5e-5 -3.072-0.11995-4.608-0.36-1.536-0.23995-3.72-0.64795-6.552-1.224l-9.936 46.224h-10.368l10.224-47.664"/>
<path d="m261.1 512.65c-3.552 0-6.36-0.912-8.424-2.736-2.064-1.824-3.096-4.704-3.096-8.64 0-3.264 0.672-6.888 2.016-10.872 1.344-3.984 3.504-7.416 6.48-10.296 2.976-2.928 6.72-4.392 11.232-4.392 6.144 4e-5 9.216 3.84 9.216 11.52v0.072c0.14397 0.048 0.40797 0.072 0.792 0.072 1.584 3e-5 3.408-0.40797 5.472-1.224 2.064-0.86397 3.936-1.896 5.616-3.096l0.648 1.944c-1.392 1.488-3.216 2.76-5.472 3.816-2.208 1.008-4.632 1.728-7.272 2.16-0.38403 4.368-1.368 8.184-2.952 11.448-1.584 3.264-3.624 5.784-6.12 7.56-2.496 1.776-5.208 2.664-8.136 2.664m2.88-6.48c1.152 1e-5 2.304-0.64799 3.456-1.944 1.152-1.344 2.16-3.144 3.024-5.4 0.86397-2.304 1.488-4.848 1.872-7.632-1.296-0.28798-1.944-1.296-1.944-3.024-2e-5 -1.968 0.74398-3.264 2.232-3.888-0.096-1.584-0.33603-2.664-0.72-3.24-0.38403-0.62397-1.056-0.93597-2.016-0.936-1.584 3e-5 -3.12 1.152-4.608 3.456-1.488 2.304-2.688 5.064-3.6 8.28-0.91201 3.216-1.368 6.048-1.368 8.496-1e-5 2.304 0.26399 3.864 0.792 4.68 0.52798 0.76801 1.488 1.152 2.88 1.152"/>
<path d="m287.7 473.7h10.368l-1.152 5.4c2.4-2.064 5.208-3.096 8.424-3.096 2.688 4e-5 4.824 0.88804 6.408 2.664 1.584 1.776 2.376 4.68 2.376 8.712-3e-5 3.792-0.55203 7.632-1.656 11.52-1.104 3.84-2.976 7.128-5.616 9.864-2.64 2.688-6.12 4.032-10.44 4.032-3.072 0-5.112-0.864-6.12-2.592l-3.744 17.568-10.872 2.592 12.024-56.664m6.48 32.832c2.304 1e-5 4.2-1.08 5.688-3.24 1.536-2.16 2.64-4.728 3.312-7.704 0.71998-3.024 1.08-5.832 1.08-8.424-2e-5 -3.984-1.2-5.976-3.6-5.976-0.86402 3e-5 -1.752 0.31203-2.664 0.936-0.86401 0.62403-1.632 1.488-2.304 2.592l-4.248 20.16c0.38399 1.104 1.296 1.656 2.736 1.656"/>
<path d="m321.45 473.7h10.368l-1.152 5.4c2.4-2.064 5.208-3.096 8.424-3.096 2.688 4e-5 4.824 0.88804 6.408 2.664 1.584 1.776 2.376 4.68 2.376 8.712-3e-5 3.792-0.55203 7.632-1.656 11.52-1.104 3.84-2.976 7.128-5.616 9.864-2.64 2.688-6.12 4.032-10.44 4.032-3.072 0-5.112-0.864-6.12-2.592l-3.744 17.568-10.872 2.592 12.024-56.664m6.48 32.832c2.304 1e-5 4.2-1.08 5.688-3.24 1.536-2.16 2.64-4.728 3.312-7.704 0.71998-3.024 1.08-5.832 1.08-8.424-2e-5 -3.984-1.2-5.976-3.6-5.976-0.86402 3e-5 -1.752 0.31203-2.664 0.936-0.86401 0.62403-1.632 1.488-2.304 2.592l-4.248 20.16c0.38399 1.104 1.296 1.656 2.736 1.656"/>
<path d="m356.86 512.79c-2.304 0-4.176-0.72-5.616-2.16-1.392-1.44-2.088-3.6-2.088-6.48 0-1.2 0.192-2.76 0.576-4.68l7.704-36.072 10.656-1.44-8.28 38.88c-0.19201 0.72001-0.28801 1.488-0.288 2.304-1e-5 0.96001 0.21599 1.656 0.648 2.088 0.47999 0.38401 1.248 0.57601 2.304 0.576 1.392 1e-5 2.688-0.57599 3.888-1.728 1.2-1.2 2.064-2.736 2.592-4.608h3.024c-1.776 5.184-4.056 8.712-6.84 10.584-2.784 1.824-5.544 2.736-8.28 2.736"/>
<path d="m379.29 512.79c-3.552 0-6.312-0.912-8.28-2.736-1.968-1.872-2.952-4.776-2.952-8.712 0-3.312 0.648-6.96 1.944-10.944 1.296-3.984 3.408-7.416 6.336-10.296 2.928-2.928 6.648-4.392 11.16-4.392 5.28 4e-5 7.92 2.304 7.92 6.912-3e-5 2.688-0.76803 5.16-2.304 7.416-1.536 2.256-3.576 4.08-6.12 5.472-2.544 1.344-5.256 2.112-8.136 2.304-0.096 1.44-0.14401 2.4-0.144 2.88-1e-5 2.352 0.40799 3.96 1.224 4.824 0.81598 0.81601 2.136 1.224 3.96 1.224 2.592 1e-5 4.8-0.59999 6.624-1.8 1.872-1.2 3.912-3.024 6.12-5.472h2.448c-5.328 8.88-11.928 13.32-19.8 13.32m0.144-18.432c1.776-0.096 3.456-0.71998 5.04-1.872 1.632-1.152 2.928-2.616 3.888-4.392 1.008-1.776 1.512-3.648 1.512-5.616-3e-5 -1.968-0.60002-2.952-1.8-2.952-1.728 4e-5 -3.432 1.512-5.112 4.536-1.632 3.024-2.808 6.456-3.528 10.296"/>
<path d="m409.44 530.36c-2.304-2e-5 -4.224-0.60001-5.76-1.8-1.536-1.2-2.304-2.928-2.304-5.184 0-2.736 1.104-4.944 3.312-6.624 2.208-1.632 5.016-3 8.424-4.104l0.864-3.816c-2.448 2.64-5.328 3.96-8.64 3.96-2.736 0-5.016-0.936-6.84-2.808-1.824-1.872-2.736-4.8-2.736-8.784 0-3.552 0.696-7.272 2.088-11.16 1.44-3.936 3.552-7.248 6.336-9.936 2.832-2.736 6.192-4.104 10.08-4.104 1.968 4e-5 3.432 0.33604 4.392 1.008 0.95998 0.67204 1.44 1.56 1.44 2.664v0.432l0.792-3.744h10.368l-7.128 33.408c2.304-0.76799 4.152-1.92 5.544-3.456 1.392-1.536 2.568-3.816 3.528-6.84h3.024c-1.296 4.272-3.048 7.416-5.256 9.432-2.208 1.968-4.704 3.312-7.488 4.032l-1.08 5.184c-0.96002 4.656-2.616 7.848-4.968 9.576-2.352 1.776-5.016 2.664-7.992 2.664m0.576-24.552c1.104 1e-5 2.232-0.50399 3.384-1.512 1.152-1.008 1.944-2.376 2.376-4.104l3.672-17.064c-2e-5 -0.57597-0.24002-1.152-0.72-1.728-0.48002-0.62397-1.224-0.93597-2.232-0.936-1.92 3e-5 -3.648 1.128-5.184 3.384-1.536 2.208-2.736 4.896-3.6 8.064-0.86401 3.12-1.296 5.88-1.296 8.28-1e-5 2.4 0.33599 3.936 1.008 4.608 0.71999 0.67201 1.584 1.008 2.592 1.008m-2.232 18.936c0.81599-1e-5 1.608-0.55201 2.376-1.656 0.76799-1.104 1.368-2.688 1.8-4.752l0.432-2.088c-4.704 1.728-7.056 3.768-7.056 6.12-1e-5 0.62399 0.21599 1.176 0.648 1.656 0.43199 0.47999 1.032 0.71999 1.8 0.72"/>
<path d="m443.56 512.79c-3.552 0-6.312-0.912-8.28-2.736-1.968-1.872-2.952-4.776-2.952-8.712 0-3.312 0.648-6.96 1.944-10.944 1.296-3.984 3.408-7.416 6.336-10.296 2.928-2.928 6.648-4.392 11.16-4.392 5.28 4e-5 7.92 2.304 7.92 6.912-3e-5 2.688-0.76803 5.16-2.304 7.416-1.536 2.256-3.576 4.08-6.12 5.472-2.544 1.344-5.256 2.112-8.136 2.304-0.096 1.44-0.14401 2.4-0.144 2.88-1e-5 2.352 0.40799 3.96 1.224 4.824 0.81599 0.81601 2.136 1.224 3.96 1.224 2.592 1e-5 4.8-0.59999 6.624-1.8 1.872-1.2 3.912-3.024 6.12-5.472h2.448c-5.328 8.88-11.928 13.32-19.8 13.32m0.144-18.432c1.776-0.096 3.456-0.71998 5.04-1.872 1.632-1.152 2.928-2.616 3.888-4.392 1.008-1.776 1.512-3.648 1.512-5.616-2e-5 -1.968-0.60002-2.952-1.8-2.952-1.728 4e-5 -3.432 1.512-5.112 4.536-1.632 3.024-2.808 6.456-3.528 10.296"/>
<path d="m472.99 472.47c-1.584 4e-5 -2.928-0.55196-4.032-1.656-1.104-1.104-1.656-2.448-1.656-4.032-1e-5 -1.584 0.55199-2.928 1.656-4.032 1.104-1.152 2.448-1.728 4.032-1.728 1.584 5e-5 2.928 0.57605 4.032 1.728 1.152 1.104 1.728 2.448 1.728 4.032-2e-5 1.584-0.57602 2.928-1.728 4.032-1.104 1.104-2.448 1.656-4.032 1.656m-4.896 40.32c-2.304 0-4.176-0.72-5.616-2.16-1.392-1.44-2.088-3.6-2.088-6.48 0-1.2 0.192-2.76 0.576-4.68l4.896-23.112h10.368l-5.184 24.48c-0.19201 0.72001-0.28801 1.488-0.288 2.304-1e-5 0.96001 0.21599 1.656 0.648 2.088 0.47998 0.38401 1.248 0.57601 2.304 0.576 1.392 1e-5 2.688-0.57599 3.888-1.728 1.2-1.2 2.064-2.736 2.592-4.608h3.024c-1.776 5.184-4.056 8.712-6.84 10.584-2.784 1.824-5.544 2.736-8.28 2.736"/>
<path d="m488.44 512.79c-2.304 0-4.248-0.432-5.832-1.296-1.584-0.912-2.76-2.064-3.528-3.456-0.768-1.44-1.152-2.928-1.152-4.464 0-1.584 0.384-2.952 1.152-4.104 0.72-1.2 1.608-2.064 2.664-2.592 1.872-3.36 3.504-6.744 4.896-10.152 1.392-3.456 2.712-7.176 3.96-11.16l10.656-1.44c0.23998 6.144 0.64798 12.792 1.224 19.944 0.23998 2.88 0.35998 4.968 0.36 6.264-2e-5 1.104-0.096 2.016-0.288 2.736 2.256-1.296 3.984-2.496 5.184-3.6h3.024c-3.072 3.552-6.744 6.552-11.016 9-1.392 1.488-3.12 2.592-5.184 3.312-2.016 0.672-4.056 1.008-6.12 1.008m-2.304-5.688c1.776 1e-5 3.264-0.52799 4.464-1.584 1.2-1.056 1.8-2.76 1.8-5.112-1e-5 -1.44-0.14401-3.456-0.432-6.048-0.48001-5.472-0.79201-9.144-0.936-11.016-1.152 3.792-3.096 8.328-5.832 13.608 1.104 0.57602 1.656 1.416 1.656 2.52-1e-5 0.91201-0.31201 1.728-0.936 2.448-0.576 0.72001-1.32 1.08-2.232 1.08-1.008 1e-5 -1.656-0.31199-1.944-0.936 0 1.728 0.336 3 1.008 3.816 0.72 0.81601 1.848 1.224 3.384 1.224"/>
<path d="m514.56 512.79c-2.448 0-4.272-0.744-5.472-2.232-1.152-1.488-1.728-3.456-1.728-5.904 0-1.248 0.144-2.52 0.432-3.816l4.608-21.6h-2.376l0.576-2.88h2.376l2.16-9.936 10.656-1.44c-0.43202 1.824-0.67202 2.904-0.72 3.24-0.33602 1.344-0.91202 4.056-1.728 8.136h4.32l-0.576 2.88h-4.32l-4.608 21.6c-0.24001 1.056-0.36001 1.896-0.36 2.52-1e-5 1.728 0.83999 2.592 2.52 2.592 0.86399 1e-5 1.488-0.072 1.872-0.216-0.96001 2.784-2.088 4.656-3.384 5.616-1.296 0.96-2.712 1.44-4.248 1.44"/>
</g>
<g transform="matrix(.039238 0 0 .039238 246.14 337.74)">
<path d="m2666.9 2834.3c-2.3047-3.7289 17.98-39.926 45.077-80.437 57.518-85.992 111.62-187.33 144.51-270.69 26.881-68.127 66.458-202.03 73.368-248.23l4.7232-31.577-46.627 30.163c-220.52 142.65-545.77 232.5-939.93 259.64-130.39 8.9784-187.14 7.143-187.14-6.0528 0-5.0762 46.389-42.438 103.09-83.026 118.02-84.487 175.86-130.37 277.76-220.34 107.8-95.177 293.19-289.43 284.51-298.11-1.6525-1.6526-32.362 2.6004-68.243 9.451-35.881 6.8506-98.476 16.042-139.1 20.426-96.152 10.376-305.3 4.8924-389.06-10.2-103.51-18.652-109.68-29.776-34.473-62.175 153.81-66.258 300.47-155.43 402.19-244.52 58.563-51.297 131.33-126.76 131.33-136.19 0-3.0454-15.513-9.1253-34.473-13.511-136.43-31.558-318.2-108.42-434.39-183.69-76.8-49.752-81.603-62.829-25.252-68.763 343.4-36.162 614.41-196.91 1042.9-618.58 54.436-53.572 206.3-207.62 337.48-342.34 247.08-253.74 311.95-311.19 423.42-374.97 496.26-283.94 1038.8-17.933 1166.9 572.09 19.365 89.231 24.085 290.59 9.2014 392.55-45.347 310.64-233.89 749.43-487.56 1134.7-193.47 293.83-449.55 588.15-716.81 823.88-38.764 34.19-63.755 41.152-58.354 16.257 1.7628-8.1258 13.634-54.664 26.379-103.42 32.885-125.79 44.176-200.63 44.176-292.8v-80.364l-90.287 90.277c-95.385 95.375-165.64 148.72-280.71 213.12-120.1 67.222-294.53 136.14-484.86 191.58-84.559 24.628-93.385 26.033-99.669 15.866zm1666-1347c69.706-58.399 127.99-107.17 129.51-108.38 2.8252-2.2416-23.804-267.32-31.417-312.73l-4.1856-24.97-86.195 72.576c-81.204 68.373-101.69 80.744-110.39 66.664-2.0096-3.2515-8.2767-51.268-13.927-106.7-5.6504-55.435-12.31-106.04-14.799-112.45-3.7775-9.7336-19.388 0.85256-94.404 64.021-87.452 73.641-105.58 84.535-112.15 67.411-1.7459-4.5496-8.3798-59.953-14.742-123.12-6.3623-63.165-13.481-117.02-15.819-119.68s-43.326 27.527-91.083 67.075c-54.966 45.517-90.424 70.527-96.619 68.149-5.3834-2.0658-9.7879-5.629-9.7879-7.9182 0-13.406-28.13-260.77-29.871-262.68-6.474-7.0871-265.61 215.25-265.62 227.9-0.01 17.846 33.802 319.25 36.068 321.53 1.1537 1.1647 40.945-30.6 88.424-70.588 47.48-39.988 89.022-72.705 92.316-72.705 12.557 0 18.312 26.467 29.268 134.61 6.2202 61.395 13.311 118.51 15.758 126.92 4.1707 14.333 10.103 10.54 94.999-60.738 49.803-41.814 94.731-76.026 99.84-76.026 12.091 0 13.93 9.0073 28.55 139.88 6.7792 60.683 13.861 111.87 15.738 113.74 1.8767 1.8768 42.259-29.305 89.739-69.293 47.48-39.988 90.287-72.705 95.127-72.705 12.934 0 14.487 7.3051 27.004 127.01 6.2901 60.158 13.797 109.38 16.681 109.38 2.8844 0 62.277-47.781 131.98-106.18zm215.38-669.16c53.138-24.026 91.76-71.816 101.95-126.16l4.5561-24.286-23.496 9.8172c-31.78 13.278-53.934 12.352-86.964-3.6379-61.817-29.925-77.366-108.92-32.042-162.78l16.193-19.245-14.724-3.9464c-67.241-18.021-156.27 24.166-189.83 89.957-19.56 38.342-23.485 101.35-8.7201 140.02 35.356 92.578 145.39 139.91 233.07 100.27zm-443.23-228.43c40.156-18.305 69.247-46.197 86.236-82.682 18.757-40.281 19.846-52.697 4.0506-46.178-51.77 21.366-96.038 13.342-129.26-23.429-41.947-46.43-37.846-105.37 10.193-146.48l26.738-22.887-25.245-7.0098c-34.291-9.5216-52.911-8.884-93.623 3.206-70.036 20.799-120.17 88.311-120.72 162.58-0.7466 100.47 72.976 175.34 172.33 175 27.391-0.0919 52.581-4.4965 69.299-12.117z"/>
<path d="m2670.3 2829.1c0-2.9758 10.529-19.966 23.397-37.756 75.468-104.33 152.88-256.59 195.62-384.74 25.743-77.194 54.774-200.07 48.704-206.14-2.2309-2.2308-21.521 7.804-42.867 22.3-172.21 116.95-451.09 208.27-753.44 246.74-189.01 24.043-371 31.391-371 14.978 0-4.7248 37.314-34.696 82.921-66.603 99.207-69.406 191.29-141.86 284.79-224.07 110.73-97.37 309.61-306.03 300.42-315.21-1.9267-1.9267-34.114 2.3157-71.526 9.4274-120.79 22.96-190.41 29.498-310.98 29.201-147.86-0.3644-310.29-23.226-303.78-42.754 1.3211-3.9633 42.141-25.477 90.711-47.808 102.47-47.111 185.19-94.306 270.59-154.37 69.155-48.644 234.26-207.06 224.56-215.46-3.4623-2.9974-37.849-13.238-76.415-22.756-135.42-33.423-306.26-108.21-405.49-177.5-72.341-50.519-72.613-50.052 36.773-63.104 221.49-26.429 452.14-141.28 704.06-350.6 123.34-102.48 283.58-257.58 556.16-538.3 278.93-287.26 331.08-336.39 423.19-398.61 336.91-227.61 716.5-203.32 981.4 62.796 236.66 237.74 319.82 613.41 222.32 1004.2-51.392 205.99-173.44 498.87-308.72 740.81-194.7 348.23-481.47 712.16-776.98 986.05-99.78 92.48-127.52 114.51-134.9 107.13-2.207-2.207 4.9851-37.538 15.982-78.514 37.848-141.02 47.809-200.91 51.434-309.25 3.896-116.44 0.5516-123.86-34.386-76.286-10.834 14.753-51.64 57.494-90.68 94.982-158.09 151.81-382.44 268.84-697.49 363.85-107.44 32.401-134.4 37.89-134.4 27.358zm1673.6-1344c64.885-54.172 119.72-102.56 121.86-107.53 4.6443-10.8-28.696-330.23-35.212-337.37-2.4901-2.7261-43.153 27.561-90.362 67.305s-90.497 72.261-96.195 72.261c-12.171 0-13.732-7.8481-27.337-137.38-5.4702-52.082-11.338-96.087-13.04-97.789-3.68-3.68-4.1465-3.3175-106.17 82.498-77.286 65.008-89.865 73.114-96.586 62.238-1.7222-2.7866-7.82-47.848-13.551-100.14-14.969-136.58-17.139-150.88-22.897-150.88-2.8421 0-44.374 32.749-92.293 72.776-59.836 49.981-89.246 70.655-93.896 66.005-3.7238-3.7238-13.068-65.065-20.766-136.31-7.6974-71.249-16.918-130.52-20.49-131.71-5.6784-1.8928-217.57 171.21-257.53 210.39l-14.895 14.603 17.494 163.89c9.6216 90.138 19.686 166.36 22.366 169.39s43.938-27.401 91.685-67.614c47.747-40.213 90.185-72.005 94.307-70.649 7.4141 2.4394 14.276 46.944 30.339 196.78 4.5492 42.435 10.632 77.154 13.517 77.154s45.556-33.981 94.824-75.512c49.268-41.532 92.18-75.512 95.361-75.512s7.3938 2.6066 9.3627 5.7924c3.0222 4.89 30.027 224.07 30.027 243.71 0 14.592 16.683 3.506 98.788-65.643 47.169-39.726 88.386-72.229 91.594-72.229 10.692 0 13.169 11.369 23.118 106.12 5.4371 51.782 11.492 103.88 13.455 115.78l3.5697 21.632 15.794-11.782c8.6866-6.4802 68.881-56.105 133.77-110.28zm200.17-660.16c34.441-12.886 77.69-50.775 95.108-83.321 9.4269-17.614 20.683-68.679 16.597-75.291-1.786-2.8898-11.797-0.83274-22.248 4.5713-54.882 28.38-129.91-10.142-141.65-72.73-5.3006-28.255 11.868-77.306 31.992-91.402 40.438-28.324-65.497-37.176-121.89-10.186-79.496 38.047-122.52 138.46-93.804 218.96 35.231 98.771 137.52 146.21 235.9 109.4zm-447.58-226.65c40.737-13.88 79.415-48.586 99.85-89.594 15.98-32.068 22.976-68.531 12.071-62.918-55.336 28.484-87.464 30.185-119.68 6.3349-60.296-44.636-61.526-115.77-2.8369-164.15l23.856-19.664-15.242-8.1575c-21.164-11.327-96.215-10.062-125.04 2.1077-93.492 39.468-138.23 157.12-93.715 246.45 40.572 81.418 133.75 119.24 220.74 89.594z"/>
<path d="m2679.8 2827.4c-2.0503-3.3175 16.756-36.665 41.792-74.105 104.52-156.3 171.87-314.28 211.59-496.28 7.343-33.645 11.88-62.644 10.081-64.442s-29.24 13.634-60.981 34.293c-168.26 109.52-416.24 192.63-694.64 232.82-167.32 24.154-405.48 40.037-413.19 27.556-2.5245-4.0846 8.8737-16.361 26.549-28.594 188.29-130.31 326.71-244.13 465.32-382.58 101.2-101.08 185.88-197.27 179.39-203.76-1.7093-1.7093-30.925 2.751-64.924 9.9118-165.69 34.897-388.43 41.852-537.87 16.793-105.94-17.763-107.49-20.471-31.19-54.284 151.3-67.047 272.37-140.56 380.24-230.88 65.223-54.61 149.79-142.6 149.91-155.99 0.039-4.1519-22.69-12.613-50.51-18.802-67.597-15.039-172.84-50.283-245.08-82.071-101.22-44.542-235.96-125.7-236.13-142.22-0.047-4.6879 17.208-9.406 44.245-12.097 258.83-25.766 498.93-146.69 796.16-400.99 76.813-65.716 369.41-355.1 653.72-646.53 175.4-179.8 252.85-243.44 369.57-303.68 131.27-67.752 241.94-96.585 370.71-96.585 158.94 0 302.53 48.124 429.86 144.07 133.26 100.42 231.67 242.58 290.61 419.83 33.641 101.16 45.955 173.5 50.443 296.31 5.9334 162.38-15.094 297.92-74.867 482.59-191.73 592.36-602.04 1204.4-1112.7 1659.6-47.451 42.305-64.645 52.32-64.645 37.652 0-3.6687 10.149-45.927 22.554-93.908 38.323-148.23 54.881-272.21 46.638-349.18-2.5158-23.492-6.8321-42.713-9.5918-42.713-2.7596 0-24.944 23.613-49.298 52.472-144.22 170.9-365.19 303.31-680.07 407.52-149.69 49.542-209.09 65.725-213.72 58.232zm1656.7-1333.1c155.03-130.74 140.34-96.003 119.82-283.25-18.406-167.92-19.633-175.78-27.444-175.78-3.8265 0-41.175 28.81-82.996 64.021-95.055 80.032-99.527 83.242-106.28 76.272-3.0282-3.1266-10.759-55.224-17.179-115.77-6.4203-60.548-13.727-113.41-16.238-117.47-2.8624-4.6316-38.301 21.116-95.036 69.048-49.759 42.038-94.191 76.433-98.737 76.433-11.738 0-13.634-9.796-26.06-134.61-6.112-61.395-13.557-114.32-16.544-117.61-3.1089-3.4237-38.534 21.851-82.842 59.105-103.26 86.823-100.04 84.479-106.85 77.596-4.7531-4.803-32.943-229.86-32.943-263 0-4.8897-3.031-8.8904-6.7354-8.8904-3.7045 0-67.234 50.797-141.18 112.88-121.64 102.14-134.44 114.82-134.44 133.22 0 37.775 32.932 321.33 37.896 326.29 2.7073 2.7073 43.304-27.43 90.216-66.972 46.912-39.542 88.931-71.928 93.376-71.97 10.707-0.099 12.372 9.1448 26.942 149.52 6.8531 66.027 14.22 121.81 16.371 123.96 2.1508 2.1509 44.07-29.71 93.155-70.801s94.26-74.712 100.39-74.712c9.6023 0 13.031 17.038 24.761 123.05 7.4887 67.68 15.544 124.98 17.9 127.34 2.3561 2.3562 24.3-12.417 48.764-32.83 24.464-20.413 64.409-53.66 88.767-73.882 24.358-20.223 48.156-35.284 52.884-33.469 5.9572 2.286 12.304 38.801 20.67 118.91 7.6244 73.013 14.752 115.59 19.345 115.55 3.9997-0.033 67.108-50.515 140.24-112.19zm234.8-678.68c49.238-28.855 88.595-91.113 88.595-140.15 0-13.565-2.2576-15.322-14.774-11.497-59.251 18.107-61.959 18.243-92.689 4.6493-36.995-16.365-56.636-45.9-56.67-85.218-0.026-31.88 7.101-48.862 31.489-75.012 9.2271-9.8938 14.714-20.052 12.192-22.573-8.6985-8.6985-83.545-10.269-111.84-2.3461-42.55 11.913-89.093 50.376-110.47 91.29-34.598 66.228-21.934 156.07 29.59 209.92 56.54 59.093 153.69 72.474 224.57 30.932zm-490.83-209.44c42.116-10.925 80.404-36.813 103.29-69.838 18.425-26.587 38.361-83.217 32.586-92.562-1.8905-3.0588-12.933 0.22851-24.539 7.3052-40.81 24.883-109.9 10.038-130.25-27.984-29.685-55.467-15.272-107.09 40.215-144.03l16.403-10.92-24.413-10.42c-52.241-22.298-126.94-8.0906-175.36 33.353-110.61 94.679-69.853 276.99 70.363 314.73 40.425 10.881 50.984 10.923 91.702 0.36049z"/>
<path d="m2683.4 2820.9c0-3.8672 12.944-25.29 28.763-47.606 98.792-139.36 182.91-330.82 221.22-503.5 20.209-91.095 19.113-92.581-39.131-53.028-201.84 137.07-524.2 230.86-903.6 262.92-100.1 8.4581-215.43 8.8211-210.39 0.6623 2.0841-3.3722 38.455-30.661 80.825-60.642 128.69-91.06 268.66-207 375.16-310.76 125.42-122.18 224.66-235.46 208.94-238.49-6.026-1.1606-41.323 3.8963-78.438 11.238-121.23 23.978-177.19 29.169-310.43 28.794-101.26-0.2849-149.14-3.4455-209.14-13.806-42.797-7.3897-79.535-15.159-81.641-17.265-6.7457-6.7457 6.9397-14.935 77.374-46.299 88.961-39.614 190.74-97.468 269.03-152.93 87.059-61.669 246.57-216.82 234.9-228.49-1.7068-1.7066-32.316-10.209-68.021-18.894-90.318-21.97-189.98-57.728-275.04-98.679-79.784-38.412-196.29-112.03-190.96-120.65 1.8727-3.03 24.59-7.4781 50.483-9.8846 199.15-18.509 410.72-109.74 627.52-270.6 167.97-124.63 312.41-261.33 783.9-741.91 231.7-236.17 275.07-272.44 407.12-340.58 314.13-162.07 642.34-113.55 877.69 129.74 147.08 152.05 227.43 335.78 251.76 575.73 20.636 203.52-20.397 420.15-134.95 712.44-147.11 375.39-358.7 725.9-644.58 1067.8-137.52 164.47-449.03 474.68-462.59 460.65-2.6939-2.787 2.4032-31.661 11.327-64.164 36.875-134.31 49.183-207.37 52.55-311.9 3.9308-122.06-0.3283-134.74-31.963-95.211-170.49 213.06-429.61 363.14-828 479.59-85.997 25.138-89.687 25.783-89.687 15.697zm1646.2-1316.9c71.511-60.049 133.87-112.76 138.57-117.13 7.0143-6.5209 5.4998-36.82-8.41-168.25-18.652-176.23-20.737-189.84-29.086-189.84-3.1398 0-44.573 32.773-92.074 72.828s-90.227 71.346-94.946 69.535c-5.3837-2.0659-10.193-21.251-12.908-51.488-11.666-129.94-19.498-182.8-27.083-182.8-4.3535 0-48.167 33.981-97.362 75.513-49.196 41.532-92.171 75.512-95.5 75.512-6.9627 0-9.924-18.814-24.288-154.31-5.743-54.172-12.632-100.74-15.309-103.49-2.6769-2.7495-43.851 27.779-91.497 67.842-47.647 40.063-90.311 71.619-94.809 70.125-5.4913-1.8236-12.792-45.342-22.219-132.44-7.7221-71.35-16.653-132.34-19.847-135.53-5.0832-5.0832-253.63 197.12-276.37 224.84-6.6133 8.0611-4.9366 40.495 8.6293 166.92 19.277 179.65 20.363 186.47 29.72 186.47 3.7999 0 45.516-32.69 92.702-72.644s88.301-70.136 91.366-67.071c3.0651 3.065 12.264 64.327 20.442 136.14 8.996 78.995 17.804 131.54 22.299 133.02 4.0865 1.351 48.057-31.654 97.711-73.344s92.521-75.8 95.259-75.8c6.5738 0 10.116 22.474 23.285 147.74 6.0749 57.783 13.232 107.47 15.904 110.41 2.6726 2.9394 45.393-28.825 94.935-70.588 49.542-41.763 92.608-75.932 95.703-75.932 3.0949 0 7.2662 12.558 9.2694 27.907 4.0904 31.342 23.428 205.87 23.428 211.45 0 11.562 25.336-7.2127 142.48-105.58zm209.42-671.06c40.87-14.128 66.938-34.58 93.523-73.376 21.982-32.078 38.414-90.06 28.37-100.1-3.7225-3.7224-13.869-2.0444-26.202 4.3332-55.343 28.619-124.83-4.9038-136.24-65.727-5.947-31.701 0.8379-51.837 27.356-81.19l23.19-25.668-15.148-8.1756c-24.976-13.479-89.506-9.9017-128.61 7.1302-45.227 19.698-89.867 68.873-103.16 113.64-12.424 41.836-12.488 65.917-0.2824 107.02 30.34 102.17 136.63 156.89 237.21 122.12zm-442.48-228.04c37.026-12.616 78.937-47.738 100.14-83.915 16.285-27.791 29.35-83.169 19.621-83.169-2.9328 0-18.275 6.2654-34.094 13.923-108.83 52.683-188.02-104.29-83.67-165.85 12.608-7.4386 22.923-14.861 22.923-16.494 0-9.2228-51.295-21.929-86.793-21.499-76.938 0.93174-129.92 33.646-162.86 100.56-19.632 39.878-21.055 47.07-18.179 91.886 2.3685 36.906 7.3128 55.775 20.52 78.313 46.356 79.1 138.5 114.84 222.4 86.251z"/>
<path d="m2687.5 2814.1c3.1893-5.0529 25.431-38.735 49.425-74.85 101.47-152.73 169.16-322.28 212.81-533.11 5.3067-25.627-10.066-23.584-56.386 7.4941-194.31 130.37-481.25 219.48-823.85 255.86-123.75 13.14-285.63 20.42-285.63 12.846 0-3.3045 34.719-30.132 77.154-59.617 199.33-138.5 404.52-322.09 545.23-487.85 49.799-58.663 57.975-76.23 32.608-70.059-204.86 49.834-434.36 57.021-643.5 20.151-13.543-2.3875-24.624-7.0719-24.624-10.41 0-3.3377 16.99-13.566 37.756-22.729 127.63-56.319 245.83-123.98 337.97-193.44 68.578-51.706 203.63-186.88 200.86-201.05-1.4546-7.4638-26.139-16.675-86.179-32.16-153.92-39.694-325.02-116.93-424.2-191.5-20.293-15.255-21.234-17.339-9.8494-21.801 6.9234-2.7137 23.943-5.1416 37.822-5.3954 38.449-0.7033 151.61-25.188 217.72-47.11 74.394-24.668 198.28-84.178 277.82-133.45 207.42-128.5 354.32-263.06 960.12-879.47 165.13-168.03 242.36-231.01 355-289.54 129.24-67.152 243.55-96.996 370.53-96.743 197.55 0.39489 365.26 72.213 509.38 218.13 165.99 168.06 255.45 404.21 255.45 674.32 0 157.27-22.363 283.64-82.278 464.94-195.01 590.09-604.95 1193.2-1124.5 1654.4-15.444 13.71-29.748 23.26-31.786 21.222-2.0383-2.0383 6.8004-44.559 19.642-94.491 32.779-127.46 44.719-208.89 44.92-306.35 0.1845-89.776-6.2903-112.22-24.946-86.483-146.24 201.77-411.9 364.89-779.74 478.76-114.11 35.324-153.56 43.352-144.79 29.468zm1649.5-1313.3c73.385-61.735 135.16-116.75 137.27-122.26 4.7673-12.423-30.155-344.59-36.97-351.63-5.5897-5.7822-17.779 3.0729-105.69 76.779-34.309 28.766-67.569 56.648-73.911 61.96-6.3422 5.3117-12.908 8.2815-14.59 6.5994-1.682-1.682-7.593-44.263-13.136-94.624-15.036-136.62-16.783-147.38-23.926-147.38-3.6103 0-46.918 33.981-96.24 75.513s-92.967 75.512-96.99 75.512c-4.6106 0-11.491-39.438-18.616-106.7-14.206-134.13-16.887-149.44-26.112-149.15-4.1124 0.12936-45.826 32.632-92.696 72.229-46.87 39.597-87.122 71.995-89.448 71.995-5.4761 0-9.1991-25.545-23.315-159.97-7.6194-72.56-14.424-111.8-19.743-113.84-4.4639-1.713-70.325 49.184-146.36 113.11-134.2 112.83-138.23 116.92-137.78 140.1 0.2547 13.136 8.3805 93.321 18.057 178.19 12.327 108.11 20.01 154.31 25.663 154.31 4.438 0 45.271-31.026 90.739-68.946 45.468-37.92 86.16-68.946 90.425-68.946 5.2074 0 12.64 43.069 22.624 131.09 8.1779 72.101 17.613 133.84 20.968 137.19 3.7542 3.7542 40.406-22.661 95.341-68.713 88.51-74.198 108.44-87.117 108.55-70.368 0.033 4.7791 5.9413 61.606 13.133 126.28 7.1913 64.676 13.075 118.6 13.075 119.84 0 11.26 29.408-8.9081 101.78-69.8 83.493-70.251 101.78-81.643 101.78-63.412 0 15.802 19.833 197.25 23.239 212.61 1.802 8.1258 6.9135 14.755 11.359 14.731 4.4455-0.026 68.125-50.554 141.51-112.29zm206.49-666.27c57.959-19.749 108.5-79.692 119.96-142.27 7.5659-41.33 2.317-45.704-35.613-29.679-29.207 12.34-35.857 12.963-60.263 5.6511-70.603-21.153-90.395-101.25-37.974-153.67 10.696-10.696 17.977-23.28 16.179-27.965-4.292-11.185-56.376-18.714-93.888-13.572-64.141 8.7916-129.17 61.427-149.46 120.98-12.384 36.345-12.764 94.342-0.8374 127.76 17.374 48.685 65.051 96.362 113.74 113.74 33.55 11.973 91.459 11.532 128.16-0.97411zm-441.92-229.25c37.21-13.129 75.744-44.656 95.157-77.857 18.148-31.037 31.828-83.732 23.817-91.744-2.9484-2.9487-15.358 0.73372-27.578 8.1833-28.984 17.67-72.933 17.816-101.22 0.33488-20.61-12.737-42.477-52.238-42.477-76.729 0-25.226 26.756-65.461 53.544-80.516 25.458-14.308 26.464-15.926 15.077-24.252-6.7102-4.9066-22.679-11.832-35.486-15.39-128.61-35.728-257.7 87.148-230.29 219.19 12.937 62.318 62.307 119.33 121.64 140.49 29.066 10.361 96.144 9.4637 127.81-1.7089z"/>
<path d="m2690 2817.6c0-2.0614 12.937-22.007 28.749-44.323 95.564-134.87 171.88-305.67 214.65-480.35 19.543-79.824 23.737-115.08 13.69-115.08-3.0586 0-30.35 16.592-60.648 36.872-181.17 121.27-463.27 210.3-787.41 248.51-109.96 12.963-314.63 20.983-305.33 11.965 3.6115-3.5041 41.252-30.874 83.646-60.821 207.4-146.51 399.71-320.84 545.08-494.11 20.766-24.752 37.756-48.221 37.756-52.153 0-8.2648-23.502-5.7587-124.76 13.304-102.76 19.346-241.06 29.607-331.6 24.603-89.746-4.9601-213.88-21.799-222.43-30.175-3.2256-3.157 18.376-16.551 49.247-30.536 189.91-86.026 323.76-176.26 449.43-302.96 62.112-62.623 78.143-83.042 72.441-92.267-2.0597-3.3328-31.105-12.689-64.545-20.791-142.15-34.442-301.22-101-410.51-171.77-29.78-19.283-54.157-36.932-54.172-39.22-0.014-2.2879 19.919-6.2145 44.296-8.7257 206.32-21.254 423.97-117.8 648.3-287.59 157.42-119.14 332.83-285.58 678.05-643.36 285.41-295.8 354.79-355.23 499.53-427.93 305.58-153.47 623.08-106.47 855.4 126.64 96.856 97.182 161.32 202.85 206.19 337.98 80.411 242.17 72.204 492.2-25.896 788.95-184.07 556.8-526.06 1087-993.73 1540.6-116.9 113.39-159 149.4-158.93 135.97 0.026-4.8179 10.168-48.872 22.542-97.899s27.129-120.32 32.788-158.43c11.861-79.878 13.522-192.9 3.2313-219.85l-7.0578-18.485-19.961 22.982c-110.42 127.13-158.48 171.12-264.69 242.25-143.81 96.312-338.01 180.36-578.81 250.51-71.183 20.736-74.533 21.44-74.533 15.666zm1640.2-1306.6c71.184-59.794 134.64-115.23 141.02-123.18 11.116-13.868 10.904-20.856-5.1277-168.71-21.085-194.47-21.494-196.92-32.751-196.92-5.0992 0-48.014 32.792-95.367 72.87-47.353 40.079-88.108 70.896-90.567 68.484s-10.381-55.117-17.604-117.12c-10.69-91.764-15.102-113.11-23.722-114.76-5.9139-1.1289-50.468 31.595-100.91 74.118-49.677 41.877-91.739 74.723-93.471 72.99s-8.7164-54.324-15.521-116.87c-13.771-126.59-16.735-143.27-25.46-143.27-3.3177 0-44.419 32.503-91.335 72.229s-88.005 72.229-91.308 72.229c-3.3024 0-11.185-50.971-17.517-113.27-13.203-129.89-17.849-157.39-27.114-160.48-6.6968-2.2323-278.02 222.25-286.44 236.99-2.4969 4.3715 2.5832 74.265 11.289 155.32 21.759 202.58 21.859 203.18 33.726 203.18 5.5671 0 46.931-31.026 91.92-68.946s84.442-68.946 87.673-68.946c7.4201 0 10.558 19.348 22.895 141.18 12.083 119.32 13.908 128.04 26.786 128.04 5.5712 0 50.424-34.042 99.673-75.65 60.905-51.455 90.954-72.981 93.952-67.305 2.4247 4.5898 9.6669 60.798 16.094 124.91 7.2494 72.314 14.811 119.16 19.92 123.4 6.1142 5.0745 31.525-12.657 98.696-68.868 49.754-41.636 91.743-74.421 93.309-72.855 1.566 1.566 8.4459 52.497 15.289 113.18 13.462 119.39 14.944 126.75 25.516 126.75 3.8678 0 65.273-48.922 136.46-108.72zm201.25-668.94c67.46-20.302 113.94-70.16 132.33-141.95 12.901-50.359 7.0269-59.838-27.022-43.601-47.339 22.575-102.8 7.2898-124.28-34.251-19.413-37.541-10.096-78.658 25.323-111.75 9.3718-8.7554 17.04-18.432 17.04-21.503 0-10.148-35.508-19.353-75.621-19.603-91.848-0.57258-169.68 63.506-188.01 154.79-18.511 92.173 35.631 183.22 127.92 215.11 41.485 14.336 71.404 15.07 112.32 2.7556zm-437.82-230.42c65.345-19.405 132.89-102.34 132.89-163.17 0-23.403-6.1423-24.632-35.914-7.1845-31.567 18.5-53.363 20.213-85.629 6.7316-64.905-27.119-64.483-131.44 0.6408-158.65 46.731-19.526 9.1571-47.12-65.475-48.085-50.698-0.65551-81.318 9.1238-119.32 38.108-63.843 48.692-90.447 135.2-65.073 211.59 15.954 48.032 73.238 105.92 118.59 119.85 42.006 12.896 77.779 13.139 119.29 0.81002z"/>
<path d="m2703.3 2809.4c0.059-2.4785 18.015-31.1 39.897-63.603 48.158-71.533 128.62-234.22 155.88-315.18 40.288-119.65 67.317-247.63 54.032-255.84-4.0825-2.5231-35.693 13.726-70.246 36.11-203.06 131.55-492.75 219.19-833.02 252.01-144.43 13.934-248.18 18.846-243.66 11.535 2.111-3.4157 37.114-29.774 77.784-58.573 206.84-146.47 395.74-318.21 545.42-495.87 20.579-24.426 37.416-48.804 37.416-54.172 0-12.694-12.185-12.317-86.281 2.6704-123.15 24.909-179.21 30.25-317.55 30.25-126.81 0-223.01-8.2454-261.25-22.394-11.118-4.1129 4.1387-13.694 81.097-50.928 170.54-82.508 287.37-164.29 404.53-283.16 61.342-62.241 81.088-88.802 72.443-97.448-1.7328-1.7327-41.154-13.061-87.603-25.174s-106.61-29.939-133.7-39.613c-64.004-22.861-208.29-93.523-262.65-128.63-36.94-23.855-40.914-28.259-29.548-32.736 7.2229-2.8453 21.533-5.381 31.8-5.6348 10.267-0.2541 47.688-6.3756 83.158-13.604 229.76-46.823 451.07-172.27 722.25-409.39 81.046-70.87 330.61-318.27 611.07-605.76 95.484-97.88 198.72-197.25 229.42-220.81 161.47-123.96 317.89-186.22 486.54-193.64 174.55-7.6837 322.75 37.836 457.27 140.45 274.49 209.39 393.63 593.64 309.95 999.67-38.314 185.92-137.89 447.68-259.73 682.78-176.66 340.88-414.97 670.09-690.42 953.81-96.173 99.058-237.6 231.37-242.29 226.68-1.5555-1.5556 6.0269-37.906 16.85-80.779 10.823-42.873 24.146-103.57 29.606-134.88 20.126-115.42 19.713-266.11-0.7467-272.92-4.33-1.4403-14.672 5.5183-22.982 15.464-151.46 181.26-278.18 275.38-507.59 377.01-120.48 53.373-397.47 145.65-397.14 132.31zm1637.3-1301.5c77.629-65.108 142.13-123.47 143.34-129.68 2.3957-12.324-32.077-341.02-37.167-354.4-6.5324-17.16-25.232-6.0428-108.77 64.663-47.353 40.079-87.356 71.611-88.895 70.071s-7.2747-45.412-12.745-97.494c-14.051-133.78-14.82-137.38-29.402-137.38-6.8343 0-50.812 32.503-97.729 72.229-46.917 39.726-88.017 72.229-91.334 72.229-3.3171 0-11.362-50.971-17.878-113.27-11.946-114.22-17.685-142.82-28.662-142.82-3.298 0-44.916 32.819-92.484 72.931-47.568 40.112-87.773 71.646-89.343 70.075-1.5709-1.5709-9.1485-60.245-16.839-130.39-8.3865-76.488-17.355-131.13-22.408-136.54-10.666-11.402-1.6322-17.964-166.09 120.63-129.84 109.43-132.46 112.12-132.46 136.84-0.01 28.786 31.657 325.1 36.074 337.57 6.2705 17.713 27.496 5.57 106.16-60.738 44.989-37.92 83.988-68.946 86.664-68.946 2.6763 0 10.063 49.494 16.414 109.99 16.578 157.89 16.844 159.23 31.605 159.23 6.9286 0 51-32.503 97.936-72.229 46.936-39.726 88.167-72.229 91.624-72.229 3.4572 0 6.3271 5.171 6.3777 11.491 0.2068 25.83 25.734 232.01 29.475 238.06 2.222 3.5953 6.709 6.5369 9.9711 6.5369s44.699-32.503 92.082-72.229c47.383-39.726 88.862-72.229 92.176-72.229s6.0248 4.0516 6.0248 9.0036c0 15.802 19.833 197.25 23.239 212.61 1.802 8.1258 7.4659 14.774 12.586 14.774s72.825-53.27 150.45-118.38zm198.5-663.84c68.116-17.434 133.96-101.22 133.96-170.47 0-36.151-9.986-41.614-38.968-21.314-18.353 12.855-63.034 14.369-84.53 2.864-23.17-12.4-40.608-46.235-40.635-78.846-0.02-25.217 3.3412-32.125 26.241-53.909 14.446-13.742 26.265-28.21 26.265-32.15 0-15.335-47.952-27.794-95.178-24.729-73.958 4.7989-128.22 40.255-160.52 104.89-35.736 71.514-25.086 159.23 26.44 217.77 51.975 59.047 121.37 77.794 206.92 55.899zm-420.46-238.29c59.209-26.939 103.29-86.537 112.23-151.72 4.9684-36.248-9.299-45.918-33.795-22.906-20.941 19.673-66.57 24.77-94.136 10.514-28.383-14.678-42.737-39.004-42.737-72.433 0-36.182 19.842-64.466 55.133-78.586 30.947-12.382 30.736-21.327-0.9409-39.938-33.441-19.648-123.42-18.702-161.81 1.7005-43.389 23.062-71.96 51.761-91.848 92.258-15.42 31.4-18.213 45.105-17.639 86.554 0.8121 58.657 12.128 87.752 50.185 129.04 60.693 65.844 143.79 82.628 225.36 45.518z"/>
</g>
<g transform="translate(2.9528)">
<path d="m328.85 544.87h14.801v1.9922h-6.2109v15.504h-2.3789v-15.504h-6.2109v-1.9922"/>
<path d="m353.18 544.87h11.062v1.9922h-8.6953v5.1797h8.332v1.9922h-8.332v6.3398h8.9062v1.9922h-11.273v-17.496"/>
<path d="m381.45 547.2-3.2109 8.707h6.4336l-3.2226-8.707m-1.3359-2.332h2.6836l6.668 17.496h-2.4609l-1.5938-4.4883h-7.8867l-1.5938 4.4883h-2.4961l6.6797-17.496"/>
<path d="m399.23 544.87h3.5274l4.4648 11.906 4.4883-11.906h3.5274v17.496h-2.3086v-15.363l-4.5117 12h-2.3789l-4.5117-12v15.363h-2.2969v-17.496"/>
</g>
<rect x="210" y="322.36" width="330" height="250" fill="none"/>
</g>
</svg>
