<?xml version="1.0" encoding="UTF-8" standalone="no"?>
<!-- Created with Inkscape (http://www.inkscape.org/) -->

<svg
   xmlns:dc="http://purl.org/dc/elements/1.1/"
   xmlns:cc="http://creativecommons.org/ns#"
   xmlns:rdf="http://www.w3.org/1999/02/22-rdf-syntax-ns#"
   xmlns:svg="http://www.w3.org/2000/svg"
   xmlns="http://www.w3.org/2000/svg"
   xmlns:sodipodi="http://sodipodi.sourceforge.net/DTD/sodipodi-0.dtd"
   xmlns:inkscape="http://www.inkscape.org/namespaces/inkscape"
   id="svg3039"
   version="1.1"
   inkscape:version="0.48.4 r9939"
   width="577"
   height="577"
   sodipodi:docname="logo.png">
  <metadata
     id="metadata3045">
    <rdf:RDF>
      <cc:Work
         rdf:about="">
        <dc:format>image/svg+xml</dc:format>
        <dc:type
           rdf:resource="http://purl.org/dc/dcmitype/StillImage" />
        <dc:title></dc:title>
      </cc:Work>
    </rdf:RDF>
  </metadata>
  <defs
     id="defs3043" />
  <sodipodi:namedview
     pagecolor="#ffffff"
     bordercolor="#666666"
     borderopacity="1"
     objecttolerance="10"
     gridtolerance="10"
     guidetolerance="10"
     inkscape:pageopacity="0"
     inkscape:pageshadow="2"
     inkscape:window-width="1307"
     inkscape:window-height="744"
     id="namedview3041"
     showgrid="false"
     inkscape:zoom="0.73161655"
     inkscape:cx="492.58611"
     inkscape:cy="376.50113"
     inkscape:window-x="59"
     inkscape:window-y="24"
     inkscape:window-maximized="1"
     inkscape:current-layer="svg3039" />
  <path
     style="fill:#000000"
     d="m 273,559.65625 c -68.12539,-4.19681 -130.07129,-32.83944 -177.499995,-82.0727 -14.08124,-14.61699 -20.79976,-23.05484 -20.32403,-25.5251 0.45587,-2.36717 10.59811,-6.51344 25.504495,-10.42654 9.6044,-2.52127 14.44331,-3.1945 25.81953,-3.59224 l 14,-0.48947 10,8.66848 c 12.8579,11.14584 33.58561,24.95821 48.04411,32.01526 45.09092,22.00843 99.92831,26.9851 147.45589,13.38211 27.06061,-7.74508 56.217,-23.87626 77.5,-42.87795 4.4,-3.92837 10.25,-8.3302 13,-9.78185 4.49525,-2.37292 6.05997,-2.63732 15.5,-2.61911 6.83346,0.0132 14.16654,0.78091 21,2.19856 5.775,1.19807 13.46324,2.58827 17.08498,3.08935 7.28667,1.00812 16.91502,4.71286 16.91502,6.50845 0,4.4149 -32.18599,38.75034 -49,52.27233 -52.46122,42.1898 -118.51801,63.34598 -185,59.25042 z M 283.89184,459.4216 c -3.51551,-1.86129 -7.85149,-4.24002 -9.63552,-5.28605 l -3.24367,-1.90188 -0.0169,-16.5 c -0.0116,-11.35645 -0.63128,-20.48019 -1.98773,-29.26804 -7.24363,-46.92821 -28.67549,-103.65537 -50.91688,-134.76993 -10.12673,-14.16677 -23.75209,-26.96203 -28.71122,-26.96203 -3.0125,0 -6.17314,4.29866 -9.42159,12.81391 -3.31505,8.68987 -7.18859,11.63273 -14.24423,10.82184 -5.91617,-0.67992 -13.02905,-4.46769 -19.83237,-10.56116 l -5.18458,-4.64363 1.29572,-5.46548 c 0.71264,-3.00601 3.76131,-11.74751 6.77482,-19.42556 6.59875,-16.81279 9.27405,-29.59572 7.12949,-34.06564 -1.75139,-3.65044 -7.3728,-6.84823 -15.72793,-8.94697 -9.90146,-2.48716 -13.16923,-4.10405 -13.16923,-6.51612 0,-3.52298 3.59222,-9.38059 8.56207,-13.96164 l 4.73063,-4.36055 23.60365,0.78902 c 12.98201,0.43395 33.05365,1.06643 44.60365,1.40549 l 21,0.61649 10.01352,20 c 9.52177,19.01782 23.10543,42.94522 31.79138,56 11.64585,17.50343 21.22789,30.5 22.48688,30.5 0.78121,0 2.30556,-1.12532 3.38744,-2.50071 7.44026,-9.45875 22.69482,-10.51224 32.89611,-2.27181 3.18021,2.56892 7.92467,10.14539 7.92467,12.65498 0,1.42031 -2.93813,8.44029 -6.52919,15.59996 -7.36257,14.67915 -9.03492,21.64354 -7.92844,33.01758 1.06468,10.94428 4.61814,23.46467 12.929,45.55455 7.70281,20.47368 12.04741,35.5486 10.97601,38.08457 -0.31623,0.74848 -6.95875,5.85085 -14.76117,11.3386 -16.28088,11.45099 -31.65626,26.0512 -36.80121,34.94584 -1.88451,3.25796 -3.91575,6.08669 -4.51386,6.28606 -0.59811,0.19937 -3.9638,-1.16039 -7.4793,-3.02169 z M 65.835145,440.98367 c -2.83692,-3.36621 -7.83514,-11.93837 -7.83514,-13.43758 0,-0.83187 2.69099,-3.85304 5.97999,-6.71373 7.77341,-6.7611 17.09386,-20.83357 25.92561,-39.14375 9.34838,-19.38127 13.922675,-31.38792 21.698715,-56.95494 13.0996,-43.0705 19.44314,-55 29.24639,-55 4.34652,0 12.32661,4.53026 19.00963,10.79167 l 6.13882,5.75156 -1.98889,7.17717 c -2.76122,9.96419 -5.72306,17.58575 -14.52865,37.3859 -12.79714,28.77551 -17.52538,46.0652 -16.06093,58.72983 0.81103,7.01389 2.5657,10.18754 8.19802,14.82766 10.43869,8.59979 11.38246,9.80266 11.36598,14.48621 -0.008,2.3925 -0.34592,4.82214 -0.75,5.39919 -0.47591,0.67963 -8.48393,1.03975 -22.73469,1.02238 -29.832765,-0.0364 -39.075015,2.14921 -53.208915,12.58265 -7.24165,5.34568 -8.29658,5.65802 -10.45594,3.09578 z M 391.25,436.64811 c -8.39884,-9.73535 -7.54641,-11.76347 11.21788,-26.68985 C 416.18775,399.04455 419,394.48784 419,383.1711 c 0,-10.09718 -3.30224,-19.97523 -14.01973,-41.93743 -4.83118,-9.9 -11.80692,-25.2 -15.50165,-34 -8.27733,-19.71469 -12.54185,-28.29872 -17.78674,-35.80285 l -4.05581,-5.80285 -7.56803,0.65946 c -4.56403,0.3977 -9.19383,0.22139 -11.66392,-0.44419 -8.76168,-2.36088 -17.05357,-11.07711 -18.12302,-19.05048 -0.46955,-3.50075 -0.0468,-4.83185 2.96065,-9.32151 1.92963,-2.88067 6.70137,-8.83758 10.60386,-13.23758 9.5338,-10.74922 12.58642,-16.44428 12.60588,-23.51794 0.0237,-8.60704 -2.16893,-10.87372 -17.8002,-18.40153 -15.82792,-7.62252 -17.33404,-8.98173 -15.64008,-14.11451 0.66424,-2.01266 3.10631,-5.64087 5.42683,-8.0627 4.65118,-4.85423 6.98678,-5.37725 12.9278,-2.89493 7.72652,3.22835 17.71952,3.73086 40.57779,2.04053 22.34597,-1.65246 31.73364,-1.24761 37.74462,1.62776 l 2.81175,1.34502 0.65491,19.48915 c 1.03323,30.74738 4.2164,40.46231 30.16554,92.06431 16.26832,32.35089 22.66978,47.23622 35.09563,81.60794 12.26236,33.91949 16.44805,41.11679 29.64204,50.96948 4.85069,3.62228 9.03785,7.15513 9.3048,7.85079 0.57033,1.48626 -8.25765,17.51901 -10.01838,18.19466 -0.66148,0.25383 -4.49711,-0.49524 -8.52361,-1.66461 -4.02651,-1.16937 -10.47093,-3.03128 -14.32093,-4.13759 -9.28554,-2.66823 -31.15569,-3.63178 -43.76246,-1.92808 -17.50727,2.36596 -36.25398,8.30572 -48.03155,15.21845 -2.6367,1.54759 -5.1117,2.81377 -5.5,2.81373 -0.38829,-3e-5 -3.06849,-2.73851 -5.95599,-6.08549 z M 46.389575,407.52012 c -3.38131,-6.53872 -12.19346,-29.61074 -15.19608,-39.78645 -8.1309,-27.5552 -10.63235,-45.55317 -10.63235,-76.5 0,-31.8508 2.78972,-51.16023 11.49013,-79.53046 C 59.608325,121.84546 133.60329,52.209955 225.4804,29.670098 c 40.49778,-9.935166 86.39171,-9.939984 127.0392,-0.01334 48.40043,11.820015 91.77573,36.277998 126.9804,71.600292 40.89471,41.03135 66.55428,91.86599 75.70303,149.97662 1.83453,11.65249 2.2119,18.27582 2.25054,39.5 0.0473,25.97068 -0.5719,33.1371 -4.62248,53.5 -3.96946,19.95511 -12.22429,45.5 -14.70332,45.5 -2.36371,0 -17.96747,-10.78137 -23.31566,-16.10989 -3.85274,-3.83857 -5.06693,-5.98177 -6.81558,-12.03038 -3.59029,-12.41883 -6.63987,-21.95575 -10.02777,-31.35973 l -3.24235,-9 0.88014,-16 c 1.55339,-28.23899 1.10444,-45.53019 -1.51888,-58.5 C 488.04141,216.84072 474.69918,187.4292 455.88201,162.51335 442.63909,144.97836 419.00254,123.6597 399.74322,111.87972 376.04937,97.38736 346.55158,86.916401 320,83.572927 c -13.32069,-1.677392 -46.58594,-1.659397 -59,0.03192 -45.7378,6.231393 -84.31383,25.613163 -117.88672,59.229863 -18.08847,18.11206 -30.28076,35.11473 -41.15967,57.39896 -14.895905,30.51257 -21.260655,58.57084 -21.209565,93.5 0.0219,14.98513 0.40141,19.27918 2.64077,29.8806 5.41612,25.64056 2.86299,34.99614 -18.33991,67.20397 -9.53294,14.4808 -13.91956,19.91543 -16.07499,19.91543 -0.5052,0 -1.66636,-1.4461 -2.58034,-3.21355 z"
     id="path3071"
     inkscape:connector-curvature="0" />
</svg>
